<svg width="899" height="437" viewBox="0 0 899 437" fill="none" xmlns="http://www.w3.org/2000/svg">
<g id="me-3" clip-path="url(#clip0)">
<path id="Vector" d="M42.3252 119.109L41.0589 140.687L60.073 142.124L61.3392 120.546L42.3252 119.109Z" fill="#E6E6E6"/>
<g id="Vector_2">
<path d="M30.0573 130.567L53.1458 132.312L51.6082 158.514L28.5197 156.769L30.0573 130.567ZM52.0751 133.375L30.9943 131.782L29.5904 155.706L50.6712 157.299L52.0751 133.375Z" fill="#CB2020"/>
<path d="M30.0573 130.567L53.1458 132.312L51.6082 158.514L28.5197 156.769L30.0573 130.567ZM52.0751 133.375L30.9943 131.782L29.5904 155.706L50.6712 157.299L52.0751 133.375Z" fill="url(#paint0_linear)"/>
</g>
<path id="Vector_3" d="M149.777 55.1239L131.146 59.667L135.149 80.8103L153.78 76.2672L149.777 55.1239Z" fill="#E6E6E6"/>
<path id="Vector_4" d="M136.7 44.8829L141.561 70.5569L118.938 76.0735L114.077 50.3995L136.7 44.8829ZM140.366 69.6805L135.928 46.2391L115.272 51.2759L119.71 74.7174L140.366 69.6805Z" fill="#CCCCCC"/>
<path id="Vector_5" d="M130.2 156.661L116.292 171.445L129.319 187.229L143.227 172.445L130.2 156.661Z" fill="#E6E6E6"/>
<path id="Vector_6" d="M144.227 154.45L127.339 172.402L111.52 153.236L128.409 135.284L144.227 154.45ZM127.386 170.788L142.805 154.397L128.362 136.898L112.942 153.289L127.386 170.788Z" fill="#CCCCCC"/>
<path id="Vector_7" d="M849.436 0H285.616C283.578 -2.62834e-06 281.56 0.455526 279.677 1.34058C277.794 2.22563 276.084 3.52286 274.642 5.15823C273.201 6.79359 272.058 8.73505 271.278 10.8718C270.499 13.0085 270.097 15.2986 270.097 17.6113V374.124C270.097 376.436 270.499 378.726 271.278 380.863C272.058 383 273.201 384.941 274.642 386.577C276.084 388.212 277.794 389.509 279.677 390.394C281.56 391.279 283.578 391.735 285.616 391.735H849.436C853.552 391.735 857.499 389.879 860.409 386.577C863.319 383.274 864.954 378.794 864.954 374.124V17.6113C864.954 12.9405 863.319 8.46101 860.409 5.15824C857.499 1.85548 853.552 2.6541e-06 849.436 0V0Z" fill="#3F3D56"/>
<path id="Vector_8" d="M844.658 31H291.413V385.171H844.658V31Z" fill="white"/>
<path id="Vector_9" d="M567.053 21.4649C570.186 21.4649 572.727 18.5819 572.727 15.0255C572.727 11.469 570.186 8.58598 567.053 8.58598C563.919 8.58598 561.378 11.469 561.378 15.0255C561.378 18.5819 563.919 21.4649 567.053 21.4649Z" fill="white"/>
<path id="Vector_10" d="M685.93 385.296H290.903V31.1247L685.93 385.296Z" fill="#F2F2F2"/>
<path id="Vector_11" d="M880.488 378.856H826.495V374.441C826.495 374.326 826.475 374.212 826.436 374.106C826.397 374 826.341 373.904 826.269 373.822C826.197 373.741 826.112 373.677 826.019 373.633C825.925 373.589 825.825 373.566 825.724 373.566H807.212C807.11 373.566 807.01 373.589 806.916 373.633C806.823 373.677 806.738 373.741 806.666 373.822C806.595 373.904 806.538 374 806.499 374.106C806.46 374.212 806.44 374.326 806.44 374.441V378.856H794.87V374.441C794.87 374.326 794.85 374.212 794.812 374.106C794.773 374 794.716 373.904 794.644 373.822C794.573 373.741 794.488 373.677 794.394 373.633C794.301 373.589 794.2 373.566 794.099 373.566H775.587C775.486 373.566 775.386 373.589 775.292 373.633C775.198 373.677 775.113 373.741 775.042 373.822C774.97 373.904 774.913 374 774.874 374.106C774.836 374.212 774.816 374.326 774.816 374.441V374.441V378.856H763.246V374.441C763.246 374.326 763.226 374.212 763.187 374.106C763.148 374 763.092 373.904 763.02 373.822C762.948 373.741 762.863 373.677 762.77 373.633C762.676 373.589 762.576 373.566 762.475 373.566H743.963C743.861 373.566 743.761 373.589 743.667 373.633C743.574 373.677 743.489 373.741 743.417 373.822C743.346 373.904 743.289 374 743.25 374.106C743.211 374.212 743.191 374.326 743.191 374.441V374.441V378.856H731.621V374.441C731.621 374.326 731.601 374.212 731.563 374.106C731.524 374 731.467 373.904 731.395 373.822C731.324 373.741 731.239 373.677 731.145 373.633C731.052 373.589 730.951 373.566 730.85 373.566H712.338C712.237 373.566 712.136 373.589 712.043 373.633C711.949 373.677 711.864 373.741 711.793 373.822C711.721 373.904 711.664 374 711.625 374.106C711.587 374.212 711.567 374.326 711.567 374.441V378.856H699.997V374.441C699.997 374.326 699.977 374.212 699.938 374.106C699.899 374 699.842 373.904 699.771 373.822C699.699 373.741 699.614 373.677 699.521 373.633C699.427 373.589 699.327 373.566 699.225 373.566H680.714C680.612 373.566 680.512 373.589 680.418 373.633C680.325 373.677 680.24 373.741 680.168 373.822C680.096 373.904 680.04 374 680.001 374.106C679.962 374.212 679.942 374.326 679.942 374.441V374.441V378.856H668.372V374.441C668.372 374.326 668.352 374.212 668.313 374.106C668.275 374 668.218 373.904 668.146 373.822C668.075 373.741 667.99 373.677 667.896 373.633C667.802 373.589 667.702 373.566 667.601 373.566H649.089C648.988 373.566 648.887 373.589 648.794 373.633C648.7 373.677 648.615 373.741 648.543 373.822C648.472 373.904 648.415 374 648.376 374.106C648.338 374.212 648.318 374.326 648.318 374.441V374.441V378.856H636.748V374.441C636.748 374.326 636.728 374.212 636.689 374.106C636.65 374 636.593 373.904 636.522 373.822C636.45 373.741 636.365 373.677 636.271 373.633C636.178 373.589 636.078 373.566 635.976 373.566H490.966C490.865 373.566 490.765 373.589 490.671 373.633C490.577 373.677 490.492 373.741 490.421 373.822C490.349 373.904 490.292 374 490.253 374.106C490.215 374.212 490.195 374.326 490.195 374.441V374.441V378.856H478.625V374.441C478.625 374.326 478.605 374.212 478.566 374.106C478.527 374 478.471 373.904 478.399 373.822C478.327 373.741 478.242 373.677 478.149 373.633C478.055 373.589 477.955 373.566 477.854 373.566H459.342C459.24 373.566 459.14 373.589 459.046 373.633C458.953 373.677 458.868 373.741 458.796 373.822C458.725 373.904 458.668 374 458.629 374.106C458.59 374.212 458.57 374.326 458.57 374.441V374.441V378.856H447V374.441C447 374.326 446.98 374.212 446.942 374.106C446.903 374 446.846 373.904 446.774 373.822C446.703 373.741 446.618 373.677 446.524 373.633C446.431 373.589 446.33 373.566 446.229 373.566H427.717C427.616 373.566 427.515 373.589 427.422 373.633C427.328 373.677 427.243 373.741 427.172 373.822C427.1 373.904 427.043 374 427.004 374.106C426.966 374.212 426.946 374.326 426.946 374.441V374.441V378.856H415.376V374.441C415.376 374.326 415.356 374.212 415.317 374.106C415.278 374 415.221 373.904 415.15 373.822C415.078 373.741 414.993 373.677 414.9 373.633C414.806 373.589 414.706 373.566 414.604 373.566H396.092C395.991 373.566 395.891 373.589 395.797 373.633C395.704 373.677 395.619 373.741 395.547 373.822C395.475 373.904 395.419 374 395.38 374.106C395.341 374.212 395.321 374.326 395.321 374.441V374.441V378.856H383.751V374.441C383.751 374.326 383.731 374.212 383.692 374.106C383.654 374 383.597 373.904 383.525 373.822C383.454 373.741 383.369 373.677 383.275 373.633C383.181 373.589 383.081 373.566 382.98 373.566H364.468C364.367 373.566 364.266 373.589 364.173 373.633C364.079 373.677 363.994 373.741 363.922 373.822C363.851 373.904 363.794 374 363.755 374.106C363.717 374.212 363.697 374.326 363.697 374.441V374.441V378.856H352.127V374.441C352.127 374.326 352.107 374.212 352.068 374.106C352.029 374 351.972 373.904 351.901 373.822C351.829 373.741 351.744 373.677 351.65 373.633C351.557 373.589 351.457 373.566 351.355 373.566H332.843C332.639 373.566 332.443 373.658 332.298 373.822C332.153 373.986 332.072 374.209 332.072 374.441V378.856H320.502V374.441C320.502 374.326 320.482 374.212 320.443 374.106C320.405 374 320.348 373.904 320.276 373.822C320.205 373.741 320.119 373.677 320.026 373.633C319.932 373.589 319.832 373.566 319.731 373.566H301.219C301.014 373.566 300.818 373.658 300.673 373.822C300.529 373.986 300.447 374.209 300.447 374.441V378.856H264.966C260.057 378.856 255.348 381.069 251.876 385.009C248.405 388.949 246.454 394.293 246.454 399.864V409.364C246.454 414.935 248.405 420.279 251.876 424.219C255.348 428.159 260.057 430.372 264.966 430.372H880.488C885.398 430.372 890.106 428.159 893.578 424.219C897.05 420.279 899 414.935 899 409.364V399.864C899 397.105 898.521 394.374 897.591 391.825C896.661 389.276 895.297 386.96 893.578 385.009C891.859 383.058 889.818 381.511 887.572 380.455C885.326 379.399 882.919 378.856 880.488 378.856V378.856Z" fill="#3F3D56"/>
<path id="Ishan Soni" d="M320.486 51.06V65H318.666V51.06H320.486ZM327.468 65.18C326.628 65.18 325.875 65.04 325.208 64.76C324.541 64.4667 324.015 64.0667 323.628 63.56C323.241 63.04 323.028 62.4467 322.988 61.78H324.868C324.921 62.3267 325.175 62.7733 325.628 63.12C326.095 63.4667 326.701 63.64 327.448 63.64C328.141 63.64 328.688 63.4867 329.088 63.18C329.488 62.8733 329.688 62.4867 329.688 62.02C329.688 61.54 329.475 61.1867 329.048 60.96C328.621 60.72 327.961 60.4867 327.068 60.26C326.255 60.0467 325.588 59.8333 325.068 59.62C324.561 59.3933 324.121 59.0667 323.748 58.64C323.388 58.2 323.208 57.6267 323.208 56.92C323.208 56.36 323.375 55.8467 323.708 55.38C324.041 54.9133 324.515 54.5467 325.128 54.28C325.741 54 326.441 53.86 327.228 53.86C328.441 53.86 329.421 54.1667 330.168 54.78C330.915 55.3933 331.315 56.2333 331.368 57.3H329.548C329.508 56.7267 329.275 56.2667 328.848 55.92C328.435 55.5733 327.875 55.4 327.168 55.4C326.515 55.4 325.995 55.54 325.608 55.82C325.221 56.1 325.028 56.4667 325.028 56.92C325.028 57.28 325.141 57.58 325.368 57.82C325.608 58.0467 325.901 58.2333 326.248 58.38C326.608 58.5133 327.101 58.6667 327.728 58.84C328.515 59.0533 329.155 59.2667 329.648 59.48C330.141 59.68 330.561 59.9867 330.908 60.4C331.268 60.8133 331.455 61.3533 331.468 62.02C331.468 62.62 331.301 63.16 330.968 63.64C330.635 64.12 330.161 64.5 329.548 64.78C328.948 65.0467 328.255 65.18 327.468 65.18ZM339.477 53.84C340.304 53.84 341.051 54.02 341.717 54.38C342.384 54.7267 342.904 55.2533 343.277 55.96C343.664 56.6667 343.857 57.5267 343.857 58.54V65H342.057V58.8C342.057 57.7067 341.784 56.8733 341.237 56.3C340.691 55.7133 339.944 55.42 338.997 55.42C338.037 55.42 337.271 55.72 336.697 56.32C336.137 56.92 335.857 57.7933 335.857 58.94V65H334.037V50.2H335.857V55.6C336.217 55.04 336.711 54.6067 337.337 54.3C337.977 53.9933 338.691 53.84 339.477 53.84ZM346.15 59.48C346.15 58.36 346.377 57.38 346.83 56.54C347.283 55.6867 347.903 55.0267 348.69 54.56C349.49 54.0933 350.377 53.86 351.35 53.86C352.31 53.86 353.143 54.0667 353.85 54.48C354.557 54.8933 355.083 55.4133 355.43 56.04V54.04H357.27V65H355.43V62.96C355.07 63.6 354.53 64.1333 353.81 64.56C353.103 64.9733 352.277 65.18 351.33 65.18C350.357 65.18 349.477 64.94 348.69 64.46C347.903 63.98 347.283 63.3067 346.83 62.44C346.377 61.5733 346.15 60.5867 346.15 59.48ZM355.43 59.5C355.43 58.6733 355.263 57.9533 354.93 57.34C354.597 56.7267 354.143 56.26 353.57 55.94C353.01 55.6067 352.39 55.44 351.71 55.44C351.03 55.44 350.41 55.6 349.85 55.92C349.29 56.24 348.843 56.7067 348.51 57.32C348.177 57.9333 348.01 58.6533 348.01 59.48C348.01 60.32 348.177 61.0533 348.51 61.68C348.843 62.2933 349.29 62.7667 349.85 63.1C350.41 63.42 351.03 63.58 351.71 63.58C352.39 63.58 353.01 63.42 353.57 63.1C354.143 62.7667 354.597 62.2933 354.93 61.68C355.263 61.0533 355.43 60.3267 355.43 59.5ZM365.686 53.84C367.019 53.84 368.099 54.2467 368.926 55.06C369.752 55.86 370.166 57.02 370.166 58.54V65H368.366V58.8C368.366 57.7067 368.092 56.8733 367.546 56.3C366.999 55.7133 366.252 55.42 365.306 55.42C364.346 55.42 363.579 55.72 363.006 56.32C362.446 56.92 362.166 57.7933 362.166 58.94V65H360.346V54.04H362.166V55.6C362.526 55.04 363.012 54.6067 363.626 54.3C364.252 53.9933 364.939 53.84 365.686 53.84ZM382.891 65.14C381.971 65.14 381.144 64.98 380.411 64.66C379.691 64.3267 379.124 63.8733 378.711 63.3C378.297 62.7133 378.084 62.04 378.071 61.28H380.011C380.077 61.9333 380.344 62.4867 380.811 62.94C381.291 63.38 381.984 63.6 382.891 63.6C383.757 63.6 384.437 63.3867 384.931 62.96C385.437 62.52 385.691 61.96 385.691 61.28C385.691 60.7467 385.544 60.3133 385.251 59.98C384.957 59.6467 384.591 59.3933 384.151 59.22C383.711 59.0467 383.117 58.86 382.371 58.66C381.451 58.42 380.711 58.18 380.151 57.94C379.604 57.7 379.131 57.3267 378.731 56.82C378.344 56.3 378.151 55.6067 378.151 54.74C378.151 53.98 378.344 53.3067 378.731 52.72C379.117 52.1333 379.657 51.68 380.351 51.36C381.057 51.04 381.864 50.88 382.771 50.88C384.077 50.88 385.144 51.2067 385.971 51.86C386.811 52.5133 387.284 53.38 387.391 54.46H385.391C385.324 53.9267 385.044 53.46 384.551 53.06C384.057 52.6467 383.404 52.44 382.591 52.44C381.831 52.44 381.211 52.64 380.731 53.04C380.251 53.4267 380.011 53.9733 380.011 54.68C380.011 55.1867 380.151 55.6 380.431 55.92C380.724 56.24 381.077 56.4867 381.491 56.66C381.917 56.82 382.511 57.0067 383.271 57.22C384.191 57.4733 384.931 57.7267 385.491 57.98C386.051 58.22 386.531 58.6 386.931 59.12C387.331 59.6267 387.531 60.32 387.531 61.2C387.531 61.88 387.351 62.52 386.991 63.12C386.631 63.72 386.097 64.2067 385.391 64.58C384.684 64.9533 383.851 65.14 382.891 65.14ZM394.989 65.18C393.962 65.18 393.029 64.9467 392.189 64.48C391.362 64.0133 390.709 63.3533 390.229 62.5C389.762 61.6333 389.529 60.6333 389.529 59.5C389.529 58.38 389.769 57.3933 390.249 56.54C390.742 55.6733 391.409 55.0133 392.249 54.56C393.089 54.0933 394.029 53.86 395.069 53.86C396.109 53.86 397.049 54.0933 397.889 54.56C398.729 55.0133 399.389 55.6667 399.869 56.52C400.362 57.3733 400.609 58.3667 400.609 59.5C400.609 60.6333 400.356 61.6333 399.849 62.5C399.356 63.3533 398.682 64.0133 397.829 64.48C396.976 64.9467 396.029 65.18 394.989 65.18ZM394.989 63.58C395.642 63.58 396.256 63.4267 396.829 63.12C397.402 62.8133 397.862 62.3533 398.209 61.74C398.569 61.1267 398.749 60.38 398.749 59.5C398.749 58.62 398.576 57.8733 398.229 57.26C397.882 56.6467 397.429 56.1933 396.869 55.9C396.309 55.5933 395.702 55.44 395.049 55.44C394.382 55.44 393.769 55.5933 393.209 55.9C392.662 56.1933 392.222 56.6467 391.889 57.26C391.556 57.8733 391.389 58.62 391.389 59.5C391.389 60.3933 391.549 61.1467 391.869 61.76C392.202 62.3733 392.642 62.8333 393.189 63.14C393.736 63.4333 394.336 63.58 394.989 63.58ZM408.342 53.84C409.675 53.84 410.755 54.2467 411.582 55.06C412.409 55.86 412.822 57.02 412.822 58.54V65H411.022V58.8C411.022 57.7067 410.749 56.8733 410.202 56.3C409.655 55.7133 408.909 55.42 407.962 55.42C407.002 55.42 406.235 55.72 405.662 56.32C405.102 56.92 404.822 57.7933 404.822 58.94V65H403.002V54.04H404.822V55.6C405.182 55.04 405.669 54.6067 406.282 54.3C406.909 53.9933 407.595 53.84 408.342 53.84ZM416.735 52.26C416.388 52.26 416.095 52.14 415.855 51.9C415.615 51.66 415.495 51.3667 415.495 51.02C415.495 50.6733 415.615 50.38 415.855 50.14C416.095 49.9 416.388 49.78 416.735 49.78C417.068 49.78 417.348 49.9 417.575 50.14C417.815 50.38 417.935 50.6733 417.935 51.02C417.935 51.3667 417.815 51.66 417.575 51.9C417.348 52.14 417.068 52.26 416.735 52.26ZM417.615 54.04V65H415.795V54.04H417.615Z" fill="black"/>
<g id="undraw_dev_productivity_umsq 1" clip-path="url(#clip1)">
<path id="Vector_12" d="M657.265 152.881C674.084 153.15 687.868 143.948 688.054 132.329C688.239 120.709 674.755 111.072 657.937 110.804C641.118 110.535 627.334 119.737 627.148 131.356C626.962 142.976 640.446 152.613 657.265 152.881Z" fill="#A0616A"/>
<path id="Vector_13" d="M636.117 137.616C636.117 137.616 642.229 181.107 632.825 185.989C623.421 190.87 688.781 191.314 688.781 191.314C688.781 191.314 674.204 153.592 680.787 142.054L636.117 137.616Z" fill="#A0616A"/>
<path id="Vector_14" d="M736.507 191.534L731.071 214.895L719.578 264.318L719.234 267.025L715.267 298.36L712.629 319.176L710.86 333.16C700.103 338.377 692.307 341.979 692.307 341.979C692.307 341.979 691.636 338.806 690.555 334.746C683.006 336.882 669.037 340.426 657.2 341.134C661.51 345.669 663.491 349.928 660.804 353.072C652.695 362.55 619.216 342.695 607.506 335.292C607.234 337.064 607.13 338.856 607.197 340.647L598.236 334.142L599.123 319.176L600.619 293.854L602.498 262.099C601.906 260.739 601.409 259.344 601.012 257.922C598.267 248.711 594.936 230.318 592.381 214.895C590.325 202.481 588.781 191.992 588.455 189.76C588.411 189.469 588.389 189.319 588.389 189.319L637.994 168.631C641.519 176.347 657.981 178.667 657.981 178.667C671.618 177.78 682.309 170.992 682.309 170.992L736.507 191.534Z" fill="#D0CDE1"/>
<path id="Vector_15" d="M696.07 333.105C696.07 333.105 693.97 333.784 690.555 334.746C683.006 336.882 669.037 340.426 657.199 341.134C647.008 341.75 638.395 340.268 636.82 333.992C636.145 331.294 637.102 329.075 639.189 327.251C645.419 321.8 661.691 319.847 674.596 319.176C678.241 318.989 681.612 318.902 684.418 318.868C689.183 318.81 692.307 318.902 692.307 318.902L692.382 319.176L696.07 333.105Z" fill="#A0616A"/>
<path id="Vector_16" d="M771.773 298.931C768.468 302.312 760.279 307.405 750.352 312.918C746.659 314.967 742.728 317.078 738.717 319.176C729.148 324.186 719.128 329.15 710.859 333.16C700.103 338.377 692.307 341.979 692.307 341.979C692.307 341.979 691.636 338.806 690.555 334.746C689.108 329.312 686.928 322.287 684.656 319.176C684.577 319.068 684.497 318.968 684.418 318.868C683.756 318.048 683.09 317.569 682.432 317.569L715.267 298.36L729.456 290.057L719.234 267.025L706.412 238.135L714.151 214.895L721.929 191.534H736.507C736.507 191.534 741.334 201.478 747.506 215.344C748.428 217.418 749.381 219.579 750.352 221.811C763.05 250.96 778.881 291.664 771.773 298.931Z" fill="#D0CDE1"/>
<path id="Vector_17" d="M660.804 353.072C652.695 362.55 619.216 342.695 607.506 335.292C604.956 333.68 603.438 332.66 603.438 332.66L614.151 319.176L617.544 314.908C617.544 314.908 620.579 316.428 625.066 318.902C625.229 318.993 625.393 319.085 625.56 319.176C629.43 321.321 634.288 324.123 639.189 327.251C645.953 331.569 652.792 336.495 657.2 341.134C661.51 345.669 663.491 349.928 660.804 353.072Z" fill="#A0616A"/>
<path id="Vector_18" d="M625.066 318.902C623.869 318.897 622.673 318.989 621.493 319.177C611.349 320.821 608.358 329.487 607.506 335.292C607.234 337.064 607.13 338.857 607.197 340.647L598.236 334.142L594.971 331.773C587.114 329.187 580.112 324.594 574.04 319.177C568.774 314.394 564.049 309.106 559.944 303.399C555.855 297.774 552.209 291.873 549.037 285.743C548.152 284.032 547.676 282.159 547.643 280.256C547.611 278.352 548.022 276.466 548.847 274.729L559.944 251.389L576.163 217.277C576.282 216.465 576.413 215.671 576.555 214.895C579.772 197.489 588.389 189.76 588.389 189.76H594.971L599.375 214.895L604.846 246.121L601.012 257.922L592.152 285.177L600.619 293.855L625.066 318.902Z" fill="#D0CDE1"/>
<path id="Vector_19" d="M632.517 246.146L638.144 252.343C640.235 251.967 642.419 251.524 644.667 251.028L643.051 246.146L647.003 250.498C670.827 244.968 700.357 234.216 700.357 234.216C700.357 234.216 668.477 236.422 644.673 231.514C634.141 229.342 623.305 234.27 618.983 243.591C616.471 249.008 616.865 253.702 625.775 253.702C628.785 253.654 631.787 253.387 634.755 252.905L632.517 246.146Z" fill="white"/>
<path id="Vector_20" d="M760.809 347.992V350.52C760.81 351.213 760.674 351.901 760.407 352.548C760.289 352.836 760.146 353.114 759.979 353.381C759.453 354.214 758.707 354.903 757.814 355.382C756.921 355.861 755.911 356.113 754.883 356.112H557.861C556.834 356.113 555.824 355.861 554.931 355.382C554.037 354.903 553.291 354.214 552.765 353.381C552.599 353.114 552.456 352.836 552.337 352.548C552.07 351.901 551.934 351.213 551.936 350.52V347.992C551.936 347.258 552.089 346.53 552.386 345.852C552.684 345.173 553.121 344.557 553.671 344.037C554.221 343.518 554.874 343.106 555.593 342.825C556.312 342.544 557.083 342.4 557.861 342.4H569.218V341.221C569.218 341.191 569.224 341.16 569.237 341.132C569.249 341.104 569.267 341.078 569.29 341.056C569.313 341.035 569.34 341.017 569.37 341.006C569.4 340.994 569.433 340.988 569.465 340.988H575.391C575.423 340.988 575.455 340.994 575.485 341.006C575.515 341.017 575.542 341.035 575.565 341.056C575.588 341.078 575.606 341.104 575.619 341.132C575.631 341.16 575.638 341.191 575.638 341.221V342.4H579.339V341.221C579.339 341.191 579.346 341.16 579.358 341.132C579.37 341.104 579.389 341.078 579.412 341.056C579.435 341.035 579.462 341.017 579.492 341.006C579.522 340.994 579.554 340.988 579.586 340.988H585.512C585.544 340.988 585.576 340.994 585.606 341.006C585.636 341.017 585.664 341.035 585.687 341.056C585.71 341.078 585.728 341.104 585.74 341.132C585.753 341.16 585.759 341.191 585.759 341.221V342.4H589.465V341.221C589.465 341.191 589.471 341.16 589.484 341.132C589.496 341.104 589.514 341.078 589.537 341.056C589.56 341.035 589.588 341.017 589.618 341.006C589.648 340.994 589.68 340.988 589.712 340.988H595.638C595.67 340.988 595.702 340.994 595.732 341.006C595.762 341.017 595.789 341.035 595.812 341.056C595.835 341.078 595.854 341.104 595.866 341.132C595.878 341.16 595.885 341.191 595.885 341.221V342.4H599.586V341.221C599.586 341.191 599.593 341.16 599.605 341.132C599.618 341.104 599.636 341.078 599.659 341.056C599.682 341.035 599.709 341.017 599.739 341.006C599.769 340.994 599.801 340.988 599.833 340.988H605.759C605.791 340.988 605.824 340.994 605.854 341.006C605.884 341.017 605.911 341.035 605.934 341.056C605.957 341.078 605.975 341.104 605.987 341.132C606 341.16 606.006 341.191 606.006 341.221V342.4H609.708V341.221C609.708 341.191 609.714 341.16 609.726 341.132C609.739 341.104 609.757 341.078 609.78 341.056C609.803 341.035 609.83 341.017 609.86 341.006C609.89 340.994 609.922 340.988 609.955 340.988H615.88C615.913 340.988 615.945 340.994 615.975 341.006C616.005 341.017 616.032 341.035 616.055 341.056C616.078 341.078 616.096 341.104 616.109 341.132C616.121 341.16 616.127 341.191 616.127 341.221V342.4H619.834V341.221C619.833 341.191 619.84 341.16 619.852 341.132C619.865 341.104 619.883 341.078 619.906 341.056C619.929 341.035 619.956 341.017 619.986 341.006C620.016 340.994 620.048 340.988 620.081 340.988H626.006C626.039 340.988 626.071 340.994 626.101 341.006C626.131 341.017 626.158 341.035 626.181 341.056C626.204 341.078 626.222 341.104 626.234 341.132C626.247 341.16 626.253 341.191 626.253 341.221V342.4H629.955V341.221C629.955 341.191 629.961 341.16 629.974 341.132C629.986 341.104 630.004 341.078 630.027 341.056C630.05 341.035 630.077 341.017 630.107 341.006C630.137 340.994 630.169 340.988 630.202 340.988H676.617C676.65 340.988 676.682 340.994 676.712 341.006C676.742 341.017 676.769 341.035 676.792 341.056C676.815 341.078 676.833 341.104 676.846 341.132C676.858 341.16 676.864 341.191 676.864 341.221V342.4H680.57V341.221C680.57 341.191 680.577 341.16 680.589 341.132C680.602 341.104 680.62 341.078 680.643 341.056C680.666 341.035 680.693 341.017 680.723 341.006C680.753 340.994 680.785 340.988 680.817 340.988H686.743C686.808 340.989 686.871 341.013 686.917 341.057C686.963 341.101 686.989 341.16 686.99 341.221V342.4H690.692V341.221C690.692 341.191 690.698 341.16 690.71 341.132C690.723 341.104 690.741 341.078 690.764 341.056C690.787 341.035 690.814 341.017 690.844 341.006C690.874 340.994 690.906 340.988 690.939 340.988H696.864C696.897 340.988 696.929 340.994 696.959 341.006C696.989 341.017 697.016 341.035 697.039 341.056C697.062 341.078 697.08 341.104 697.093 341.132C697.105 341.16 697.111 341.191 697.111 341.221V342.4H700.813V341.221C700.813 341.191 700.819 341.16 700.832 341.132C700.844 341.104 700.862 341.078 700.885 341.056C700.908 341.035 700.936 341.017 700.966 341.006C700.996 340.994 701.028 340.988 701.06 340.988H706.986C707.018 340.988 707.05 340.994 707.08 341.006C707.11 341.017 707.138 341.035 707.161 341.056C707.183 341.078 707.202 341.104 707.214 341.132C707.226 341.16 707.233 341.191 707.233 341.221V342.4H710.939V341.221C710.939 341.191 710.945 341.16 710.958 341.132C710.97 341.104 710.988 341.078 711.011 341.056C711.034 341.035 711.061 341.017 711.091 341.006C711.121 340.994 711.154 340.988 711.186 340.988H717.111C717.176 340.989 717.238 341.014 717.284 341.057C717.329 341.101 717.354 341.16 717.354 341.221V342.4H721.06V341.221C721.06 341.191 721.067 341.16 721.079 341.132C721.091 341.104 721.11 341.078 721.132 341.056C721.155 341.035 721.183 341.017 721.213 341.006C721.243 340.994 721.275 340.988 721.307 340.988H727.233C727.265 340.988 727.297 340.994 727.327 341.006C727.357 341.017 727.385 341.035 727.408 341.056C727.431 341.078 727.449 341.104 727.461 341.132C727.474 341.16 727.48 341.191 727.48 341.221V342.4H731.182V341.221C731.182 341.191 731.188 341.16 731.2 341.132C731.213 341.104 731.231 341.078 731.254 341.056C731.277 341.035 731.304 341.017 731.334 341.006C731.364 340.994 731.396 340.988 731.429 340.988H737.354C737.387 340.988 737.419 340.994 737.449 341.006C737.479 341.017 737.506 341.035 737.529 341.056C737.552 341.078 737.57 341.104 737.582 341.132C737.595 341.16 737.601 341.191 737.601 341.221V342.4H754.883C755.662 342.4 756.432 342.544 757.151 342.825C757.87 343.106 758.523 343.518 759.074 344.037C759.624 344.557 760.06 345.173 760.358 345.852C760.656 346.53 760.809 347.258 760.809 347.992V347.992Z" fill="#3F3D56"/>
<path id="Vector_21" d="M818.1 352.548H494.693V353.381H818.1V352.548Z" fill="#3F3D56"/>
<path id="Vector_22" d="M744.799 241.429H671.363V240H638.064V241.429H564.325C563.008 241.429 561.744 241.922 560.813 242.802C559.881 243.681 559.358 244.873 559.358 246.117V341.022C559.358 342.265 559.881 343.457 560.813 344.337C561.744 345.216 563.008 345.71 564.325 345.71H744.799C746.117 345.71 747.38 345.216 748.312 344.337C749.243 343.457 749.767 342.265 749.767 341.022V246.117C749.767 245.501 749.638 244.891 749.388 244.323C749.139 243.754 748.773 243.237 748.312 242.802C747.85 242.366 747.303 242.021 746.7 241.785C746.097 241.55 745.452 241.429 744.799 241.429V241.429Z" fill="#3F3D56"/>
<path id="Vector_23" d="M655.858 288C666.075 288 674.358 283.299 674.358 277.5C674.358 271.701 666.075 267 655.858 267C645.641 267 637.358 271.701 637.358 277.5C637.358 283.299 645.641 288 655.858 288Z" stroke="#D0CDE1" stroke-width="2" stroke-miterlimit="10"/>
<path id="Vector_24" d="M649.858 293C658.971 293 666.358 287.404 666.358 280.5C666.358 273.596 658.971 268 649.858 268C640.745 268 633.358 273.596 633.358 280.5C633.358 287.404 640.745 293 649.858 293Z" fill="#D0CDE1"/>
<path id="Vector_25" d="M515.847 348.34H503.494V360H515.847V348.34Z" fill="#D0CDE1"/>
<path id="Vector_26" d="M508.349 339.18V353.338H523.35V339.18H508.349ZM522.697 352.721H508.997V339.796H522.697V352.721Z" fill="#3F3D56"/>
<path id="Vector_27" d="M801.751 348.34H789.397V360H801.751V348.34Z" fill="#D0CDE1"/>
<path id="Vector_28" d="M794.252 339.18V353.338H809.254V339.18H794.252ZM808.601 352.721H794.901V339.796H808.601V352.721Z" fill="#3F3D56"/>
<path id="Vector_29" d="M515.358 170C538.002 170 556.358 153.882 556.358 134C556.358 114.118 538.002 98 515.358 98C492.714 98 474.358 114.118 474.358 134C474.358 153.882 492.714 170 515.358 170Z" fill="#D0CDE1"/>
<path id="Vector_30" d="M529.451 91.3094C525.737 90.8969 521.979 90.8969 518.265 91.3094C509.992 92.2584 502.204 95.2607 495.825 99.9602C489.446 104.66 484.745 110.859 482.278 117.823C481.156 120.996 480.521 124.285 480.389 127.605C480.37 128.066 480.358 128.533 480.358 129C480.369 139.075 484.956 148.735 493.111 155.859C501.267 162.983 512.325 166.99 523.858 167C524.784 167 525.71 166.973 526.623 166.924C528.768 166.806 530.899 166.549 532.999 166.153C543.029 164.269 551.974 159.349 558.254 152.263C564.534 145.177 567.745 136.379 567.321 127.425C566.896 118.471 562.863 109.936 555.934 103.328C549.004 96.7193 539.624 92.4626 529.451 91.3094H529.451ZM537.473 163.949H537.467C533.964 164.993 530.317 165.627 526.623 165.833C525.71 165.887 524.784 165.914 523.858 165.914C512.655 165.902 501.914 162.009 493.993 155.089C486.071 148.169 481.614 138.787 481.601 129C481.601 128.533 481.613 128.066 481.632 127.605C482.059 118.067 486.693 109.044 494.564 102.423C502.434 95.8027 512.932 92.0984 523.858 92.0857C533.869 92.0862 543.555 95.1915 551.19 100.848C558.825 106.505 563.913 114.346 565.548 122.974C567.183 131.602 565.258 140.457 560.116 147.961C554.975 155.465 546.951 161.131 537.473 163.949H537.473Z" fill="#3F3D56"/>
<path id="Vector_31" d="M524.358 94H523.358V102H524.358V94Z" fill="#3F3D56"/>
<path id="Vector_32" d="M496.319 103.965L495.443 104.735L501.575 110.125L502.451 109.355L496.319 103.965Z" fill="#3F3D56"/>
<path id="Vector_33" d="M484.358 128V130H492.358V128H484.358Z" fill="#3F3D56"/>
<path id="Vector_34" d="M495.443 153.242L496.319 154.012L502.451 148.623L501.575 147.853L495.443 153.242Z" fill="#3F3D56"/>
<path id="Vector_35" d="M545.377 109.355L546.253 110.125L552.386 104.735L551.51 103.965L545.377 109.355Z" fill="#3F3D56"/>
<path id="Vector_36" d="M554.358 128V130H563.358V128H554.358Z" fill="#3F3D56"/>
<path id="Vector_37" d="M546.253 147.853L545.377 148.623L551.51 154.012L552.386 153.242L546.253 147.853Z" fill="#3F3D56"/>
<path id="Vector_38" d="M524.358 156H523.358V164H524.358V156Z" fill="#3F3D56"/>
<path id="Vector_39" d="M526.158 126.6C525.639 126.211 525.007 126 524.358 126C523.709 126 523.078 126.211 522.558 126.6C522.203 126.87 521.91 127.214 521.7 127.608C521.435 128.115 521.32 128.688 521.369 129.259C521.419 129.83 521.63 130.374 521.979 130.828C522.328 131.282 522.8 131.627 523.339 131.822C523.878 132.016 524.461 132.052 525.02 131.926C525.578 131.8 526.089 131.516 526.492 131.109C526.894 130.701 527.172 130.187 527.292 129.627C527.411 129.067 527.368 128.484 527.167 127.948C526.966 127.411 526.616 126.944 526.158 126.6H526.158ZM524.358 130.8C523.881 130.798 523.424 130.608 523.087 130.271C522.75 129.934 522.56 129.477 522.558 129C522.561 128.636 522.671 128.281 522.876 127.98C523.052 127.725 523.291 127.52 523.569 127.385C523.847 127.249 524.155 127.188 524.464 127.207C524.773 127.225 525.072 127.323 525.332 127.491C525.592 127.659 525.804 127.891 525.948 128.165C526.092 128.439 526.162 128.745 526.153 129.055C526.144 129.364 526.055 129.666 525.896 129.93C525.736 130.195 525.51 130.415 525.241 130.567C524.972 130.719 524.668 130.799 524.358 130.8V130.8Z" fill="#3F3D56"/>
<path id="Vector_40" d="M529.358 82H518.358V91H529.358V82Z" fill="#3F3D56"/>
<path id="Vector_41" d="M524.358 83C532.642 83 539.358 80.9853 539.358 78.5C539.358 76.0147 532.642 74 524.358 74C516.074 74 509.358 76.0147 509.358 78.5C509.358 80.9853 516.074 83 524.358 83Z" fill="#3F3D56"/>
<path id="clock" d="M526.358 108H522.358V127H526.358V108Z" fill="#3F3D56"/>
<path id="Vector_42" d="M567.713 164.794H468V165.795H567.713V164.794Z" fill="#3F3D56"/>
<g id="leaf-left">
<path id="Vector_43" d="M534.443 322.744C534.855 336.049 526.618 340.924 516.282 341.209C516.042 341.216 515.803 341.22 515.565 341.221C515.085 341.225 514.611 341.217 514.141 341.199C504.792 340.833 497.392 336.149 497.009 323.776C496.613 310.972 513.453 294.335 514.716 293.104L514.718 293.103C514.766 293.056 514.791 293.032 514.791 293.032C514.791 293.032 534.032 309.441 534.443 322.744Z" fill="#D0CDE1"/>
<path id="Vector_44" d="M515.538 339.193L522.104 329.977L515.551 340.184L515.565 341.221C515.085 341.225 514.611 341.217 514.141 341.199L514.466 327.869L514.457 327.766L514.469 327.746L514.5 326.486L507.31 316.633L514.492 325.544L514.517 325.81L514.763 315.739L508.553 305.523L514.781 313.969L514.716 293.104L514.716 293.034L514.718 293.103L515.131 309.547L520.791 302.868L515.149 310.964L515.273 319.973L520.482 311.181L515.292 321.297L515.361 326.306L522.936 314.059L515.384 328.054L515.538 339.193Z" fill="#3F3D56"/>
</g>
<g id="leaf-right">
<path id="Vector_45" d="M820.347 322.744C820.759 336.049 812.522 340.924 802.185 341.209C801.945 341.216 801.706 341.22 801.468 341.221C800.989 341.225 800.514 341.217 800.044 341.199C790.696 340.833 783.296 336.149 782.913 323.776C782.517 310.972 799.356 294.335 800.62 293.104L800.622 293.103C800.67 293.056 800.695 293.032 800.695 293.032C800.695 293.032 819.935 309.441 820.347 322.744Z" fill="#D0CDE1"/>
<path id="Vector_46" d="M801.441 339.193L808.008 329.977L801.455 340.184L801.468 341.221C800.989 341.225 800.514 341.217 800.044 341.199L800.37 327.869L800.361 327.766L800.373 327.746L800.404 326.486L793.214 316.633L800.396 325.544L800.421 325.81L800.667 315.739L794.456 305.523L800.685 313.969L800.62 293.104L800.62 293.034L800.622 293.103L801.034 309.547L806.695 302.868L801.053 310.964L801.177 319.973L806.385 311.181L801.196 321.297L801.264 326.306L808.84 314.059L801.288 328.054L801.441 339.193Z" fill="#3F3D56"/>
</g>
<path id="IS" d="M648.442 278.242V288H647.168V278.242H648.442ZM653.708 288.098C653.064 288.098 652.485 287.986 651.972 287.762C651.468 287.529 651.071 287.211 650.782 286.81C650.492 286.399 650.343 285.928 650.334 285.396H651.692C651.738 285.853 651.925 286.241 652.252 286.558C652.588 286.866 653.073 287.02 653.708 287.02C654.314 287.02 654.79 286.871 655.136 286.572C655.49 286.264 655.668 285.872 655.668 285.396C655.668 285.023 655.565 284.719 655.36 284.486C655.154 284.253 654.898 284.075 654.59 283.954C654.282 283.833 653.866 283.702 653.344 283.562C652.7 283.394 652.182 283.226 651.79 283.058C651.407 282.89 651.076 282.629 650.796 282.274C650.525 281.91 650.39 281.425 650.39 280.818C650.39 280.286 650.525 279.815 650.796 279.404C651.066 278.993 651.444 278.676 651.93 278.452C652.424 278.228 652.989 278.116 653.624 278.116C654.538 278.116 655.285 278.345 655.864 278.802C656.452 279.259 656.783 279.866 656.858 280.622H655.458C655.411 280.249 655.215 279.922 654.87 279.642C654.524 279.353 654.067 279.208 653.498 279.208C652.966 279.208 652.532 279.348 652.196 279.628C651.86 279.899 651.692 280.281 651.692 280.776C651.692 281.131 651.79 281.42 651.986 281.644C652.191 281.868 652.438 282.041 652.728 282.162C653.026 282.274 653.442 282.405 653.974 282.554C654.618 282.731 655.136 282.909 655.528 283.086C655.92 283.254 656.256 283.52 656.536 283.884C656.816 284.239 656.956 284.724 656.956 285.34C656.956 285.816 656.83 286.264 656.578 286.684C656.326 287.104 655.952 287.445 655.458 287.706C654.963 287.967 654.38 288.098 653.708 288.098Z" fill="#F50A0A"/>
<g id="cap-2 1">
<g id="Group">
<path id="Shape" d="M666.196 98.8695C665.847 97.4789 662.053 97.2742 661.367 98.5844C662.985 98.3969 664.643 98.4953 666.196 98.8695Z" fill="black"/>
<path id="Vector_47" d="M629.483 128.827C643.584 130.253 640.352 135.066 653.529 134.175C660.865 133.584 667.604 131.006 672.359 126.973C656.886 126.304 643.333 121.277 631.666 122.516C626.413 125.19 620.922 127.695 618.214 129.298C619.85 128.827 623.319 128.203 629.483 128.827V128.827Z" fill="black"/>
<path id="Vector_48" d="M641.388 120.903C642.063 116.945 644.77 106.33 654.753 101.187C649.337 102.078 642.748 103.985 638.918 107.925C634.613 112.284 633.078 118.229 632.604 120.653C635.536 120.513 638.48 120.597 641.388 120.903V120.903Z" fill="black"/>
<path id="Vector_49" d="M670.252 125.057C673.209 125.28 675.655 125.245 679.586 125.476C683.33 125.698 684.689 126.046 685.826 125.556C686.496 125.21 686.924 124.674 686.998 124.085C687.407 122.48 687.579 120.849 687.51 119.219C687.51 110.546 681.27 104.369 668.792 101.276C676.266 107.89 672.086 120.537 670.252 125.057Z" fill="black"/>
<path id="Vector_50" d="M643.858 121.126C648.975 121.777 658.184 123.8 667.743 124.834C669.365 120.867 674.993 105.01 663.412 100.348C648.189 102.533 644.608 116.607 643.858 121.126V121.126Z" fill="black"/>
</g>
</g>
</g>
<g id="github 1">
<path id="Vector_51" d="M814.792 43H800.208C797.332 43 795 45.3323 795 48.2083V62.7917C795 65.6677 797.332 68 800.208 68H814.792C817.669 68 820 65.6677 820 62.7917V48.2083C820 45.3323 817.669 43 814.792 43ZM810.14 63.4062C809.718 63.4875 809.583 63.2281 809.583 63.0063V60.7198C809.583 59.9417 809.31 59.4354 809.01 59.1771C810.867 58.9708 812.817 58.2656 812.817 55.0656C812.817 54.1552 812.492 53.4115 811.959 52.8292C812.045 52.6187 812.33 51.7708 811.877 50.624C811.877 50.624 811.178 50.4 809.587 51.4781C808.921 51.2906 808.208 51.2 807.5 51.1958C806.792 51.199 806.079 51.2906 805.414 51.476C803.822 50.3979 803.122 50.6219 803.122 50.6219C802.67 51.7698 802.955 52.6167 803.042 52.8281C802.508 53.4115 802.183 54.1542 802.183 55.0646C802.183 58.2562 804.128 58.9719 805.98 59.1833C805.742 59.3917 805.526 59.7583 805.451 60.2979C804.975 60.5104 803.77 60.8781 803.026 59.6042C803.026 59.6042 802.585 58.8042 801.748 58.7448C801.748 58.7448 800.935 58.7344 801.691 59.2521C801.691 59.2521 802.237 59.5083 802.617 60.4708C802.617 60.4708 803.099 61.9583 805.417 61.4542V63.0052C805.417 63.225 805.282 63.4833 804.867 63.4062C801.554 62.3052 799.167 59.1812 799.167 55.5C799.167 50.8969 802.898 47.1667 807.5 47.1667C812.102 47.1667 815.833 50.8969 815.833 55.5C815.833 59.1802 813.449 62.3031 810.14 63.4062Z" fill="#0D0E0F"/>
</g>
<g id="instagram 1 1">
<path id="Vector_52" d="M763.187 43H753.812C749.498 43 746 46.4984 746 50.8125V60.1875C746 64.5015 749.498 68 753.812 68H763.187C767.502 68 771 64.5015 771 60.1875V50.8125C771 46.4984 767.502 43 763.187 43ZM768.656 60.1875C768.656 63.2031 766.203 65.6562 763.187 65.6562H753.812C750.797 65.6562 748.344 63.2031 748.344 60.1875V50.8125C748.344 47.7969 750.797 45.3437 753.812 45.3437H763.187C766.203 45.3437 768.656 47.7969 768.656 50.8125V60.1875Z" fill="#3F3D56"/>
<path id="Vector_53" d="M758.5 49.25C755.048 49.25 752.25 52.0484 752.25 55.5C752.25 58.9515 755.048 61.75 758.5 61.75C761.952 61.75 764.75 58.9515 764.75 55.5C764.75 52.0484 761.952 49.25 758.5 49.25ZM758.5 59.4062C756.347 59.4062 754.594 57.6531 754.594 55.5C754.594 53.3453 756.347 51.5937 758.5 51.5937C760.653 51.5937 762.406 53.3453 762.406 55.5C762.406 57.6531 760.653 59.4062 758.5 59.4062Z" fill="#3F3D56"/>
<path id="Vector_54" d="M765.219 49.6141C765.679 49.6141 766.052 49.2413 766.052 48.7813C766.052 48.3214 765.679 47.9485 765.219 47.9485C764.759 47.9485 764.386 48.3214 764.386 48.7813C764.386 49.2413 764.759 49.6141 765.219 49.6141Z" fill="#3F3D56"/>
</g>
<g id="twitter 1 1">
<rect width="25" height="25" transform="translate(699 44)" fill="#3F3D56"/>
<g id="Group_2">
<path id="Vector_55" d="M724 48.7484C723.07 49.1562 722.08 49.4266 721.047 49.5578C722.109 48.9234 722.92 47.9266 723.302 46.725C722.311 47.3156 721.217 47.7328 720.052 47.9656C719.111 46.9641 717.77 46.3438 716.308 46.3438C713.47 46.3438 711.186 48.6469 711.186 51.4703C711.186 51.8766 711.22 52.2672 711.305 52.6391C707.044 52.4313 703.273 50.3891 700.741 47.2781C700.298 48.0453 700.039 48.9234 700.039 49.8688C700.039 51.6438 700.953 53.2172 702.316 54.1281C701.492 54.1125 700.684 53.8734 700 53.4969C700 53.5125 700 53.5328 700 53.5531C700 56.0437 701.777 58.1125 704.106 58.5891C703.689 58.7031 703.234 58.7578 702.763 58.7578C702.434 58.7578 702.103 58.7391 701.792 58.6703C702.456 60.7 704.341 62.1922 706.581 62.2406C704.838 63.6047 702.623 64.4266 700.227 64.4266C699.806 64.4266 699.403 64.4078 699 64.3563C701.27 65.8203 703.961 66.6562 706.863 66.6562C716.294 66.6562 721.45 58.8438 721.45 52.0719C721.45 51.8453 721.442 51.6266 721.431 51.4094C722.448 50.6875 723.303 49.7859 724 48.7484Z" fill="white"/>
</g>
</g>
<g id="me">
<path id="Vector_56" d="M180.993 360.081L191.566 365.536L184.838 386.451L174.266 387.36L168.499 375.539L180.993 360.081Z" fill="#FFB9B9"/>
<path id="Vector_57" d="M148.315 401.909V411.91L131.976 411.001L132.203 402.764L148.315 401.909Z" fill="#FFB9B9"/>
<path id="Vector_58" d="M184.838 240.051L179.071 308.25L160.81 408.273L131.976 404.636L141.587 325.526L137.742 252.782L184.838 240.051Z" fill="#2F2E41"/>
<path id="Vector_59" d="M107.947 189.13L177.149 190.039L184.838 240.051L137.742 260.966L126.209 300.975L184.838 360.08L161.771 387.359C161.771 387.359 129.092 345.531 105.064 321.889C81.0354 298.247 92.569 226.412 92.569 226.412L107.947 189.13Z" fill="#2F2E41"/>
<path id="Vector_60" d="M149.276 60.0081C160.954 60.0081 170.421 51.0517 170.421 40.0034C170.421 28.955 160.954 19.9986 149.276 19.9986C137.598 19.9986 128.131 28.955 128.131 40.0034C128.131 51.0517 137.598 60.0081 149.276 60.0081Z" fill="#FFB9B9"/>
<path id="Vector_61" d="M156.965 53.6431V73.6479L142.548 95.4712C142.548 95.4712 120.442 80.013 125.248 76.3758C130.053 72.7385 131.014 44.5499 131.014 44.5499L156.965 53.6431Z" fill="#FFB9B9"/>
<path id="Vector_62" d="M156.965 70.011L171.382 86.3782L165.615 200.041L120.442 199.132L112.753 100.018L122.364 74.5574L128.957 66.071L140.626 82.7409L156.965 70.011Z" fill="white"/>
<path id="Vector_63" d="M180.032 129.116L190.605 167.307L180.032 205.498L197.333 227.321L212.711 158.214C212.711 158.214 201.177 101.836 200.216 95.4712C199.255 89.106 197.333 88.1967 197.333 88.1967L189.644 89.106L180.032 129.116Z" fill="#2F2E41"/>
<path id="Vector_64" d="M103.142 143.664L96.4139 155.486L94.4912 175.491L98.3357 198.223L84.8803 219.138L71.4248 161.851L85.8412 88.1964H91.6085L103.142 143.664Z" fill="#2F2E41"/>
<path id="Vector_65" d="M184.838 359.171C184.838 359.171 198.294 362.808 203.099 363.717C207.905 364.627 200.216 381.904 200.216 381.904C200.216 381.904 195.41 405.546 194.449 410.092C193.488 414.639 186.76 430.097 178.11 431.916C169.46 433.734 175.227 400.09 175.227 400.09C175.227 400.09 171.382 389.178 171.382 385.541C171.382 381.904 177.149 383.722 177.149 383.722C192.527 381.904 184.838 359.171 184.838 359.171Z" fill="#2F2E41"/>
<path id="Vector_66" d="M153.121 429.188C152.159 434.644 154.082 434.644 138.703 436.462C123.325 438.281 127.17 426.46 127.17 426.46C127.813 420.887 129.102 415.398 131.014 410.092C133.898 402.818 149.276 411.911 149.276 411.911C149.276 411.911 154.082 423.732 153.121 429.188Z" fill="#2F2E41"/>
<path id="Vector_67" d="M130.989 45.185L130.488 53.2718C130.488 53.2718 124.287 40.0033 123.325 26.3637C122.364 12.7241 138.703 9.99618 148.315 9.08687C157.926 8.17756 174.265 14.5427 174.265 21.8172C174.265 29.0917 156.965 27.2731 150.237 25.4544C143.509 23.6358 140.626 39.0941 140.626 39.0941L136.781 40.0034L130.989 45.185Z" fill="#2F2E41"/>
<path id="Vector_68" d="M162.638 76.4503L156.965 70.011L140.626 82.741L156.965 93.6527L162.638 76.4503Z" fill="white"/>
<path id="Vector_69" d="M122.364 74.5573L129.092 66.3737L140.626 82.7409L126.209 92.7436L122.364 74.5573Z" fill="white"/>
<path id="Vector_70" d="M182.916 141.846L179.071 176.4L186.76 197.314L191.566 217.319C191.566 217.319 191.566 236.414 172.343 237.323C153.12 238.233 136.781 180.037 136.781 180.037C136.781 180.037 133.898 192.767 131.976 200.042C130.053 207.316 97.3747 236.414 97.3747 236.414C97.3747 236.414 89.6857 235.505 82.9577 220.956C76.2298 206.407 96.4136 192.767 96.4136 192.767L102.18 173.672L100.258 150.03L86.8022 88.1967L126.689 68.6466L122.364 120.932L136.781 161.851L158.407 71.3745L165.615 76.3758L196.371 88.1968L182.916 141.846Z" fill="#2F2E41"/>
</g>
<g id="code">
<path id="Vector_71" d="M409.361 223.037L427.773 200.99L409.361 178.944L414.974 172.225L439 200.99L414.974 229.756L409.361 223.037Z" fill="#6C63FF"/>
<path id="typing" d="M356.781 202.563H364.265V193.574H356.781L356.781 202.563ZM394.354 193.574H386.869V202.563H394.354V193.574ZM371.825 202.563H379.31V193.574H371.825V202.563Z" fill="#6C63FF"/>
<path id="Vector_72" d="M346.639 222.812L328.208 200.766L346.621 178.719L341.007 172L317 200.766L341.026 229.531L346.639 222.812Z" fill="#6C63FF"/>
</g>
<g id="Text">
<path id="HTML" d="M40.578 42.181V61H38.121V52.468H28.536V61H26.079V42.181H28.536V50.443H38.121V42.181H40.578ZM56.3563 42.181V44.179H51.2263V61H48.7693V44.179H43.6123V42.181H56.3563ZM78.4698 42.316V61H76.0128V47.068L69.8028 61H68.0748L61.8378 47.041V61H59.3808V42.316H62.0268L68.9388 57.76L75.8508 42.316H78.4698ZM85.0936 59.002H91.6816V61H82.6366V42.181H85.0936V59.002Z" fill="black"/>
</g>
<g id="Text_2">
<path id="HTML_2" d="M14.988 291L10.506 283.305H7.536V291H5.079V272.181H11.154C12.576 272.181 13.773 272.424 14.745 272.91C15.735 273.396 16.473 274.053 16.959 274.881C17.445 275.709 17.688 276.654 17.688 277.716C17.688 279.012 17.31 280.155 16.554 281.145C15.816 282.135 14.7 282.792 13.206 283.116L17.931 291H14.988ZM7.536 281.334H11.154C12.486 281.334 13.485 281.01 14.151 280.362C14.817 279.696 15.15 278.814 15.15 277.716C15.15 276.6 14.817 275.736 14.151 275.124C13.503 274.512 12.504 274.206 11.154 274.206H7.536V281.334ZM23.9628 274.179V280.47H30.8208V282.495H23.9628V288.975H31.6308V291H21.5058V272.154H31.6308V274.179H23.9628ZM46.4725 286.815H38.2645L36.7525 291H34.1605L40.9645 272.289H43.7995L50.5765 291H47.9845L46.4725 286.815ZM45.7705 284.817L42.3685 275.313L38.9665 284.817H45.7705ZM52.6239 281.577C52.6239 279.741 53.0379 278.094 53.8659 276.636C54.6939 275.16 55.8189 274.008 57.2409 273.18C58.6809 272.352 60.2739 271.938 62.0199 271.938C64.0719 271.938 65.8629 272.433 67.3929 273.423C68.9229 274.413 70.0389 275.817 70.7409 277.635H67.7979C67.2759 276.501 66.5199 275.628 65.5299 275.016C64.5579 274.404 63.3879 274.098 62.0199 274.098C60.7059 274.098 59.5269 274.404 58.4829 275.016C57.4389 275.628 56.6199 276.501 56.0259 277.635C55.4319 278.751 55.1349 280.065 55.1349 281.577C55.1349 283.071 55.4319 284.385 56.0259 285.519C56.6199 286.635 57.4389 287.499 58.4829 288.111C59.5269 288.723 60.7059 289.029 62.0199 289.029C63.3879 289.029 64.5579 288.732 65.5299 288.138C66.5199 287.526 67.2759 286.653 67.7979 285.519H70.7409C70.0389 287.319 68.9229 288.714 67.3929 289.704C65.8629 290.676 64.0719 291.162 62.0199 291.162C60.2739 291.162 58.6809 290.757 57.2409 289.947C55.8189 289.119 54.6939 287.976 53.8659 286.518C53.0379 285.06 52.6239 283.413 52.6239 281.577ZM85.9813 272.181V274.179H80.8513V291H78.3943V274.179H73.2373V272.181H85.9813Z" fill="black"/>
</g>
<g id="Text_3">
<path id="HTML_3" d="M4.161 203.577C4.161 201.741 4.575 200.094 5.403 198.636C6.231 197.16 7.356 196.008 8.778 195.18C10.218 194.352 11.811 193.938 13.557 193.938C15.609 193.938 17.4 194.433 18.93 195.423C20.46 196.413 21.576 197.817 22.278 199.635H19.335C18.813 198.501 18.057 197.628 17.067 197.016C16.095 196.404 14.925 196.098 13.557 196.098C12.243 196.098 11.064 196.404 10.02 197.016C8.976 197.628 8.157 198.501 7.563 199.635C6.969 200.751 6.672 202.065 6.672 203.577C6.672 205.071 6.969 206.385 7.563 207.519C8.157 208.635 8.976 209.499 10.02 210.111C11.064 210.723 12.243 211.029 13.557 211.029C14.925 211.029 16.095 210.732 17.067 210.138C18.057 209.526 18.813 208.653 19.335 207.519H22.278C21.576 209.319 20.46 210.714 18.93 211.704C17.4 212.676 15.609 213.162 13.557 213.162C11.811 213.162 10.218 212.757 8.778 211.947C7.356 211.119 6.231 209.976 5.403 208.518C4.575 207.06 4.161 205.413 4.161 203.577ZM31.9024 213.189C30.6604 213.189 29.5444 212.973 28.5544 212.541C27.5824 212.091 26.8174 211.479 26.2594 210.705C25.7014 209.913 25.4134 209.004 25.3954 207.978H28.0144C28.1044 208.86 28.4644 209.607 29.0944 210.219C29.7424 210.813 30.6784 211.11 31.9024 211.11C33.0724 211.11 33.9904 210.822 34.6564 210.246C35.3404 209.652 35.6824 208.896 35.6824 207.978C35.6824 207.258 35.4844 206.673 35.0884 206.223C34.6924 205.773 34.1974 205.431 33.6034 205.197C33.0094 204.963 32.2084 204.711 31.2004 204.441C29.9584 204.117 28.9594 203.793 28.2034 203.469C27.4654 203.145 26.8264 202.641 26.2864 201.957C25.7644 201.255 25.5034 200.319 25.5034 199.149C25.5034 198.123 25.7644 197.214 26.2864 196.422C26.8084 195.63 27.5374 195.018 28.4734 194.586C29.4274 194.154 30.5164 193.938 31.7404 193.938C33.5044 193.938 34.9444 194.379 36.0604 195.261C37.1944 196.143 37.8334 197.313 37.9774 198.771H35.2774C35.1874 198.051 34.8094 197.421 34.1434 196.881C33.4774 196.323 32.5954 196.044 31.4974 196.044C30.4714 196.044 29.6344 196.314 28.9864 196.854C28.3384 197.376 28.0144 198.114 28.0144 199.068C28.0144 199.752 28.2034 200.31 28.5814 200.742C28.9774 201.174 29.4544 201.507 30.0124 201.741C30.5884 201.957 31.3894 202.209 32.4154 202.497C33.6574 202.839 34.6564 203.181 35.4124 203.523C36.1684 203.847 36.8164 204.36 37.3564 205.062C37.8964 205.746 38.1664 206.682 38.1664 207.87C38.1664 208.788 37.9234 209.652 37.4374 210.462C36.9514 211.272 36.2314 211.929 35.2774 212.433C34.3234 212.937 33.1984 213.189 31.9024 213.189ZM47.7491 213.189C46.5071 213.189 45.3911 212.973 44.4011 212.541C43.4291 212.091 42.6641 211.479 42.1061 210.705C41.5481 209.913 41.2601 209.004 41.2421 207.978H43.8611C43.9511 208.86 44.3111 209.607 44.9411 210.219C45.5891 210.813 46.5251 211.11 47.7491 211.11C48.9191 211.11 49.8371 210.822 50.5031 210.246C51.1871 209.652 51.5291 208.896 51.5291 207.978C51.5291 207.258 51.3311 206.673 50.9351 206.223C50.5391 205.773 50.0441 205.431 49.4501 205.197C48.8561 204.963 48.0551 204.711 47.0471 204.441C45.8051 204.117 44.8061 203.793 44.0501 203.469C43.3121 203.145 42.6731 202.641 42.1331 201.957C41.6111 201.255 41.3501 200.319 41.3501 199.149C41.3501 198.123 41.6111 197.214 42.1331 196.422C42.6551 195.63 43.3841 195.018 44.3201 194.586C45.2741 194.154 46.3631 193.938 47.5871 193.938C49.3511 193.938 50.7911 194.379 51.9071 195.261C53.0411 196.143 53.6801 197.313 53.8241 198.771H51.1241C51.0341 198.051 50.6561 197.421 49.9901 196.881C49.3241 196.323 48.4421 196.044 47.3441 196.044C46.3181 196.044 45.4811 196.314 44.8331 196.854C44.1851 197.376 43.8611 198.114 43.8611 199.068C43.8611 199.752 44.0501 200.31 44.4281 200.742C44.8241 201.174 45.3011 201.507 45.8591 201.741C46.4351 201.957 47.2361 202.209 48.2621 202.497C49.5041 202.839 50.5031 203.181 51.2591 203.523C52.0151 203.847 52.6631 204.36 53.2031 205.062C53.7431 205.746 54.0131 206.682 54.0131 207.87C54.0131 208.788 53.7701 209.652 53.2841 210.462C52.7981 211.272 52.0781 211.929 51.1241 212.433C50.1701 212.937 49.0451 213.189 47.7491 213.189Z" fill="black"/>
</g>
<g id="Text_4">
<path id="HTML_4" d="M208.556 289.181V303.086C208.556 304.634 208.079 305.876 207.125 306.812C206.171 307.73 204.911 308.189 203.345 308.189C201.761 308.189 200.492 307.721 199.538 306.785C198.584 305.831 198.107 304.535 198.107 302.897H200.564C200.582 303.815 200.816 304.562 201.266 305.138C201.734 305.714 202.427 306.002 203.345 306.002C204.263 306.002 204.947 305.732 205.397 305.192C205.847 304.634 206.072 303.932 206.072 303.086V289.181H208.556ZM219.363 308.189C218.121 308.189 217.005 307.973 216.015 307.541C215.043 307.091 214.278 306.479 213.72 305.705C213.162 304.913 212.874 304.004 212.856 302.978H215.475C215.565 303.86 215.925 304.607 216.555 305.219C217.203 305.813 218.139 306.11 219.363 306.11C220.533 306.11 221.451 305.822 222.117 305.246C222.801 304.652 223.143 303.896 223.143 302.978C223.143 302.258 222.945 301.673 222.549 301.223C222.153 300.773 221.658 300.431 221.064 300.197C220.47 299.963 219.669 299.711 218.661 299.441C217.419 299.117 216.42 298.793 215.664 298.469C214.926 298.145 214.287 297.641 213.747 296.957C213.225 296.255 212.964 295.319 212.964 294.149C212.964 293.123 213.225 292.214 213.747 291.422C214.269 290.63 214.998 290.018 215.934 289.586C216.888 289.154 217.977 288.938 219.201 288.938C220.965 288.938 222.405 289.379 223.521 290.261C224.655 291.143 225.294 292.313 225.438 293.771H222.738C222.648 293.051 222.27 292.421 221.604 291.881C220.938 291.323 220.056 291.044 218.958 291.044C217.932 291.044 217.095 291.314 216.447 291.854C215.799 292.376 215.475 293.114 215.475 294.068C215.475 294.752 215.664 295.31 216.042 295.742C216.438 296.174 216.915 296.507 217.473 296.741C218.049 296.957 218.85 297.209 219.876 297.497C221.118 297.839 222.117 298.181 222.873 298.523C223.629 298.847 224.277 299.36 224.817 300.062C225.357 300.746 225.627 301.682 225.627 302.87C225.627 303.788 225.384 304.652 224.898 305.462C224.412 306.272 223.692 306.929 222.738 307.433C221.784 307.937 220.659 308.189 219.363 308.189Z" fill="black"/>
</g>
</g>
<defs>
<linearGradient id="paint0_linear" x1="40.8328" y1="130.567" x2="40.8328" y2="158.514" gradientUnits="userSpaceOnUse">
<stop stop-color="#331C1C"/>
<stop offset="1" stop-color="white" stop-opacity="0"/>
</linearGradient>
<clipPath id="clip0">
<rect width="899" height="437" fill="white"/>
</clipPath>
<clipPath id="clip1">
<rect width="352.362" height="287" fill="white" transform="translate(468 73)"/>
</clipPath>
</defs>
</svg>
