<svg width="799" height="437" viewBox="0 0 799 437" fill="none" xmlns="http://www.w3.org/2000/svg">
<g id="me-4" clip-path="url(#clip0)">
<path id="Vector" d="M37.6172 119.109L36.4918 140.687L53.3908 142.124L54.5162 120.546L37.6172 119.109Z" fill="#E6E6E6"/>
<g id="Vector_2">
<path d="M26.7139 130.567L47.2342 132.312L45.8676 158.514L25.3474 156.769L26.7139 130.567ZM46.2826 133.375L27.5467 131.782L26.299 155.706L45.0348 157.299L46.2826 133.375Z" fill="#CB2020"/>
<path d="M26.7139 130.567L47.2342 132.312L45.8676 158.514L25.3474 156.769L26.7139 130.567ZM46.2826 133.375L27.5467 131.782L26.299 155.706L45.0348 157.299L46.2826 133.375Z" fill="url(#paint0_linear)"/>
</g>
<path id="Vector_3" d="M133.116 55.1239L116.558 59.667L120.116 80.8103L136.674 76.2672L133.116 55.1239Z" fill="#E6E6E6"/>
<path id="Vector_4" d="M121.494 44.8829L125.815 70.5569L105.708 76.0735L101.387 50.3995L121.494 44.8829ZM124.753 69.6805L120.808 46.2391L102.449 51.2759L106.394 74.7174L124.753 69.6805Z" fill="#CCCCCC"/>
<path id="Vector_5" d="M115.717 156.661L103.356 171.445L114.935 187.229L127.295 172.445L115.717 156.661Z" fill="#E6E6E6"/>
<path id="Vector_6" d="M128.184 154.45L113.175 172.402L99.1155 153.236L114.125 135.284L128.184 154.45ZM113.216 170.788L126.92 154.397L114.084 136.898L100.379 153.289L113.216 170.788Z" fill="#CCCCCC"/>
<path id="Vector_7" d="M754.949 0H253.846C252.034 -2.62834e-06 250.241 0.455526 248.567 1.34058C246.894 2.22563 245.374 3.52286 244.093 5.15823C242.812 6.79359 241.796 8.73505 241.103 10.8718C240.41 13.0085 240.053 15.2986 240.053 17.6113V374.124C240.053 376.436 240.41 378.726 241.103 380.863C241.796 383 242.812 384.941 244.093 386.577C245.374 388.212 246.894 389.509 248.567 390.394C250.241 391.279 252.034 391.735 253.846 391.735H754.949C758.607 391.735 762.115 389.879 764.702 386.577C767.288 383.274 768.742 378.794 768.742 374.124V17.6113C768.742 12.9405 767.288 8.46101 764.702 5.15824C762.115 1.85548 758.607 2.6541e-06 754.949 0V0Z" fill="#3F3D56"/>
<path id="Vector_8" d="M750.703 31H258.998V385.171H750.703V31Z" fill="white"/>
<path id="Vector_9" d="M503.977 21.4649C506.762 21.4649 509.02 18.5819 509.02 15.0255C509.02 11.469 506.762 8.58598 503.977 8.58598C501.191 8.58598 498.934 11.469 498.934 15.0255C498.934 18.5819 501.191 21.4649 503.977 21.4649Z" fill="white"/>
<path id="Vector_10" d="M609.631 385.296H258.545V31.1247L609.631 385.296Z" fill="#F2F2F2"/>
<path id="Vector_11" d="M782.547 378.856H734.56V374.441C734.56 374.326 734.542 374.212 734.508 374.106C734.473 374 734.423 373.904 734.359 373.822C734.296 373.741 734.22 373.677 734.137 373.633C734.054 373.589 733.964 373.566 733.874 373.566H717.422C717.332 373.566 717.242 373.589 717.159 373.633C717.076 373.677 717.001 373.741 716.937 373.822C716.873 373.904 716.823 374 716.788 374.106C716.754 374.212 716.736 374.326 716.736 374.441V378.856H706.453V374.441C706.453 374.326 706.435 374.212 706.401 374.106C706.367 374 706.316 373.904 706.252 373.822C706.189 373.741 706.113 373.677 706.03 373.633C705.947 373.589 705.858 373.566 705.768 373.566H689.315C689.225 373.566 689.136 373.589 689.053 373.633C688.969 373.677 688.894 373.741 688.83 373.822C688.767 373.904 688.716 374 688.682 374.106C688.647 374.212 688.629 374.326 688.629 374.441V374.441V378.856H678.346V374.441C678.346 374.326 678.329 374.212 678.294 374.106C678.26 374 678.209 373.904 678.146 373.822C678.082 373.741 678.006 373.677 677.923 373.633C677.84 373.589 677.751 373.566 677.661 373.566H661.208C661.118 373.566 661.029 373.589 660.946 373.633C660.863 373.677 660.787 373.741 660.723 373.822C660.66 373.904 660.609 374 660.575 374.106C660.54 374.212 660.523 374.326 660.523 374.441V374.441V378.856H650.24V374.441C650.24 374.326 650.222 374.212 650.187 374.106C650.153 374 650.102 373.904 650.039 373.822C649.975 373.741 649.9 373.677 649.816 373.633C649.733 373.589 649.644 373.566 649.554 373.566H633.101C633.011 373.566 632.922 373.589 632.839 373.633C632.756 373.677 632.68 373.741 632.617 373.822C632.553 373.904 632.502 374 632.468 374.106C632.434 374.212 632.416 374.326 632.416 374.441V378.856H622.133V374.441C622.133 374.326 622.115 374.212 622.081 374.106C622.046 374 621.996 373.904 621.932 373.822C621.868 373.741 621.793 373.677 621.71 373.633C621.626 373.589 621.537 373.566 621.447 373.566H604.995C604.905 373.566 604.815 373.589 604.732 373.633C604.649 373.677 604.573 373.741 604.51 373.822C604.446 373.904 604.396 374 604.361 374.106C604.327 374.212 604.309 374.326 604.309 374.441V374.441V378.856H594.026V374.441C594.026 374.326 594.008 374.212 593.974 374.106C593.939 374 593.889 373.904 593.825 373.822C593.762 373.741 593.686 373.677 593.603 373.633C593.52 373.589 593.431 373.566 593.34 373.566H576.888C576.798 373.566 576.709 373.589 576.625 373.633C576.542 373.677 576.467 373.741 576.403 373.822C576.339 373.904 576.289 374 576.254 374.106C576.22 374.212 576.202 374.326 576.202 374.441V374.441V378.856H565.919V374.441C565.919 374.326 565.901 374.212 565.867 374.106C565.833 374 565.782 373.904 565.718 373.822C565.655 373.741 565.579 373.677 565.496 373.633C565.413 373.589 565.324 373.566 565.234 373.566H436.354C436.264 373.566 436.174 373.589 436.091 373.633C436.008 373.677 435.933 373.741 435.869 373.822C435.805 373.904 435.755 374 435.72 374.106C435.686 374.212 435.668 374.326 435.668 374.441V374.441V378.856H425.385V374.441C425.385 374.326 425.367 374.212 425.333 374.106C425.299 374 425.248 373.904 425.184 373.822C425.121 373.741 425.045 373.677 424.962 373.633C424.879 373.589 424.79 373.566 424.7 373.566H408.247C408.157 373.566 408.068 373.589 407.985 373.633C407.901 373.677 407.826 373.741 407.762 373.822C407.698 373.904 407.648 374 407.614 374.106C407.579 374.212 407.561 374.326 407.561 374.441V374.441V378.856H397.278V374.441C397.278 374.326 397.261 374.212 397.226 374.106C397.192 374 397.141 373.904 397.078 373.822C397.014 373.741 396.938 373.677 396.855 373.633C396.772 373.589 396.683 373.566 396.593 373.566H380.14C380.05 373.566 379.961 373.589 379.878 373.633C379.795 373.677 379.719 373.741 379.655 373.822C379.592 373.904 379.541 374 379.507 374.106C379.472 374.212 379.455 374.326 379.455 374.441V374.441V378.856H369.172V374.441C369.172 374.326 369.154 374.212 369.119 374.106C369.085 374 369.034 373.904 368.971 373.822C368.907 373.741 368.832 373.677 368.748 373.633C368.665 373.589 368.576 373.566 368.486 373.566H352.033C351.943 373.566 351.854 373.589 351.771 373.633C351.688 373.677 351.612 373.741 351.548 373.822C351.485 373.904 351.434 374 351.4 374.106C351.365 374.212 351.348 374.326 351.348 374.441V374.441V378.856H341.065V374.441C341.065 374.326 341.047 374.212 341.013 374.106C340.978 374 340.928 373.904 340.864 373.822C340.8 373.741 340.725 373.677 340.642 373.633C340.558 373.589 340.469 373.566 340.379 373.566H323.926C323.836 373.566 323.747 373.589 323.664 373.633C323.581 373.677 323.505 373.741 323.442 373.822C323.378 373.904 323.328 374 323.293 374.106C323.259 374.212 323.241 374.326 323.241 374.441V374.441V378.856H312.958V374.441C312.958 374.326 312.94 374.212 312.906 374.106C312.871 374 312.821 373.904 312.757 373.822C312.693 373.741 312.618 373.677 312.535 373.633C312.452 373.589 312.362 373.566 312.272 373.566H295.82C295.638 373.566 295.463 373.658 295.335 373.822C295.206 373.986 295.134 374.209 295.134 374.441V378.856H284.851V374.441C284.851 374.326 284.833 374.212 284.799 374.106C284.764 374 284.714 373.904 284.65 373.822C284.587 373.741 284.511 373.677 284.428 373.633C284.345 373.589 284.256 373.566 284.166 373.566H267.713C267.531 373.566 267.357 373.658 267.228 373.822C267.1 373.986 267.027 374.209 267.027 374.441V378.856H235.493C231.129 378.856 226.944 381.069 223.859 385.009C220.773 388.949 219.04 394.293 219.04 399.864V409.364C219.04 414.935 220.773 420.279 223.859 424.219C226.944 428.159 231.129 430.372 235.493 430.372H782.547C786.911 430.372 791.096 428.159 794.181 424.219C797.267 420.279 799 414.935 799 409.364V399.864C799 397.105 798.574 394.374 797.748 391.825C796.921 389.276 795.709 386.96 794.181 385.009C792.653 383.058 790.84 381.511 788.843 380.455C786.847 379.399 784.708 378.856 782.547 378.856V378.856Z" fill="#3F3D56"/>
<path id="Ishan Soni" d="M285.211 51.06V65H283.391V51.06H285.211ZM292.193 65.18C291.353 65.18 290.599 65.04 289.933 64.76C289.266 64.4667 288.739 64.0667 288.353 63.56C287.966 63.04 287.753 62.4467 287.713 61.78H289.593C289.646 62.3267 289.899 62.7733 290.353 63.12C290.819 63.4667 291.426 63.64 292.173 63.64C292.866 63.64 293.413 63.4867 293.813 63.18C294.213 62.8733 294.413 62.4867 294.413 62.02C294.413 61.54 294.199 61.1867 293.773 60.96C293.346 60.72 292.686 60.4867 291.793 60.26C290.979 60.0467 290.313 59.8333 289.793 59.62C289.286 59.3933 288.846 59.0667 288.473 58.64C288.113 58.2 287.933 57.6267 287.933 56.92C287.933 56.36 288.099 55.8467 288.433 55.38C288.766 54.9133 289.239 54.5467 289.853 54.28C290.466 54 291.166 53.86 291.953 53.86C293.166 53.86 294.146 54.1667 294.893 54.78C295.639 55.3933 296.039 56.2333 296.093 57.3H294.273C294.233 56.7267 293.999 56.2667 293.573 55.92C293.159 55.5733 292.599 55.4 291.893 55.4C291.239 55.4 290.719 55.54 290.333 55.82C289.946 56.1 289.753 56.4667 289.753 56.92C289.753 57.28 289.866 57.58 290.093 57.82C290.333 58.0467 290.626 58.2333 290.973 58.38C291.333 58.5133 291.826 58.6667 292.453 58.84C293.239 59.0533 293.879 59.2667 294.373 59.48C294.866 59.68 295.286 59.9867 295.633 60.4C295.993 60.8133 296.179 61.3533 296.193 62.02C296.193 62.62 296.026 63.16 295.693 63.64C295.359 64.12 294.886 64.5 294.273 64.78C293.673 65.0467 292.979 65.18 292.193 65.18ZM304.202 53.84C305.028 53.84 305.775 54.02 306.442 54.38C307.108 54.7267 307.628 55.2533 308.002 55.96C308.388 56.6667 308.582 57.5267 308.582 58.54V65H306.782V58.8C306.782 57.7067 306.508 56.8733 305.962 56.3C305.415 55.7133 304.668 55.42 303.722 55.42C302.762 55.42 301.995 55.72 301.422 56.32C300.862 56.92 300.582 57.7933 300.582 58.94V65H298.762V50.2H300.582V55.6C300.942 55.04 301.435 54.6067 302.062 54.3C302.702 53.9933 303.415 53.84 304.202 53.84ZM310.875 59.48C310.875 58.36 311.101 57.38 311.555 56.54C312.008 55.6867 312.628 55.0267 313.415 54.56C314.215 54.0933 315.101 53.86 316.075 53.86C317.035 53.86 317.868 54.0667 318.575 54.48C319.281 54.8933 319.808 55.4133 320.155 56.04V54.04H321.995V65H320.155V62.96C319.795 63.6 319.255 64.1333 318.535 64.56C317.828 64.9733 317.001 65.18 316.055 65.18C315.081 65.18 314.201 64.94 313.415 64.46C312.628 63.98 312.008 63.3067 311.555 62.44C311.101 61.5733 310.875 60.5867 310.875 59.48ZM320.155 59.5C320.155 58.6733 319.988 57.9533 319.655 57.34C319.321 56.7267 318.868 56.26 318.295 55.94C317.735 55.6067 317.115 55.44 316.435 55.44C315.755 55.44 315.135 55.6 314.575 55.92C314.015 56.24 313.568 56.7067 313.235 57.32C312.901 57.9333 312.735 58.6533 312.735 59.48C312.735 60.32 312.901 61.0533 313.235 61.68C313.568 62.2933 314.015 62.7667 314.575 63.1C315.135 63.42 315.755 63.58 316.435 63.58C317.115 63.58 317.735 63.42 318.295 63.1C318.868 62.7667 319.321 62.2933 319.655 61.68C319.988 61.0533 320.155 60.3267 320.155 59.5ZM330.41 53.84C331.744 53.84 332.824 54.2467 333.65 55.06C334.477 55.86 334.89 57.02 334.89 58.54V65H333.09V58.8C333.09 57.7067 332.817 56.8733 332.27 56.3C331.724 55.7133 330.977 55.42 330.03 55.42C329.07 55.42 328.304 55.72 327.73 56.32C327.17 56.92 326.89 57.7933 326.89 58.94V65H325.07V54.04H326.89V55.6C327.25 55.04 327.737 54.6067 328.35 54.3C328.977 53.9933 329.664 53.84 330.41 53.84ZM347.615 65.14C346.695 65.14 345.869 64.98 345.135 64.66C344.415 64.3267 343.849 63.8733 343.435 63.3C343.022 62.7133 342.809 62.04 342.795 61.28H344.735C344.802 61.9333 345.069 62.4867 345.535 62.94C346.015 63.38 346.709 63.6 347.615 63.6C348.482 63.6 349.162 63.3867 349.655 62.96C350.162 62.52 350.415 61.96 350.415 61.28C350.415 60.7467 350.269 60.3133 349.975 59.98C349.682 59.6467 349.315 59.3933 348.875 59.22C348.435 59.0467 347.842 58.86 347.095 58.66C346.175 58.42 345.435 58.18 344.875 57.94C344.329 57.7 343.855 57.3267 343.455 56.82C343.069 56.3 342.875 55.6067 342.875 54.74C342.875 53.98 343.069 53.3067 343.455 52.72C343.842 52.1333 344.382 51.68 345.075 51.36C345.782 51.04 346.589 50.88 347.495 50.88C348.802 50.88 349.869 51.2067 350.695 51.86C351.535 52.5133 352.009 53.38 352.115 54.46H350.115C350.049 53.9267 349.769 53.46 349.275 53.06C348.782 52.6467 348.129 52.44 347.315 52.44C346.555 52.44 345.935 52.64 345.455 53.04C344.975 53.4267 344.735 53.9733 344.735 54.68C344.735 55.1867 344.875 55.6 345.155 55.92C345.449 56.24 345.802 56.4867 346.215 56.66C346.642 56.82 347.235 57.0067 347.995 57.22C348.915 57.4733 349.655 57.7267 350.215 57.98C350.775 58.22 351.255 58.6 351.655 59.12C352.055 59.6267 352.255 60.32 352.255 61.2C352.255 61.88 352.075 62.52 351.715 63.12C351.355 63.72 350.822 64.2067 350.115 64.58C349.409 64.9533 348.575 65.14 347.615 65.14ZM359.714 65.18C358.687 65.18 357.754 64.9467 356.914 64.48C356.087 64.0133 355.434 63.3533 354.954 62.5C354.487 61.6333 354.254 60.6333 354.254 59.5C354.254 58.38 354.494 57.3933 354.974 56.54C355.467 55.6733 356.134 55.0133 356.974 54.56C357.814 54.0933 358.754 53.86 359.794 53.86C360.834 53.86 361.774 54.0933 362.614 54.56C363.454 55.0133 364.114 55.6667 364.594 56.52C365.087 57.3733 365.334 58.3667 365.334 59.5C365.334 60.6333 365.08 61.6333 364.574 62.5C364.08 63.3533 363.407 64.0133 362.554 64.48C361.7 64.9467 360.754 65.18 359.714 65.18ZM359.714 63.58C360.367 63.58 360.98 63.4267 361.554 63.12C362.127 62.8133 362.587 62.3533 362.934 61.74C363.294 61.1267 363.474 60.38 363.474 59.5C363.474 58.62 363.3 57.8733 362.954 57.26C362.607 56.6467 362.154 56.1933 361.594 55.9C361.034 55.5933 360.427 55.44 359.774 55.44C359.107 55.44 358.494 55.5933 357.934 55.9C357.387 56.1933 356.947 56.6467 356.614 57.26C356.28 57.8733 356.114 58.62 356.114 59.5C356.114 60.3933 356.274 61.1467 356.594 61.76C356.927 62.3733 357.367 62.8333 357.914 63.14C358.46 63.4333 359.06 63.58 359.714 63.58ZM373.067 53.84C374.4 53.84 375.48 54.2467 376.307 55.06C377.133 55.86 377.547 57.02 377.547 58.54V65H375.747V58.8C375.747 57.7067 375.473 56.8733 374.927 56.3C374.38 55.7133 373.633 55.42 372.687 55.42C371.727 55.42 370.96 55.72 370.387 56.32C369.827 56.92 369.547 57.7933 369.547 58.94V65H367.727V54.04H369.547V55.6C369.907 55.04 370.393 54.6067 371.007 54.3C371.633 53.9933 372.32 53.84 373.067 53.84ZM381.46 52.26C381.113 52.26 380.82 52.14 380.58 51.9C380.34 51.66 380.22 51.3667 380.22 51.02C380.22 50.6733 380.34 50.38 380.58 50.14C380.82 49.9 381.113 49.78 381.46 49.78C381.793 49.78 382.073 49.9 382.3 50.14C382.54 50.38 382.66 50.6733 382.66 51.02C382.66 51.3667 382.54 51.66 382.3 51.9C382.073 52.14 381.793 52.26 381.46 52.26ZM382.34 54.04V65H380.52V54.04H382.34Z" fill="black"/>
<g id="undraw_dev_productivity_umsq 1" clip-path="url(#clip1)">
<path id="Vector_12" d="M584.154 152.881C599.102 153.15 611.353 143.948 611.518 132.329C611.683 120.709 599.699 111.072 584.751 110.804C569.804 110.535 557.552 119.737 557.387 131.356C557.223 142.976 569.206 152.613 584.154 152.881Z" fill="#A0616A"/>
<path id="Vector_13" d="M565.358 137.616C565.358 137.616 570.791 181.107 562.433 185.989C554.075 190.87 612.164 191.314 612.164 191.314C612.164 191.314 599.209 153.592 605.06 142.054L565.358 137.616Z" fill="#A0616A"/>
<path id="Vector_14" d="M654.582 191.534L649.751 214.895L639.536 264.318L639.23 267.025L635.705 298.36L633.36 319.176L631.787 333.16C622.227 338.377 615.298 341.979 615.298 341.979C615.298 341.979 614.702 338.806 613.741 334.746C607.032 336.882 594.617 340.426 584.096 341.134C587.927 345.669 589.688 349.928 587.3 353.072C580.093 362.55 550.338 342.695 539.93 335.292C539.688 337.064 539.596 338.856 539.656 340.647L531.692 334.142L532.48 319.176L533.809 293.854L535.48 262.099C534.953 260.739 534.512 259.344 534.158 257.922C531.719 248.711 528.759 230.318 526.488 214.895C524.661 202.481 523.288 191.992 522.998 189.76C522.959 189.469 522.939 189.319 522.939 189.319L567.027 168.631C570.16 176.347 584.79 178.667 584.79 178.667C596.911 177.78 606.413 170.992 606.413 170.992L654.582 191.534Z" fill="#D0CDE1"/>
<path id="Vector_15" d="M618.643 333.105C618.643 333.105 616.776 333.784 613.741 334.746C607.032 336.882 594.617 340.426 584.096 341.134C575.038 341.75 567.383 340.268 565.984 333.992C565.384 331.294 566.235 329.075 568.089 327.251C573.626 321.8 588.088 319.847 599.558 319.176C602.797 318.989 605.793 318.902 608.287 318.868C612.522 318.81 615.298 318.902 615.298 318.902L615.365 319.176L618.643 333.105Z" fill="#A0616A"/>
<path id="Vector_16" d="M685.925 298.931C682.988 302.312 675.71 307.405 666.887 312.918C663.605 314.967 660.111 317.078 656.546 319.176C648.041 324.186 639.136 329.15 631.787 333.16C622.227 338.377 615.298 341.979 615.298 341.979C615.298 341.979 614.702 338.806 613.741 334.746C612.455 329.312 610.518 322.287 608.499 319.176C608.428 319.068 608.357 318.968 608.287 318.868C607.699 318.048 607.106 317.569 606.522 317.569L635.705 298.36L648.316 290.057L639.23 267.025L627.835 238.135L634.713 214.895L641.626 191.534H654.582C654.582 191.534 658.872 201.478 664.358 215.344C665.177 217.418 666.024 219.579 666.887 221.811C678.172 250.96 692.242 291.664 685.925 298.931Z" fill="#D0CDE1"/>
<path id="Vector_17" d="M587.3 353.072C580.093 362.55 550.338 342.695 539.93 335.292C537.664 333.68 536.315 332.66 536.315 332.66L545.836 319.176L548.851 314.908C548.851 314.908 551.549 316.428 555.537 318.902C555.682 318.993 555.827 319.085 555.976 319.176C559.415 321.321 563.733 324.123 568.089 327.251C574.101 331.569 580.179 336.495 584.096 341.134C587.927 345.669 589.688 349.928 587.3 353.072Z" fill="#A0616A"/>
<path id="Vector_18" d="M555.537 318.902C554.473 318.897 553.411 318.989 552.361 319.177C543.346 320.821 540.687 329.487 539.93 335.292C539.688 337.064 539.596 338.857 539.656 340.647L531.692 334.142L528.79 331.773C521.806 329.187 515.583 324.594 510.187 319.177C505.506 314.394 501.307 309.106 497.659 303.399C494.024 297.774 490.784 291.873 487.965 285.743C487.178 284.032 486.756 282.159 486.726 280.256C486.697 278.352 487.063 276.466 487.796 274.729L497.659 251.389L512.073 217.277C512.179 216.465 512.296 215.671 512.422 214.895C515.281 197.489 522.939 189.76 522.939 189.76H528.79L532.703 214.895L537.566 246.121L534.158 257.922L526.284 285.177L533.809 293.855L555.537 318.902Z" fill="#D0CDE1"/>
<path id="Vector_19" d="M562.159 246.146L567.16 252.343C569.019 251.967 570.959 251.524 572.958 251.028L571.521 246.146L575.034 250.498C596.208 244.968 622.453 234.216 622.453 234.216C622.453 234.216 594.119 236.422 572.963 231.514C563.602 229.342 553.972 234.27 550.13 243.591C547.898 249.008 548.248 253.702 556.167 253.702C558.842 253.654 561.511 253.387 564.148 252.905L562.159 246.146Z" fill="white"/>
<path id="Vector_20" d="M676.181 347.992V350.52C676.182 351.213 676.061 351.901 675.824 352.548C675.718 352.836 675.591 353.114 675.443 353.381C674.976 354.214 674.313 354.903 673.519 355.382C672.725 355.861 671.827 356.113 670.914 356.112H495.808C494.895 356.113 493.997 355.861 493.203 355.382C492.409 354.903 491.746 354.214 491.279 353.381C491.131 353.114 491.004 352.836 490.898 352.548C490.661 351.901 490.54 351.213 490.541 350.52V347.992C490.541 347.258 490.677 346.53 490.942 345.852C491.206 345.173 491.594 344.557 492.083 344.037C492.573 343.518 493.153 343.106 493.792 342.825C494.431 342.544 495.116 342.4 495.808 342.4H505.901V341.221C505.901 341.191 505.907 341.16 505.918 341.132C505.929 341.104 505.945 341.078 505.965 341.056C505.986 341.035 506.01 341.017 506.037 341.006C506.063 340.994 506.092 340.988 506.121 340.988H511.387C511.416 340.988 511.445 340.994 511.471 341.006C511.498 341.017 511.522 341.035 511.543 341.056C511.563 341.078 511.579 341.104 511.59 341.132C511.601 341.16 511.607 341.191 511.607 341.221V342.4H514.897V341.221C514.897 341.191 514.902 341.16 514.913 341.132C514.924 341.104 514.94 341.078 514.961 341.056C514.981 341.035 515.006 341.017 515.032 341.006C515.059 340.994 515.087 340.988 515.116 340.988H520.383C520.411 340.988 520.44 340.994 520.467 341.006C520.493 341.017 520.518 341.035 520.538 341.056C520.558 341.078 520.575 341.104 520.586 341.132C520.597 341.16 520.602 341.191 520.602 341.221V342.4H523.896V341.221C523.896 341.191 523.902 341.16 523.913 341.132C523.924 341.104 523.94 341.078 523.96 341.056C523.981 341.035 524.005 341.017 524.032 341.006C524.058 340.994 524.087 340.988 524.116 340.988H529.382C529.411 340.988 529.439 340.994 529.466 341.006C529.493 341.017 529.517 341.035 529.537 341.056C529.558 341.078 529.574 341.104 529.585 341.132C529.596 341.16 529.602 341.191 529.602 341.221V342.4H532.892V341.221C532.892 341.191 532.897 341.16 532.908 341.132C532.919 341.104 532.935 341.078 532.956 341.056C532.976 341.035 533 341.017 533.027 341.006C533.054 340.994 533.082 340.988 533.111 340.988H538.378C538.406 340.988 538.435 340.994 538.462 341.006C538.488 341.017 538.513 341.035 538.533 341.056C538.553 341.078 538.57 341.104 538.581 341.132C538.592 341.16 538.597 341.191 538.597 341.221V342.4H541.887V341.221C541.887 341.191 541.893 341.16 541.904 341.132C541.915 341.104 541.931 341.078 541.951 341.056C541.972 341.035 541.996 341.017 542.023 341.006C542.049 340.994 542.078 340.988 542.107 340.988H547.373C547.402 340.988 547.43 340.994 547.457 341.006C547.484 341.017 547.508 341.035 547.528 341.056C547.549 341.078 547.565 341.104 547.576 341.132C547.587 341.16 547.593 341.191 547.593 341.221V342.4H550.887V341.221C550.887 341.191 550.892 341.16 550.903 341.132C550.914 341.104 550.93 341.078 550.951 341.056C550.971 341.035 550.995 341.017 551.022 341.006C551.049 340.994 551.077 340.988 551.106 340.988H556.372C556.401 340.988 556.43 340.994 556.457 341.006C556.483 341.017 556.507 341.035 556.528 341.056C556.548 341.078 556.564 341.104 556.575 341.132C556.586 341.16 556.592 341.191 556.592 341.221V342.4H559.882V341.221C559.882 341.191 559.888 341.16 559.899 341.132C559.91 341.104 559.926 341.078 559.946 341.056C559.967 341.035 559.991 341.017 560.018 341.006C560.044 340.994 560.073 340.988 560.102 340.988H601.354C601.383 340.988 601.411 340.994 601.438 341.006C601.465 341.017 601.489 341.035 601.509 341.056C601.53 341.078 601.546 341.104 601.557 341.132C601.568 341.16 601.574 341.191 601.574 341.221V342.4H604.867V341.221C604.867 341.191 604.873 341.16 604.884 341.132C604.895 341.104 604.911 341.078 604.932 341.056C604.952 341.035 604.976 341.017 605.003 341.006C605.03 340.994 605.058 340.988 605.087 340.988H610.353C610.411 340.989 610.467 341.013 610.508 341.057C610.549 341.101 610.572 341.16 610.573 341.221V342.4H613.863V341.221C613.863 341.191 613.869 341.16 613.88 341.132C613.891 341.104 613.907 341.078 613.927 341.056C613.948 341.035 613.972 341.017 613.998 341.006C614.025 340.994 614.054 340.988 614.083 340.988H619.349C619.378 340.988 619.406 340.994 619.433 341.006C619.46 341.017 619.484 341.035 619.504 341.056C619.525 341.078 619.541 341.104 619.552 341.132C619.563 341.16 619.569 341.191 619.568 341.221V342.4H622.858V341.221C622.858 341.191 622.864 341.16 622.875 341.132C622.886 341.104 622.902 341.078 622.923 341.056C622.943 341.035 622.967 341.017 622.994 341.006C623.021 340.994 623.049 340.988 623.078 340.988H628.344C628.373 340.988 628.402 340.994 628.428 341.006C628.455 341.017 628.479 341.035 628.5 341.056C628.52 341.078 628.536 341.104 628.547 341.132C628.558 341.16 628.564 341.191 628.564 341.221V342.4H631.858V341.221C631.858 341.191 631.863 341.16 631.875 341.132C631.886 341.104 631.902 341.078 631.922 341.056C631.942 341.035 631.967 341.017 631.993 341.006C632.02 340.994 632.049 340.988 632.077 340.988H637.344C637.401 340.989 637.456 341.014 637.497 341.057C637.537 341.101 637.56 341.16 637.559 341.221V342.4H640.853V341.221C640.853 341.191 640.859 341.16 640.87 341.132C640.881 341.104 640.897 341.078 640.918 341.056C640.938 341.035 640.962 341.017 640.989 341.006C641.016 340.994 641.044 340.988 641.073 340.988H646.339C646.368 340.988 646.397 340.994 646.423 341.006C646.45 341.017 646.474 341.035 646.495 341.056C646.515 341.078 646.531 341.104 646.542 341.132C646.553 341.16 646.559 341.191 646.559 341.221V342.4H649.849V341.221C649.849 341.191 649.854 341.16 649.866 341.132C649.877 341.104 649.893 341.078 649.913 341.056C649.933 341.035 649.958 341.017 649.984 341.006C650.011 340.994 650.04 340.988 650.068 340.988H655.335C655.364 340.988 655.392 340.994 655.419 341.006C655.446 341.017 655.47 341.035 655.49 341.056C655.511 341.078 655.527 341.104 655.538 341.132C655.549 341.16 655.554 341.191 655.554 341.221V342.4H670.914C671.606 342.4 672.291 342.544 672.93 342.825C673.569 343.106 674.149 343.518 674.638 344.037C675.128 344.557 675.515 345.173 675.78 345.852C676.045 346.53 676.181 347.258 676.181 347.992V347.992Z" fill="#3F3D56"/>
<path id="Vector_21" d="M727.099 352.548H439.666V353.381H727.099V352.548Z" fill="#3F3D56"/>
<path id="Vector_22" d="M661.952 241.429H596.684V240H567.089V241.429H501.553C500.382 241.429 499.259 241.922 498.431 242.802C497.603 243.681 497.138 244.873 497.138 246.117V341.022C497.138 342.265 497.603 343.457 498.431 344.337C499.259 345.216 500.382 345.71 501.553 345.71H661.952C663.123 345.71 664.246 345.216 665.074 344.337C665.901 343.457 666.367 342.265 666.367 341.022V246.117C666.367 245.501 666.252 244.891 666.031 244.323C665.809 243.754 665.483 243.237 665.074 242.802C664.664 242.366 664.177 242.021 663.641 241.785C663.106 241.55 662.531 241.429 661.952 241.429V241.429Z" fill="#3F3D56"/>
<path id="Vector_23" d="M582.904 288C591.985 288 599.346 283.299 599.346 277.5C599.346 271.701 591.985 267 582.904 267C573.823 267 566.462 271.701 566.462 277.5C566.462 283.299 573.823 288 582.904 288Z" stroke="#D0CDE1" stroke-width="2" stroke-miterlimit="10"/>
<path id="Vector_24" d="M577.571 293C585.67 293 592.236 287.404 592.236 280.5C592.236 273.596 585.67 268 577.571 268C569.472 268 562.906 273.596 562.906 280.5C562.906 287.404 569.472 293 577.571 293Z" fill="#D0CDE1"/>
<path id="Vector_25" d="M458.467 348.34H447.488V360H458.467V348.34Z" fill="#D0CDE1"/>
<path id="Vector_26" d="M451.803 339.18V353.338H465.135V339.18H451.803ZM464.555 352.721H452.379V339.796H464.555V352.721Z" fill="#3F3D56"/>
<path id="Vector_27" d="M712.569 348.34H701.589V360H712.569V348.34Z" fill="#D0CDE1"/>
<path id="Vector_28" d="M705.904 339.18V353.338H719.237V339.18H705.904ZM718.656 352.721H706.48V339.796H718.656V352.721Z" fill="#3F3D56"/>
<path id="Vector_29" d="M458.032 170C478.157 170 494.472 153.882 494.472 134C494.472 114.118 478.157 98 458.032 98C437.907 98 421.593 114.118 421.593 134C421.593 153.882 437.907 170 458.032 170Z" fill="#D0CDE1"/>
<path id="Vector_30" d="M470.557 91.3094C467.257 90.8969 463.916 90.8969 460.616 91.3094C453.263 92.2584 446.341 95.2607 440.672 99.9602C435.003 104.66 430.824 110.859 428.632 117.823C427.635 120.996 427.07 124.285 426.953 127.605C426.936 128.066 426.925 128.533 426.925 129C426.936 139.075 431.012 148.735 438.26 155.859C445.509 162.983 455.336 166.99 465.587 167C466.41 167 467.233 166.973 468.044 166.924C469.95 166.806 471.844 166.549 473.711 166.153C482.625 164.269 490.575 159.349 496.156 152.263C501.738 145.177 504.592 136.379 504.215 127.425C503.838 118.471 500.253 109.936 494.094 103.328C487.936 96.7193 479.599 92.4626 470.557 91.3094H470.557ZM477.688 163.949H477.682C474.569 164.993 471.328 165.627 468.044 165.833C467.233 165.887 466.41 165.914 465.587 165.914C455.63 165.902 446.084 162.009 439.044 155.089C432.003 148.169 428.042 138.787 428.03 129C428.03 128.533 428.041 128.066 428.058 127.605C428.437 118.067 432.556 109.044 439.551 102.423C446.546 95.8027 455.876 92.0984 465.587 92.0857C474.484 92.0862 483.093 95.1915 489.879 100.848C496.664 106.505 501.186 114.346 502.639 122.974C504.092 131.602 502.381 140.457 497.812 147.961C493.242 155.465 486.111 161.131 477.688 163.949H477.688Z" fill="#3F3D56"/>
<path id="Vector_31" d="M466.031 94H465.142V102H466.031V94Z" fill="#3F3D56"/>
<path id="Vector_32" d="M441.111 103.965L440.333 104.735L445.783 110.125L446.561 109.355L441.111 103.965Z" fill="#3F3D56"/>
<path id="Vector_33" d="M430.48 128V130H437.591V128H430.48Z" fill="#3F3D56"/>
<path id="Vector_34" d="M440.333 153.242L441.111 154.012L446.561 148.623L445.783 147.853L440.333 153.242Z" fill="#3F3D56"/>
<path id="Vector_35" d="M484.712 109.355L485.491 110.125L490.941 104.735L490.163 103.965L484.712 109.355Z" fill="#3F3D56"/>
<path id="Vector_36" d="M492.694 128V130H500.693V128H492.694Z" fill="#3F3D56"/>
<path id="Vector_37" d="M485.491 147.853L484.713 148.623L490.163 154.012L490.941 153.242L485.491 147.853Z" fill="#3F3D56"/>
<path id="Vector_38" d="M466.031 156H465.142V164H466.031V156Z" fill="#3F3D56"/>
<path id="Vector_39" d="M467.631 126.6C467.17 126.211 466.608 126 466.031 126C465.455 126 464.893 126.211 464.432 126.6C464.116 126.87 463.856 127.214 463.669 127.608C463.433 128.115 463.331 128.688 463.375 129.259C463.419 129.83 463.607 130.374 463.917 130.828C464.227 131.282 464.647 131.627 465.126 131.822C465.604 132.016 466.123 132.052 466.619 131.926C467.116 131.8 467.57 131.516 467.928 131.109C468.285 130.701 468.532 130.187 468.639 129.627C468.745 129.067 468.707 128.484 468.528 127.948C468.35 127.411 468.038 126.944 467.631 126.6H467.631ZM466.031 130.8C465.608 130.798 465.201 130.608 464.902 130.271C464.602 129.934 464.433 129.477 464.432 129C464.434 128.636 464.532 128.281 464.714 127.98C464.871 127.725 465.083 127.52 465.33 127.385C465.577 127.249 465.851 127.188 466.126 127.207C466.4 127.225 466.666 127.323 466.897 127.491C467.128 127.659 467.316 127.891 467.444 128.165C467.572 128.439 467.635 128.745 467.627 129.055C467.619 129.364 467.54 129.666 467.398 129.93C467.256 130.195 467.055 130.415 466.816 130.567C466.577 130.719 466.306 130.799 466.031 130.8V130.8Z" fill="#3F3D56"/>
<path id="Vector_40" d="M470.475 82H460.698V91H470.475V82Z" fill="#3F3D56"/>
<path id="Vector_41" d="M466.031 83C473.394 83 479.363 80.9853 479.363 78.5C479.363 76.0147 473.394 74 466.031 74C458.668 74 452.7 76.0147 452.7 78.5C452.7 80.9853 458.668 83 466.031 83Z" fill="#3F3D56"/>
<path id="clock" d="M467.809 108H464.254V127H467.809V108Z" fill="#3F3D56"/>
<path id="Vector_42" d="M504.564 164.794H415.942V165.795H504.564V164.794Z" fill="#3F3D56"/>
<g id="leaf-left">
<path id="Vector_43" d="M474.995 322.744C475.361 336.049 468.04 340.924 458.853 341.209C458.64 341.216 458.427 341.22 458.216 341.221C457.79 341.225 457.368 341.217 456.95 341.199C448.642 340.833 442.065 336.149 441.725 323.776C441.372 310.972 456.339 294.335 457.462 293.104L457.464 293.103C457.507 293.056 457.528 293.032 457.528 293.032C457.528 293.032 474.629 309.441 474.995 322.744Z" fill="#D0CDE1"/>
<path id="Vector_44" d="M458.192 339.193L464.028 329.977L458.204 340.184L458.216 341.221C457.79 341.225 457.368 341.217 456.95 341.199L457.24 327.869L457.232 327.766L457.242 327.746L457.27 326.486L450.879 316.633L457.263 325.544L457.285 325.81L457.504 315.739L451.984 305.523L457.52 313.969L457.462 293.104L457.462 293.034L457.464 293.103L457.83 309.547L462.861 302.868L457.847 310.964L457.957 319.973L462.586 311.181L457.974 321.297L458.035 326.306L464.767 314.059L458.055 328.054L458.192 339.193Z" fill="#3F3D56"/>
</g>
<g id="leaf-right">
<path id="Vector_45" d="M729.096 322.744C729.462 336.049 722.141 340.924 712.955 341.209C712.741 341.216 712.529 341.22 712.317 341.221C711.891 341.225 711.469 341.217 711.052 341.199C702.743 340.833 696.166 336.149 695.826 323.776C695.474 310.972 710.44 294.335 711.563 293.104L711.565 293.103C711.608 293.056 711.63 293.032 711.63 293.032C711.63 293.032 728.73 309.441 729.096 322.744Z" fill="#D0CDE1"/>
<path id="Vector_46" d="M712.293 339.193L718.129 329.977L712.305 340.184L712.317 341.221C711.891 341.225 711.469 341.217 711.052 341.199L711.341 327.869L711.333 327.766L711.344 327.746L711.372 326.486L704.981 316.633L711.364 325.544L711.387 325.81L711.605 315.739L706.085 305.523L711.621 313.969L711.563 293.104L711.563 293.034L711.565 293.103L711.932 309.547L716.963 302.868L711.948 310.964L712.058 319.973L716.687 311.181L712.075 321.297L712.136 326.306L718.869 314.059L712.157 328.054L712.293 339.193Z" fill="#3F3D56"/>
</g>
<path id="IS" d="M574.384 278.242V288H573.11V278.242H574.384ZM579.65 288.098C579.006 288.098 578.427 287.986 577.914 287.762C577.41 287.529 577.013 287.211 576.724 286.81C576.434 286.399 576.285 285.928 576.276 285.396H577.634C577.68 285.853 577.867 286.241 578.194 286.558C578.53 286.866 579.015 287.02 579.65 287.02C580.256 287.02 580.732 286.871 581.078 286.572C581.432 286.264 581.61 285.872 581.61 285.396C581.61 285.023 581.507 284.719 581.302 284.486C581.096 284.253 580.84 284.075 580.532 283.954C580.224 283.833 579.808 283.702 579.286 283.562C578.642 283.394 578.124 283.226 577.732 283.058C577.349 282.89 577.018 282.629 576.738 282.274C576.467 281.91 576.332 281.425 576.332 280.818C576.332 280.286 576.467 279.815 576.738 279.404C577.008 278.993 577.386 278.676 577.872 278.452C578.366 278.228 578.931 278.116 579.566 278.116C580.48 278.116 581.227 278.345 581.806 278.802C582.394 279.259 582.725 279.866 582.8 280.622H581.4C581.353 280.249 581.157 279.922 580.812 279.642C580.466 279.353 580.009 279.208 579.44 279.208C578.908 279.208 578.474 279.348 578.138 279.628C577.802 279.899 577.634 280.281 577.634 280.776C577.634 281.131 577.732 281.42 577.928 281.644C578.133 281.868 578.38 282.041 578.67 282.162C578.968 282.274 579.384 282.405 579.916 282.554C580.56 282.731 581.078 282.909 581.47 283.086C581.862 283.254 582.198 283.52 582.478 283.884C582.758 284.239 582.898 284.724 582.898 285.34C582.898 285.816 582.772 286.264 582.52 286.684C582.268 287.104 581.894 287.445 581.4 287.706C580.905 287.967 580.322 288.098 579.65 288.098Z" fill="#3F3D56"/>
<g id="cap-2 1" clip-path="url(#clip2)">
<g id="Group">
<path id="Shape" d="M591.138 98.8695C590.789 97.4789 586.995 97.2742 586.309 98.5844C587.927 98.3969 589.585 98.4953 591.138 98.8695Z" fill="black"/>
<path id="Vector_47" d="M554.425 128.827C568.526 130.253 565.294 135.066 578.471 134.175C585.807 133.584 592.546 131.006 597.301 126.973C581.828 126.304 568.276 121.277 556.609 122.516C551.355 125.19 545.865 127.695 543.156 129.298C544.792 128.827 548.261 128.203 554.425 128.827V128.827Z" fill="black"/>
<path id="Vector_48" d="M566.33 120.903C567.005 116.945 569.712 106.33 579.695 101.187C574.279 102.078 567.69 103.985 563.86 107.925C559.555 112.284 558.021 118.229 557.546 120.653C560.478 120.513 563.423 120.597 566.33 120.903V120.903Z" fill="black"/>
<path id="Vector_49" d="M595.194 125.057C598.151 125.28 600.597 125.245 604.528 125.476C608.272 125.698 609.631 126.046 610.768 125.556C611.438 125.21 611.866 124.674 611.94 124.085C612.349 122.48 612.521 120.849 612.452 119.219C612.452 110.546 606.212 104.369 593.734 101.276C601.208 107.89 597.028 120.537 595.194 125.057Z" fill="black"/>
<path id="Vector_50" d="M568.801 121.126C573.917 121.777 583.126 123.8 592.685 124.834C594.307 120.867 599.935 105.01 588.355 100.348C573.131 102.533 569.55 116.607 568.801 121.126V121.126Z" fill="black"/>
</g>
</g>
</g>
<g id="github 1">
<path id="Vector_51" d="M708.792 43H694.208C691.332 43 689 45.3323 689 48.2083V62.7917C689 65.6677 691.332 68 694.208 68H708.792C711.669 68 714 65.6677 714 62.7917V48.2083C714 45.3323 711.669 43 708.792 43ZM704.14 63.4062C703.718 63.4875 703.583 63.2281 703.583 63.0063V60.7198C703.583 59.9417 703.31 59.4354 703.01 59.1771C704.867 58.9708 706.817 58.2656 706.817 55.0656C706.817 54.1552 706.492 53.4115 705.959 52.8292C706.045 52.6187 706.33 51.7708 705.877 50.624C705.877 50.624 705.178 50.4 703.587 51.4781C702.921 51.2906 702.208 51.2 701.5 51.1958C700.792 51.199 700.079 51.2906 699.414 51.476C697.822 50.3979 697.122 50.6219 697.122 50.6219C696.67 51.7698 696.955 52.6167 697.042 52.8281C696.508 53.4115 696.183 54.1542 696.183 55.0646C696.183 58.2562 698.128 58.9719 699.98 59.1833C699.742 59.3917 699.526 59.7583 699.451 60.2979C698.975 60.5104 697.77 60.8781 697.026 59.6042C697.026 59.6042 696.585 58.8042 695.748 58.7448C695.748 58.7448 694.935 58.7344 695.691 59.2521C695.691 59.2521 696.237 59.5083 696.617 60.4708C696.617 60.4708 697.099 61.9583 699.417 61.4542V63.0052C699.417 63.225 699.282 63.4833 698.867 63.4062C695.554 62.3052 693.167 59.1812 693.167 55.5C693.167 50.8969 696.898 47.1667 701.5 47.1667C706.102 47.1667 709.833 50.8969 709.833 55.5C709.833 59.1802 707.449 62.3031 704.14 63.4062Z" fill="#0D0E0F"/>
</g>
<g id="instagram 1 1">
<path id="Vector_52" d="M631.187 43H621.812C617.498 43 614 46.4984 614 50.8125V60.1875C614 64.5015 617.498 68 621.812 68H631.187C635.502 68 639 64.5015 639 60.1875V50.8125C639 46.4984 635.502 43 631.187 43ZM636.656 60.1875C636.656 63.2031 634.203 65.6562 631.187 65.6562H621.812C618.797 65.6562 616.344 63.2031 616.344 60.1875V50.8125C616.344 47.7969 618.797 45.3437 621.812 45.3437H631.187C634.203 45.3437 636.656 47.7969 636.656 50.8125V60.1875Z" fill="#3F3D56"/>
<path id="Vector_53" d="M626.5 49.25C623.048 49.25 620.25 52.0484 620.25 55.5C620.25 58.9515 623.048 61.75 626.5 61.75C629.952 61.75 632.75 58.9515 632.75 55.5C632.75 52.0484 629.952 49.25 626.5 49.25ZM626.5 59.4062C624.347 59.4062 622.594 57.6531 622.594 55.5C622.594 53.3453 624.347 51.5937 626.5 51.5937C628.653 51.5937 630.406 53.3453 630.406 55.5C630.406 57.6531 628.653 59.4062 626.5 59.4062Z" fill="#3F3D56"/>
<path id="Vector_54" d="M633.219 49.6141C633.679 49.6141 634.052 49.2413 634.052 48.7813C634.052 48.3214 633.679 47.9485 633.219 47.9485C632.759 47.9485 632.386 48.3214 632.386 48.7813C632.386 49.2413 632.759 49.6141 633.219 49.6141Z" fill="#3F3D56"/>
</g>
<g id="twitter 1 1">
<rect width="25" height="25" transform="translate(539 44)" fill="#3F3D56"/>
<g id="Group_2">
<path id="Vector_55" d="M564 48.7484C563.07 49.1562 562.08 49.4266 561.047 49.5578C562.109 48.9234 562.92 47.9266 563.302 46.725C562.311 47.3156 561.217 47.7328 560.052 47.9656C559.111 46.9641 557.77 46.3438 556.308 46.3438C553.47 46.3438 551.186 48.6469 551.186 51.4703C551.186 51.8766 551.22 52.2672 551.305 52.6391C547.044 52.4313 543.273 50.3891 540.741 47.2781C540.298 48.0453 540.039 48.9234 540.039 49.8688C540.039 51.6438 540.953 53.2172 542.316 54.1281C541.492 54.1125 540.684 53.8734 540 53.4969C540 53.5125 540 53.5328 540 53.5531C540 56.0437 541.777 58.1125 544.106 58.5891C543.689 58.7031 543.234 58.7578 542.763 58.7578C542.434 58.7578 542.103 58.7391 541.792 58.6703C542.456 60.7 544.341 62.1922 546.581 62.2406C544.838 63.6047 542.623 64.4266 540.227 64.4266C539.806 64.4266 539.403 64.4078 539 64.3563C541.27 65.8203 543.961 66.6562 546.863 66.6562C556.294 66.6562 561.45 58.8438 561.45 52.0719C561.45 51.8453 561.442 51.6266 561.431 51.4094C562.448 50.6875 563.303 49.7859 564 48.7484Z" fill="white"/>
</g>
</g>
<g id="me">
<path id="Vector_56" d="M160.86 360.081L170.257 365.536L164.277 386.451L154.882 387.36L149.756 375.539L160.86 360.081Z" fill="#FFB9B9"/>
<path id="Vector_57" d="M131.817 401.909V411.91L117.296 411.001L117.498 402.764L131.817 401.909Z" fill="#FFB9B9"/>
<path id="Vector_58" d="M164.277 240.051L159.153 308.25L142.922 408.273L117.296 404.636L125.837 325.526L122.42 252.782L164.277 240.051Z" fill="#2F2E41"/>
<path id="Vector_59" d="M95.9397 189.13L157.444 190.039L164.278 240.051L122.421 260.966L112.17 300.975L164.277 360.08L143.776 387.359C143.776 387.359 114.733 345.531 93.377 321.889C72.0215 298.247 82.2721 226.412 82.2721 226.412L95.9397 189.13Z" fill="#2F2E41"/>
<path id="Vector_60" d="M132.671 60.0081C143.05 60.0081 151.464 51.0517 151.464 40.0034C151.464 28.955 143.05 19.9986 132.671 19.9986C122.292 19.9986 113.878 28.955 113.878 40.0034C113.878 51.0517 122.292 60.0081 132.671 60.0081Z" fill="#FFB9B9"/>
<path id="Vector_61" d="M139.505 53.6431V73.6479L126.692 95.4712C126.692 95.4712 107.045 80.013 111.316 76.3758C115.587 72.7385 116.441 44.5499 116.441 44.5499L139.505 53.6431Z" fill="#FFB9B9"/>
<path id="Vector_62" d="M139.505 70.011L152.319 86.3782L147.193 200.041L107.045 199.132L100.211 100.018L108.753 74.5574L114.612 66.071L124.983 82.7409L139.505 70.011Z" fill="white"/>
<path id="Vector_63" d="M160.006 129.116L169.403 167.307L160.006 205.498L175.382 227.321L189.05 158.214C189.05 158.214 178.799 101.836 177.945 95.4712C177.091 89.106 175.382 88.1967 175.382 88.1967L168.549 89.106L160.006 129.116Z" fill="#2F2E41"/>
<path id="Vector_64" d="M91.6691 143.664L85.6893 155.486L83.9805 175.491L87.3974 198.223L75.4386 219.138L63.4799 161.851L76.2926 88.1964H81.4184L91.6691 143.664Z" fill="#2F2E41"/>
<path id="Vector_65" d="M164.278 359.171C164.278 359.171 176.237 362.808 180.508 363.717C184.779 364.627 177.945 381.904 177.945 381.904C177.945 381.904 173.674 405.546 172.82 410.092C171.966 414.639 165.986 430.097 158.298 431.916C150.61 433.734 155.735 400.09 155.735 400.09C155.735 400.09 152.318 389.178 152.318 385.541C152.318 381.904 157.444 383.722 157.444 383.722C171.111 381.904 164.278 359.171 164.278 359.171Z" fill="#2F2E41"/>
<path id="Vector_66" d="M136.088 429.188C135.234 434.644 136.942 434.644 123.275 436.462C109.607 438.281 113.024 426.46 113.024 426.46C113.596 420.887 114.742 415.398 116.441 410.092C119.004 402.818 132.671 411.911 132.671 411.911C132.671 411.911 136.942 423.732 136.088 429.188Z" fill="#2F2E41"/>
<path id="Vector_67" d="M116.419 45.185L115.974 53.2718C115.974 53.2718 110.462 40.0033 109.607 26.3637C108.753 12.7241 123.275 9.99618 131.817 9.08687C140.359 8.17756 154.881 14.5427 154.881 21.8172C154.881 29.0917 139.505 27.2731 133.526 25.4544C127.546 23.6358 124.983 39.0941 124.983 39.0941L121.566 40.0034L116.419 45.185Z" fill="#2F2E41"/>
<path id="Vector_68" d="M144.547 76.4503L139.505 70.011L124.983 82.741L139.505 93.6527L144.547 76.4503Z" fill="white"/>
<path id="Vector_69" d="M108.753 74.5573L114.733 66.3737L124.983 82.7409L112.17 92.7436L108.753 74.5573Z" fill="white"/>
<path id="Vector_70" d="M162.569 141.846L159.152 176.4L165.986 197.314L170.257 217.319C170.257 217.319 170.257 236.414 153.173 237.323C136.088 238.233 121.566 180.037 121.566 180.037C121.566 180.037 119.004 192.767 117.295 200.042C115.587 207.316 86.5432 236.414 86.5432 236.414C86.5432 236.414 79.7095 235.505 73.7299 220.956C67.7503 206.407 85.689 192.767 85.689 192.767L90.8144 173.672L89.1059 150.03L77.1468 88.1967L112.597 68.6466L108.753 120.932L121.566 161.851L140.786 71.3745L147.193 76.3758L174.528 88.1968L162.569 141.846Z" fill="#2F2E41"/>
</g>
<g id="code">
<path id="Vector_71" d="M363.826 223.037L380.19 200.99L363.826 178.944L368.815 172.225L390.168 200.99L368.815 229.756L363.826 223.037Z" fill="#6C63FF"/>
<path id="typing" d="M317.094 202.563H323.746V193.574H317.094L317.094 202.563ZM350.488 193.574H343.836V202.563H350.488V193.574ZM330.465 202.563H337.117V193.574H330.465V202.563Z" fill="#6C63FF"/>
<path id="Vector_72" d="M308.081 222.812L291.7 200.766L308.064 178.719L303.075 172L281.739 200.766L303.092 229.531L308.081 222.812Z" fill="#6C63FF"/>
</g>
<g id="Text">
<path id="HTML" d="M40.578 42.181V61H38.121V52.468H28.536V61H26.079V42.181H28.536V50.443H38.121V42.181H40.578ZM56.3563 42.181V44.179H51.2263V61H48.7693V44.179H43.6123V42.181H56.3563ZM78.4698 42.316V61H76.0128V47.068L69.8028 61H68.0748L61.8378 47.041V61H59.3808V42.316H62.0268L68.9388 57.76L75.8508 42.316H78.4698ZM85.0936 59.002H91.6816V61H82.6366V42.181H85.0936V59.002Z" fill="black"/>
</g>
<g id="Text_2">
<path id="HTML_2" d="M14.988 339L10.506 331.305H7.536V339H5.079V320.181H11.154C12.576 320.181 13.773 320.424 14.745 320.91C15.735 321.396 16.473 322.053 16.959 322.881C17.445 323.709 17.688 324.654 17.688 325.716C17.688 327.012 17.31 328.155 16.554 329.145C15.816 330.135 14.7 330.792 13.206 331.116L17.931 339H14.988ZM7.536 329.334H11.154C12.486 329.334 13.485 329.01 14.151 328.362C14.817 327.696 15.15 326.814 15.15 325.716C15.15 324.6 14.817 323.736 14.151 323.124C13.503 322.512 12.504 322.206 11.154 322.206H7.536V329.334ZM23.9628 322.179V328.47H30.8208V330.495H23.9628V336.975H31.6308V339H21.5058V320.154H31.6308V322.179H23.9628ZM46.4725 334.815H38.2645L36.7525 339H34.1605L40.9645 320.289H43.7995L50.5765 339H47.9845L46.4725 334.815ZM45.7705 332.817L42.3685 323.313L38.9665 332.817H45.7705ZM52.6239 329.577C52.6239 327.741 53.0379 326.094 53.8659 324.636C54.6939 323.16 55.8189 322.008 57.2409 321.18C58.6809 320.352 60.2739 319.938 62.0199 319.938C64.0719 319.938 65.8629 320.433 67.3929 321.423C68.9229 322.413 70.0389 323.817 70.7409 325.635H67.7979C67.2759 324.501 66.5199 323.628 65.5299 323.016C64.5579 322.404 63.3879 322.098 62.0199 322.098C60.7059 322.098 59.5269 322.404 58.4829 323.016C57.4389 323.628 56.6199 324.501 56.0259 325.635C55.4319 326.751 55.1349 328.065 55.1349 329.577C55.1349 331.071 55.4319 332.385 56.0259 333.519C56.6199 334.635 57.4389 335.499 58.4829 336.111C59.5269 336.723 60.7059 337.029 62.0199 337.029C63.3879 337.029 64.5579 336.732 65.5299 336.138C66.5199 335.526 67.2759 334.653 67.7979 333.519H70.7409C70.0389 335.319 68.9229 336.714 67.3929 337.704C65.8629 338.676 64.0719 339.162 62.0199 339.162C60.2739 339.162 58.6809 338.757 57.2409 337.947C55.8189 337.119 54.6939 335.976 53.8659 334.518C53.0379 333.06 52.6239 331.413 52.6239 329.577ZM85.9813 320.181V322.179H80.8513V339H78.3943V322.179H73.2373V320.181H85.9813Z" fill="black"/>
</g>
<g id="Text_3">
<path id="HTML_3" d="M4.161 203.577C4.161 201.741 4.575 200.094 5.403 198.636C6.231 197.16 7.356 196.008 8.778 195.18C10.218 194.352 11.811 193.938 13.557 193.938C15.609 193.938 17.4 194.433 18.93 195.423C20.46 196.413 21.576 197.817 22.278 199.635H19.335C18.813 198.501 18.057 197.628 17.067 197.016C16.095 196.404 14.925 196.098 13.557 196.098C12.243 196.098 11.064 196.404 10.02 197.016C8.976 197.628 8.157 198.501 7.563 199.635C6.969 200.751 6.672 202.065 6.672 203.577C6.672 205.071 6.969 206.385 7.563 207.519C8.157 208.635 8.976 209.499 10.02 210.111C11.064 210.723 12.243 211.029 13.557 211.029C14.925 211.029 16.095 210.732 17.067 210.138C18.057 209.526 18.813 208.653 19.335 207.519H22.278C21.576 209.319 20.46 210.714 18.93 211.704C17.4 212.676 15.609 213.162 13.557 213.162C11.811 213.162 10.218 212.757 8.778 211.947C7.356 211.119 6.231 209.976 5.403 208.518C4.575 207.06 4.161 205.413 4.161 203.577ZM31.9024 213.189C30.6604 213.189 29.5444 212.973 28.5544 212.541C27.5824 212.091 26.8174 211.479 26.2594 210.705C25.7014 209.913 25.4134 209.004 25.3954 207.978H28.0144C28.1044 208.86 28.4644 209.607 29.0944 210.219C29.7424 210.813 30.6784 211.11 31.9024 211.11C33.0724 211.11 33.9904 210.822 34.6564 210.246C35.3404 209.652 35.6824 208.896 35.6824 207.978C35.6824 207.258 35.4844 206.673 35.0884 206.223C34.6924 205.773 34.1974 205.431 33.6034 205.197C33.0094 204.963 32.2084 204.711 31.2004 204.441C29.9584 204.117 28.9594 203.793 28.2034 203.469C27.4654 203.145 26.8264 202.641 26.2864 201.957C25.7644 201.255 25.5034 200.319 25.5034 199.149C25.5034 198.123 25.7644 197.214 26.2864 196.422C26.8084 195.63 27.5374 195.018 28.4734 194.586C29.4274 194.154 30.5164 193.938 31.7404 193.938C33.5044 193.938 34.9444 194.379 36.0604 195.261C37.1944 196.143 37.8334 197.313 37.9774 198.771H35.2774C35.1874 198.051 34.8094 197.421 34.1434 196.881C33.4774 196.323 32.5954 196.044 31.4974 196.044C30.4714 196.044 29.6344 196.314 28.9864 196.854C28.3384 197.376 28.0144 198.114 28.0144 199.068C28.0144 199.752 28.2034 200.31 28.5814 200.742C28.9774 201.174 29.4544 201.507 30.0124 201.741C30.5884 201.957 31.3894 202.209 32.4154 202.497C33.6574 202.839 34.6564 203.181 35.4124 203.523C36.1684 203.847 36.8164 204.36 37.3564 205.062C37.8964 205.746 38.1664 206.682 38.1664 207.87C38.1664 208.788 37.9234 209.652 37.4374 210.462C36.9514 211.272 36.2314 211.929 35.2774 212.433C34.3234 212.937 33.1984 213.189 31.9024 213.189ZM47.7491 213.189C46.5071 213.189 45.3911 212.973 44.4011 212.541C43.4291 212.091 42.6641 211.479 42.1061 210.705C41.5481 209.913 41.2601 209.004 41.2421 207.978H43.8611C43.9511 208.86 44.3111 209.607 44.9411 210.219C45.5891 210.813 46.5251 211.11 47.7491 211.11C48.9191 211.11 49.8371 210.822 50.5031 210.246C51.1871 209.652 51.5291 208.896 51.5291 207.978C51.5291 207.258 51.3311 206.673 50.9351 206.223C50.5391 205.773 50.0441 205.431 49.4501 205.197C48.8561 204.963 48.0551 204.711 47.0471 204.441C45.8051 204.117 44.8061 203.793 44.0501 203.469C43.3121 203.145 42.6731 202.641 42.1331 201.957C41.6111 201.255 41.3501 200.319 41.3501 199.149C41.3501 198.123 41.6111 197.214 42.1331 196.422C42.6551 195.63 43.3841 195.018 44.3201 194.586C45.2741 194.154 46.3631 193.938 47.5871 193.938C49.3511 193.938 50.7911 194.379 51.9071 195.261C53.0411 196.143 53.6801 197.313 53.8241 198.771H51.1241C51.0341 198.051 50.6561 197.421 49.9901 196.881C49.3241 196.323 48.4421 196.044 47.3441 196.044C46.3181 196.044 45.4811 196.314 44.8331 196.854C44.1851 197.376 43.8611 198.114 43.8611 199.068C43.8611 199.752 44.0501 200.31 44.4281 200.742C44.8241 201.174 45.3011 201.507 45.8591 201.741C46.4351 201.957 47.2361 202.209 48.2621 202.497C49.5041 202.839 50.5031 203.181 51.2591 203.523C52.0151 203.847 52.6631 204.36 53.2031 205.062C53.7431 205.746 54.0131 206.682 54.0131 207.87C54.0131 208.788 53.7701 209.652 53.2841 210.462C52.7981 211.272 52.0781 211.929 51.1241 212.433C50.1701 212.937 49.0451 213.189 47.7491 213.189Z" fill="black"/>
</g>
<g id="Text_4">
<path id="HTML_4" d="M208.556 289.181V303.086C208.556 304.634 208.079 305.876 207.125 306.812C206.171 307.73 204.911 308.189 203.345 308.189C201.761 308.189 200.492 307.721 199.538 306.785C198.584 305.831 198.107 304.535 198.107 302.897H200.564C200.582 303.815 200.816 304.562 201.266 305.138C201.734 305.714 202.427 306.002 203.345 306.002C204.263 306.002 204.947 305.732 205.397 305.192C205.847 304.634 206.072 303.932 206.072 303.086V289.181H208.556ZM219.363 308.189C218.121 308.189 217.005 307.973 216.015 307.541C215.043 307.091 214.278 306.479 213.72 305.705C213.162 304.913 212.874 304.004 212.856 302.978H215.475C215.565 303.86 215.925 304.607 216.555 305.219C217.203 305.813 218.139 306.11 219.363 306.11C220.533 306.11 221.451 305.822 222.117 305.246C222.801 304.652 223.143 303.896 223.143 302.978C223.143 302.258 222.945 301.673 222.549 301.223C222.153 300.773 221.658 300.431 221.064 300.197C220.47 299.963 219.669 299.711 218.661 299.441C217.419 299.117 216.42 298.793 215.664 298.469C214.926 298.145 214.287 297.641 213.747 296.957C213.225 296.255 212.964 295.319 212.964 294.149C212.964 293.123 213.225 292.214 213.747 291.422C214.269 290.63 214.998 290.018 215.934 289.586C216.888 289.154 217.977 288.938 219.201 288.938C220.965 288.938 222.405 289.379 223.521 290.261C224.655 291.143 225.294 292.313 225.438 293.771H222.738C222.648 293.051 222.27 292.421 221.604 291.881C220.938 291.323 220.056 291.044 218.958 291.044C217.932 291.044 217.095 291.314 216.447 291.854C215.799 292.376 215.475 293.114 215.475 294.068C215.475 294.752 215.664 295.31 216.042 295.742C216.438 296.174 216.915 296.507 217.473 296.741C218.049 296.957 218.85 297.209 219.876 297.497C221.118 297.839 222.117 298.181 222.873 298.523C223.629 298.847 224.277 299.36 224.817 300.062C225.357 300.746 225.627 301.682 225.627 302.87C225.627 303.788 225.384 304.652 224.898 305.462C224.412 306.272 223.692 306.929 222.738 307.433C221.784 307.937 220.659 308.189 219.363 308.189Z" fill="black"/>
</g>
</g>
<defs>
<linearGradient id="paint0_linear" x1="36.2908" y1="130.567" x2="36.2908" y2="158.514" gradientUnits="userSpaceOnUse">
<stop stop-color="#331C1C"/>
<stop offset="1" stop-color="white" stop-opacity="0"/>
</linearGradient>
<clipPath id="clip0">
<rect width="799" height="437" fill="white"/>
</clipPath>
<clipPath id="clip1">
<rect width="313.167" height="287" fill="white" transform="translate(415.942 73)"/>
</clipPath>
<clipPath id="clip2">
<rect width="70" height="50" fill="white" transform="translate(542.942 91)"/>
</clipPath>
</defs>
</svg>
