<svg width="600" height="397" viewBox="0 0 600 397" fill="none" xmlns="http://www.w3.org/2000/svg">
<g id="me-5 1">
<g id="me 5">
<path id="Vector 5" d="M106.403 142.321L97.97 155.752L105.869 170.091L114.301 156.661L106.403 142.321Z" fill="#E6E6E6"/>
<path id="Vector 6" d="M114.908 140.313L104.668 156.621L95.0767 139.21L105.316 122.901L114.908 140.313ZM104.696 155.155L114.045 140.265L105.288 124.367L95.9389 139.258L104.696 155.155Z" fill="#CCCCCC"/>
<path id="Vector 7" d="M542.489 0H200.634C199.398 -2.38775e-06 198.174 0.41383 197.033 1.21787C195.892 2.02191 194.854 3.2004 193.981 4.68608C193.107 6.17175 192.414 7.9355 191.942 9.87667C191.468 11.8178 191.225 13.8983 191.225 15.9993V339.879C191.225 341.98 191.468 344.06 191.942 346.001C192.414 347.943 193.107 349.706 193.981 351.192C194.854 352.678 195.892 353.856 197.033 354.66C198.174 355.464 199.398 355.878 200.634 355.878H542.489C544.984 355.878 547.377 354.192 549.142 351.192C550.907 348.192 551.898 344.122 551.898 339.879V15.9993C551.898 11.756 550.907 7.68655 549.142 4.68609C547.377 1.68564 544.984 2.41117e-06 542.489 0Z" fill="#3F3D56"/>
<path id="Vector 8" d="M539.592 28.1625H204.149V349.915H539.592V28.1625Z" fill="white"/>
<path id="Vector 9" d="M371.275 19.5001C373.174 19.5001 374.715 16.881 374.715 13.6502C374.715 10.4192 373.174 7.80008 371.275 7.80008C369.374 7.80008 367.834 10.4192 367.834 13.6502C367.834 16.881 369.374 19.5001 371.275 19.5001Z" fill="white"/>
<path id="Vector 10" d="M443.352 350.029H203.84V28.2758L443.352 350.029Z" fill="#F2F2F2"/>
<path id="Vector 11" d="M561.316 344.178H528.578V340.167C528.578 340.063 528.567 339.959 528.543 339.863C528.519 339.767 528.486 339.679 528.442 339.605C528.399 339.531 528.347 339.473 528.29 339.433C528.233 339.393 528.172 339.372 528.111 339.372H516.887C516.826 339.372 516.765 339.393 516.708 339.433C516.651 339.473 516.599 339.531 516.557 339.605C516.513 339.679 516.479 339.767 516.455 339.863C516.431 339.959 516.419 340.063 516.419 340.167V344.178H509.404V340.167C509.404 340.063 509.392 339.959 509.369 339.863C509.345 339.767 509.311 339.679 509.267 339.605C509.224 339.531 509.173 339.473 509.115 339.433C509.059 339.393 508.998 339.372 508.936 339.372H497.712C497.651 339.372 497.591 339.393 497.533 339.433C497.477 339.473 497.425 339.531 497.382 339.605C497.338 339.679 497.304 339.767 497.281 339.863C497.257 339.959 497.244 340.063 497.244 340.167V344.178H490.23V340.167C490.23 340.063 490.217 339.959 490.194 339.863C490.171 339.767 490.137 339.679 490.093 339.605C490.049 339.531 489.998 339.473 489.941 339.433C489.884 339.393 489.823 339.372 489.762 339.372H478.538C478.476 339.372 478.416 339.393 478.359 339.433C478.302 339.473 478.251 339.531 478.208 339.605C478.164 339.679 478.129 339.767 478.106 339.863C478.082 339.959 478.07 340.063 478.07 340.167V344.178H471.055V340.167C471.055 340.063 471.043 339.959 471.02 339.863C470.996 339.767 470.962 339.679 470.918 339.605C470.874 339.531 470.824 339.473 470.766 339.433C470.71 339.393 470.649 339.372 470.587 339.372H459.363C459.302 339.372 459.241 339.393 459.184 339.433C459.128 339.473 459.076 339.531 459.033 339.605C458.989 339.679 458.955 339.767 458.932 339.863C458.908 339.959 458.895 340.063 458.895 340.167V344.178H451.881V340.167C451.881 340.063 451.868 339.959 451.845 339.863C451.822 339.767 451.788 339.679 451.744 339.605C451.7 339.531 451.649 339.473 451.592 339.433C451.535 339.393 451.474 339.372 451.413 339.372H440.189C440.127 339.372 440.066 339.393 440.01 339.433C439.953 339.473 439.902 339.531 439.858 339.605C439.815 339.679 439.78 339.767 439.757 339.863C439.733 339.959 439.721 340.063 439.721 340.167V344.178H432.706V340.167C432.706 340.063 432.694 339.959 432.671 339.863C432.647 339.767 432.613 339.679 432.569 339.605C432.526 339.531 432.474 339.473 432.417 339.433C432.361 339.393 432.3 339.372 432.238 339.372H421.014C420.953 339.372 420.892 339.393 420.835 339.433C420.779 339.473 420.727 339.531 420.683 339.605C420.64 339.679 420.606 339.767 420.583 339.863C420.559 339.959 420.547 340.063 420.547 340.167V344.178H413.532V340.167C413.532 340.063 413.519 339.959 413.496 339.863C413.473 339.767 413.438 339.679 413.395 339.605C413.351 339.531 413.299 339.473 413.243 339.433C413.186 339.393 413.125 339.372 413.064 339.372H325.142C325.08 339.372 325.019 339.393 324.963 339.433C324.906 339.473 324.855 339.531 324.811 339.605C324.768 339.679 324.733 339.767 324.709 339.863C324.686 339.959 324.674 340.063 324.674 340.167V344.178H317.659V340.167C317.659 340.063 317.647 339.959 317.623 339.863C317.6 339.767 317.565 339.679 317.522 339.605C317.479 339.531 317.427 339.473 317.37 339.433C317.314 339.393 317.253 339.372 317.191 339.372H305.967C305.906 339.372 305.845 339.393 305.788 339.433C305.732 339.473 305.68 339.531 305.636 339.605C305.593 339.679 305.559 339.767 305.535 339.863C305.512 339.959 305.5 340.063 305.5 340.167V344.178H298.485V340.167C298.485 340.063 298.472 339.959 298.449 339.863C298.426 339.767 298.391 339.679 298.347 339.605C298.304 339.531 298.252 339.473 298.196 339.433C298.139 339.393 298.079 339.372 298.017 339.372H286.793C286.731 339.372 286.67 339.393 286.614 339.433C286.557 339.473 286.506 339.531 286.462 339.605C286.418 339.679 286.384 339.767 286.36 339.863C286.337 339.959 286.325 340.063 286.325 340.167V344.178H279.31V340.167C279.31 340.063 279.298 339.959 279.274 339.863C279.251 339.767 279.216 339.679 279.172 339.605C279.13 339.531 279.078 339.473 279.021 339.433C278.964 339.393 278.904 339.372 278.842 339.372H267.618C267.557 339.372 267.496 339.393 267.439 339.433C267.382 339.473 267.331 339.531 267.287 339.605C267.244 339.679 267.21 339.767 267.186 339.863C267.163 339.959 267.151 340.063 267.151 340.167V344.178H260.136V340.167C260.136 340.063 260.123 339.959 260.1 339.863C260.076 339.767 260.042 339.679 259.998 339.605C259.955 339.531 259.903 339.473 259.847 339.433C259.789 339.393 259.729 339.372 259.668 339.372H248.444C248.382 339.372 248.321 339.393 248.265 339.433C248.207 339.473 248.157 339.531 248.113 339.605C248.069 339.679 248.035 339.767 248.011 339.863C247.988 339.959 247.976 340.063 247.976 340.167V344.178H240.961V340.167C240.961 340.063 240.949 339.959 240.925 339.863C240.902 339.767 240.867 339.679 240.823 339.605C240.781 339.531 240.729 339.473 240.672 339.433C240.615 339.393 240.554 339.372 240.493 339.372H229.269C229.145 339.372 229.026 339.456 228.938 339.605C228.851 339.754 228.802 339.956 228.802 340.167V344.178H221.786V340.167C221.786 340.063 221.774 339.959 221.751 339.863C221.727 339.767 221.693 339.679 221.649 339.605C221.606 339.531 221.554 339.473 221.498 339.433C221.441 339.393 221.38 339.372 221.319 339.372H210.094C209.97 339.372 209.851 339.456 209.764 339.605C209.676 339.754 209.627 339.956 209.627 340.167V344.178H188.114C185.137 344.178 182.282 346.189 180.177 349.768C178.072 353.347 176.89 358.202 176.89 363.263V371.894C176.89 376.955 178.072 381.81 180.177 385.389C182.282 388.968 185.137 390.979 188.114 390.979H561.316C564.293 390.979 567.147 388.968 569.252 385.389C571.357 381.81 572.54 376.955 572.54 371.894V363.263C572.54 360.757 572.249 358.276 571.685 355.96C571.122 353.644 570.295 351.54 569.252 349.768C568.21 347.995 566.973 346.59 565.611 345.631C564.249 344.671 562.789 344.178 561.316 344.178Z" fill="#3F3D56"/>
<g id="undraw dev productivity umsq 1">
<path id="Vector 12" d="M425.972 138.887C436.169 139.132 444.527 130.772 444.64 120.217C444.752 109.66 436.576 100.905 426.379 100.662C416.181 100.417 407.823 108.777 407.711 119.333C407.599 129.889 415.774 138.644 425.972 138.887Z" fill="#A0616A"/>
<path id="Vector 13" d="M413.149 125.02C413.149 125.02 416.855 164.53 411.154 168.965C405.451 173.399 445.08 173.802 445.08 173.802C445.08 173.802 436.242 139.533 440.234 129.051L413.149 125.02Z" fill="#A0616A"/>
<path id="Vector 14" d="M474.018 174.002L470.722 195.225L463.753 240.124L463.544 242.583L461.139 271.05L459.539 289.961L458.467 302.665C451.945 307.404 447.218 310.677 447.218 310.677C447.218 310.677 446.812 307.794 446.156 304.106C441.579 306.046 433.109 309.266 425.932 309.909C428.545 314.029 429.747 317.898 428.117 320.754C423.201 329.365 402.902 311.327 395.802 304.602C395.637 306.211 395.574 307.839 395.614 309.467L390.182 303.557L390.719 289.961L391.626 266.957L392.765 238.108C392.407 236.873 392.105 235.605 391.864 234.314C390.2 225.946 388.18 209.236 386.631 195.225C385.385 183.947 384.448 174.418 384.25 172.391C384.224 172.126 384.21 171.99 384.21 171.99L414.287 153.196C416.425 160.205 426.406 162.313 426.406 162.313C434.675 161.507 441.157 155.341 441.157 155.341L474.018 174.002Z" fill="#D0CDE1"/>
<path id="Vector 15" d="M449.5 302.615C449.5 302.615 448.226 303.232 446.156 304.106C441.579 306.046 433.109 309.266 425.932 309.909C419.752 310.469 414.53 309.122 413.576 303.421C413.166 300.97 413.746 298.954 415.012 297.297C418.789 292.345 428.655 290.57 436.48 289.961C438.69 289.791 440.733 289.712 442.435 289.681C445.324 289.628 447.218 289.712 447.218 289.712L447.263 289.961L449.5 302.615Z" fill="#A0616A"/>
<path id="Vector 16" d="M495.4 271.569C493.396 274.64 488.431 279.267 482.412 284.276C480.173 286.137 477.79 288.055 475.358 289.961C469.555 294.512 463.48 299.022 458.467 302.665C451.945 307.404 447.218 310.677 447.218 310.677C447.218 310.677 446.812 307.794 446.156 304.106C445.278 299.169 443.957 292.787 442.579 289.961C442.531 289.863 442.483 289.772 442.435 289.681C442.033 288.936 441.63 288.501 441.231 288.501L461.139 271.05L469.742 263.507L463.544 242.583L455.77 216.338L460.462 195.225L465.179 174.002H474.018C474.018 174.002 476.944 183.036 480.687 195.633C481.245 197.517 481.823 199.48 482.412 201.508C490.111 227.989 499.709 264.967 495.4 271.569Z" fill="#D0CDE1"/>
<path id="Vector 17" d="M428.117 320.754C423.201 329.365 402.902 311.327 395.802 304.602C394.256 303.137 393.336 302.211 393.336 302.211L399.83 289.961L401.888 286.083C401.888 286.083 403.729 287.464 406.449 289.712C406.548 289.795 406.647 289.878 406.748 289.961C409.095 291.909 412.04 294.455 415.012 297.297C419.113 301.219 423.26 305.695 425.932 309.909C428.545 314.029 429.747 317.898 428.117 320.754Z" fill="#A0616A"/>
<path id="Vector 18" d="M406.449 289.712C405.723 289.707 404.998 289.791 404.282 289.962C398.132 291.455 396.318 299.328 395.802 304.602C395.637 306.211 395.574 307.84 395.615 309.467L390.182 303.557L388.202 301.405C383.437 299.056 379.192 294.883 375.511 289.962C372.318 285.617 369.453 280.813 366.964 275.628C364.485 270.518 362.274 265.157 360.351 259.588C359.814 258.034 359.526 256.332 359.506 254.603C359.486 252.874 359.735 251.16 360.236 249.582L366.964 228.379L376.798 197.389C376.87 196.651 376.95 195.93 377.036 195.225C378.986 179.412 384.21 172.391 384.21 172.391H388.202L390.872 195.225L394.189 223.593L391.864 234.314L386.492 259.074L391.626 266.958L406.449 289.712Z" fill="#D0CDE1"/>
<path id="Vector 19" d="M410.966 223.616L414.379 229.245C415.646 228.904 416.97 228.501 418.333 228.051L417.353 223.616L419.75 227.569C434.195 222.545 452.099 212.778 452.099 212.778C452.099 212.778 432.77 214.782 418.337 210.323C411.951 208.35 405.381 212.827 402.76 221.294C401.238 226.216 401.477 230.48 406.878 230.48C408.703 230.436 410.524 230.194 412.323 229.756L410.966 223.616Z" fill="white"/>
<path id="Vector 20" d="M488.752 316.139V318.436C488.753 319.065 488.67 319.69 488.509 320.278C488.437 320.54 488.351 320.792 488.25 321.035C487.931 321.792 487.478 322.418 486.936 322.853C486.395 323.288 485.782 323.517 485.159 323.516H365.701C365.079 323.517 364.467 323.288 363.924 322.853C363.383 322.418 362.93 321.792 362.612 321.035C362.511 320.792 362.424 320.54 362.353 320.278C362.19 319.69 362.108 319.065 362.109 318.436V316.139C362.108 315.472 362.202 314.811 362.382 314.195C362.562 313.578 362.827 313.019 363.161 312.546C363.495 312.075 363.891 311.7 364.327 311.445C364.763 311.19 365.23 311.059 365.701 311.059H372.587V309.988C372.587 309.961 372.591 309.933 372.598 309.907C372.606 309.882 372.617 309.858 372.631 309.838C372.645 309.819 372.662 309.803 372.68 309.793C372.698 309.782 372.717 309.776 372.737 309.776H376.329C376.349 309.776 376.369 309.782 376.388 309.793C376.406 309.803 376.422 309.819 376.436 309.838C376.449 309.858 376.461 309.882 376.468 309.907C376.476 309.933 376.479 309.961 376.479 309.988V311.059H378.724V309.988C378.724 309.961 378.728 309.933 378.735 309.907C378.743 309.882 378.754 309.858 378.768 309.838C378.781 309.819 378.799 309.803 378.817 309.793C378.835 309.782 378.854 309.776 378.874 309.776H382.467C382.486 309.776 382.506 309.782 382.524 309.793C382.542 309.803 382.559 309.819 382.572 309.838C382.587 309.858 382.598 309.882 382.605 309.907C382.612 309.933 382.616 309.961 382.616 309.988V311.059H384.864V309.988C384.864 309.961 384.867 309.933 384.874 309.907C384.883 309.882 384.893 309.858 384.907 309.838C384.921 309.819 384.938 309.803 384.956 309.793C384.974 309.782 384.993 309.776 385.013 309.776H388.606C388.625 309.776 388.645 309.782 388.664 309.793C388.682 309.803 388.698 309.819 388.712 309.838C388.726 309.858 388.737 309.882 388.744 309.907C388.752 309.933 388.755 309.961 388.755 309.988V311.059H391V309.988C391 309.961 391.004 309.933 391.011 309.907C391.019 309.882 391.03 309.858 391.044 309.838C391.058 309.819 391.075 309.803 391.093 309.793C391.111 309.782 391.13 309.776 391.15 309.776H394.743C394.762 309.776 394.782 309.782 394.8 309.793C394.818 309.803 394.835 309.819 394.848 309.838C394.863 309.858 394.874 309.882 394.881 309.907C394.888 309.933 394.893 309.961 394.892 309.988V311.059H397.137V309.988C397.137 309.961 397.141 309.933 397.149 309.907C397.156 309.882 397.167 309.858 397.18 309.838C397.195 309.819 397.211 309.803 397.23 309.793C397.248 309.782 397.267 309.776 397.287 309.776H400.88C400.899 309.776 400.919 309.782 400.937 309.793C400.955 309.803 400.972 309.819 400.985 309.838C401 309.858 401.011 309.882 401.018 309.907C401.025 309.933 401.03 309.961 401.03 309.988V311.059H403.276V309.988C403.276 309.961 403.28 309.933 403.288 309.907C403.295 309.882 403.306 309.858 403.32 309.838C403.334 309.819 403.351 309.803 403.369 309.793C403.387 309.782 403.406 309.776 403.426 309.776H407.019C407.038 309.776 407.058 309.782 407.076 309.793C407.095 309.803 407.111 309.819 407.125 309.838C407.139 309.858 407.15 309.882 407.157 309.907C407.165 309.933 407.169 309.961 407.169 309.988V311.059H409.413V309.988C409.413 309.961 409.417 309.933 409.425 309.907C409.432 309.882 409.443 309.858 409.457 309.838C409.471 309.819 409.487 309.803 409.506 309.793C409.524 309.782 409.543 309.776 409.563 309.776H437.705C437.725 309.776 437.744 309.782 437.763 309.793C437.781 309.803 437.797 309.819 437.812 309.838C437.825 309.858 437.836 309.882 437.843 309.907C437.852 309.933 437.855 309.961 437.855 309.988V311.059H440.102V309.988C440.102 309.961 440.106 309.933 440.114 309.907C440.121 309.882 440.132 309.858 440.146 309.838C440.16 309.819 440.176 309.803 440.195 309.793C440.213 309.782 440.233 309.776 440.252 309.776H443.845C443.885 309.777 443.922 309.799 443.95 309.839C443.978 309.879 443.994 309.933 443.995 309.988V311.059H446.239V309.988C446.239 309.961 446.243 309.933 446.25 309.907C446.258 309.882 446.269 309.858 446.283 309.838C446.297 309.819 446.313 309.803 446.331 309.793C446.349 309.782 446.369 309.776 446.389 309.776H449.981C450.001 309.776 450.021 309.782 450.039 309.793C450.057 309.803 450.073 309.819 450.088 309.838C450.101 309.858 450.112 309.882 450.12 309.907C450.128 309.933 450.131 309.961 450.131 309.988V311.059H452.376V309.988C452.376 309.961 452.38 309.933 452.387 309.907C452.394 309.882 452.405 309.858 452.42 309.838C452.433 309.819 452.45 309.803 452.468 309.793C452.486 309.782 452.506 309.776 452.525 309.776H456.118C456.138 309.776 456.157 309.782 456.175 309.793C456.194 309.803 456.211 309.819 456.224 309.838C456.238 309.858 456.249 309.882 456.257 309.907C456.264 309.933 456.268 309.961 456.268 309.988V311.059H458.516V309.988C458.516 309.961 458.519 309.933 458.527 309.907C458.534 309.882 458.545 309.858 458.559 309.838C458.573 309.819 458.589 309.803 458.607 309.793C458.626 309.782 458.646 309.776 458.665 309.776H462.258C462.297 309.777 462.335 309.8 462.362 309.839C462.389 309.879 462.405 309.933 462.405 309.988V311.059H464.652V309.988C464.652 309.961 464.656 309.933 464.663 309.907C464.67 309.882 464.682 309.858 464.696 309.838C464.71 309.819 464.726 309.803 464.744 309.793C464.762 309.782 464.782 309.776 464.802 309.776H468.394C468.414 309.776 468.433 309.782 468.452 309.793C468.47 309.803 468.487 309.819 468.501 309.838C468.514 309.858 468.525 309.882 468.533 309.907C468.541 309.933 468.544 309.961 468.544 309.988V311.059H470.789V309.988C470.789 309.961 470.793 309.933 470.8 309.907C470.807 309.882 470.819 309.858 470.833 309.838C470.846 309.819 470.863 309.803 470.881 309.793C470.899 309.782 470.919 309.776 470.939 309.776H474.531C474.551 309.776 474.57 309.782 474.588 309.793C474.606 309.803 474.624 309.819 474.637 309.838C474.651 309.858 474.662 309.882 474.67 309.907C474.677 309.933 474.681 309.961 474.681 309.988V311.059H485.159C485.632 311.059 486.099 311.19 486.535 311.445C486.971 311.7 487.367 312.075 487.7 312.546C488.034 313.019 488.299 313.578 488.479 314.195C488.659 314.811 488.752 315.472 488.752 316.139Z" fill="#3F3D56"/>
<path id="Vector 21" d="M523.488 320.278H327.401V321.035H523.488V320.278Z" fill="#3F3D56"/>
<path id="Vector 22" d="M479.045 219.33H434.519V218.032H414.33V219.33H369.62C368.822 219.33 368.056 219.778 367.491 220.578C366.926 221.376 366.609 222.459 366.609 223.589V309.807C366.609 310.936 366.926 312.019 367.491 312.819C368.056 313.617 368.822 314.066 369.62 314.066H479.045C479.844 314.066 480.61 313.617 481.175 312.819C481.74 312.019 482.057 310.936 482.057 309.807V223.589C482.057 223.03 481.98 222.475 481.828 221.959C481.676 221.442 481.454 220.973 481.175 220.578C480.895 220.181 480.563 219.868 480.198 219.654C479.833 219.44 479.44 219.33 479.045 219.33Z" fill="#3F3D56"/>
<path id="Vector 23" d="M425.119 261.638C431.313 261.638 436.335 257.368 436.335 252.1C436.335 246.831 431.313 242.561 425.119 242.561C418.924 242.561 413.902 246.831 413.902 252.1C413.902 257.368 418.924 261.638 425.119 261.638Z" stroke="#D0CDE1" stroke-width="1.81693" stroke-miterlimit="10"/>
<path id="Vector 24" d="M421.48 266.181C427.005 266.181 431.485 261.097 431.485 254.825C431.485 248.553 427.005 243.469 421.48 243.469C415.956 243.469 411.476 248.553 411.476 254.825C411.476 261.097 415.956 266.181 421.48 266.181Z" fill="#D0CDE1"/>
<path id="Vector 25" d="M340.228 316.455H332.737V327.048H340.228V316.455Z" fill="#D0CDE1"/>
<path id="Vector 26" d="M335.681 308.134V320.996H344.776V308.134H335.681ZM344.38 320.435H336.074V308.693H344.38V320.435Z" fill="#3F3D56"/>
<path id="Vector 27" d="M513.576 316.455H506.086V327.048H513.576V316.455Z" fill="#D0CDE1"/>
<path id="Vector 28" d="M509.03 308.134V320.996H518.126V308.134H509.03ZM517.729 320.435H509.423V308.693H517.729V320.435Z" fill="#3F3D56"/>
<path id="Vector 29" d="M339.931 154.439C353.66 154.439 364.79 139.797 364.79 121.735C364.79 103.672 353.66 89.0298 339.931 89.0298C326.201 89.0298 315.071 103.672 315.071 121.735C315.071 139.797 326.201 154.439 339.931 154.439Z" fill="#D0CDE1"/>
<path id="Vector 30" d="M348.476 82.9516C346.224 82.5768 343.945 82.5768 341.693 82.9516C336.678 83.8137 331.955 86.5412 328.088 90.8105C324.22 95.0802 321.37 100.712 319.874 107.038C319.194 109.921 318.809 112.909 318.729 115.925C318.717 116.344 318.71 116.768 318.71 117.192C318.717 126.345 321.498 135.121 326.443 141.593C331.387 148.065 338.092 151.705 345.084 151.714C345.646 151.714 346.207 151.689 346.761 151.645C348.061 151.538 349.353 151.304 350.627 150.945C356.708 149.233 362.132 144.763 365.939 138.326C369.747 131.889 371.694 123.896 371.436 115.761C371.179 107.627 368.734 99.8732 364.533 93.8701C360.331 87.8663 354.644 83.9992 348.476 82.9516ZM353.34 148.942H353.336C351.212 149.891 349.001 150.467 346.761 150.654C346.207 150.703 345.646 150.727 345.084 150.727C338.292 150.716 331.78 147.18 326.977 140.893C322.174 134.607 319.471 126.083 319.463 117.192C319.463 116.768 319.471 116.344 319.482 115.925C319.741 107.26 322.551 99.0629 327.323 93.0479C332.095 87.0336 338.46 83.6684 345.084 83.6568C351.155 83.6573 357.027 86.4783 361.657 91.6171C366.285 96.7563 369.37 103.88 370.362 111.718C371.353 119.556 370.186 127.601 367.068 134.418C363.951 141.235 359.086 146.382 353.34 148.942Z" fill="#3F3D56"/>
<path id="Vector 31" d="M345.388 85.3959H344.781V92.6636H345.388V85.3959Z" fill="#3F3D56"/>
<path id="Vector 32" d="M328.387 94.4488L327.856 95.1483L331.574 100.045L332.105 99.3454L328.387 94.4488Z" fill="#3F3D56"/>
<path id="Vector 33" d="M321.135 116.284V118.101H325.986V116.284H321.135Z" fill="#3F3D56"/>
<path id="Vector 34" d="M327.856 139.215L328.387 139.915L332.105 135.019L331.574 134.32L327.856 139.215Z" fill="#3F3D56"/>
<path id="Vector 35" d="M358.132 99.3454L358.663 100.045L362.382 95.1483L361.85 94.4488L358.132 99.3454Z" fill="#3F3D56"/>
<path id="Vector 36" d="M363.577 116.284V118.101H369.034V116.284H363.577Z" fill="#3F3D56"/>
<path id="Vector 37" d="M358.663 134.32L358.132 135.019L361.85 139.915L362.382 139.215L358.663 134.32Z" fill="#3F3D56"/>
<path id="Vector 38" d="M345.388 141.721H344.781V148.989H345.388V141.721Z" fill="#3F3D56"/>
<path id="Vector 39" d="M346.479 115.012C346.165 114.659 345.781 114.467 345.388 114.467C344.995 114.467 344.611 114.659 344.297 115.012C344.081 115.257 343.903 115.57 343.776 115.928C343.615 116.388 343.546 116.909 343.576 117.428C343.605 117.946 343.734 118.44 343.945 118.853C344.157 119.265 344.443 119.579 344.77 119.756C345.096 119.932 345.45 119.965 345.789 119.85C346.127 119.736 346.437 119.478 346.682 119.108C346.926 118.738 347.094 118.271 347.167 117.762C347.239 117.253 347.213 116.723 347.091 116.237C346.97 115.749 346.757 115.324 346.479 115.012ZM345.388 118.827C345.099 118.826 344.822 118.653 344.618 118.347C344.412 118.041 344.298 117.626 344.297 117.192C344.298 116.862 344.365 116.539 344.489 116.266C344.596 116.034 344.74 115.848 344.909 115.725C345.078 115.602 345.265 115.546 345.452 115.563C345.64 115.58 345.82 115.669 345.978 115.821C346.136 115.974 346.265 116.185 346.352 116.434C346.439 116.683 346.482 116.961 346.476 117.242C346.471 117.523 346.417 117.797 346.32 118.037C346.223 118.278 346.086 118.478 345.923 118.616C345.759 118.754 345.575 118.827 345.388 118.827Z" fill="#3F3D56"/>
<path id="Vector 40" d="M348.419 74.4943H341.75V82.6705H348.419V74.4943Z" fill="#3F3D56"/>
<path id="Vector 41" d="M345.388 75.4028C350.411 75.4028 354.483 73.5725 354.483 71.3147C354.483 69.0569 350.411 67.2266 345.388 67.2266C340.365 67.2266 336.293 69.0569 336.293 71.3147C336.293 73.5725 340.365 75.4028 345.388 75.4028Z" fill="#3F3D56"/>
<path id="clock" d="M346.601 98.1144H344.175V115.375H346.601V98.1144Z" fill="#3F3D56"/>
<path id="Vector 42" d="M371.675 149.71H311.217V150.619H371.675V149.71Z" fill="#3F3D56"/>
<g id="leaf left">
<path id="Vector 43" d="M351.503 293.202C351.753 305.289 346.758 309.718 340.491 309.977C340.345 309.983 340.201 309.987 340.056 309.988C339.765 309.992 339.477 309.984 339.193 309.968C333.524 309.636 329.038 305.38 328.806 294.14C328.566 282.508 338.776 267.394 339.542 266.275L339.543 266.274C339.572 266.232 339.587 266.21 339.587 266.21C339.587 266.21 351.253 281.117 351.503 293.202Z" fill="#D0CDE1"/>
<path id="Vector 44" d="M340.04 308.146L344.021 299.773L340.048 309.046L340.056 309.988C339.765 309.992 339.477 309.984 339.193 309.968L339.39 297.858L339.385 297.765L339.392 297.746L339.411 296.602L335.051 287.651L339.406 295.746L339.421 295.988L339.57 286.838L335.804 277.558L339.581 285.23L339.542 266.275V266.212L339.543 266.274L339.793 281.213L343.225 275.146L339.804 282.5L339.879 290.685L343.038 282.698L339.891 291.888L339.933 296.438L344.526 285.312L339.946 298.026L340.04 308.146Z" fill="#3F3D56"/>
</g>
<g id="leaf right">
<path id="Vector 45" d="M524.851 293.202C525.101 305.289 520.107 309.718 513.839 309.977C513.694 309.983 513.549 309.987 513.405 309.988C513.114 309.992 512.826 309.984 512.541 309.968C506.873 309.636 502.386 305.38 502.155 294.14C501.914 282.508 512.124 267.394 512.89 266.275L512.892 266.274C512.921 266.232 512.935 266.21 512.935 266.21C512.935 266.21 524.602 281.117 524.851 293.202Z" fill="#D0CDE1"/>
<path id="Vector 46" d="M513.389 308.146L517.37 299.773L513.397 309.046L513.405 309.988C513.114 309.992 512.826 309.984 512.541 309.968L512.739 297.858L512.734 297.765L512.741 297.746L512.759 296.602L508.399 287.651L512.755 295.746L512.77 295.988L512.919 286.838L509.153 277.558L512.93 285.23L512.89 266.275V266.212L512.892 266.274L513.142 281.213L516.574 275.146L513.153 282.5L513.228 290.685L516.386 282.698L513.24 291.888L513.282 296.438L517.874 285.312L513.295 298.026L513.389 308.146Z" fill="#3F3D56"/>
</g>
<path id="IS" d="M455.156 252.774V261.638H453.999V252.774H455.156ZM459.94 261.727C459.355 261.727 458.829 261.626 458.363 261.422C457.905 261.211 457.545 260.922 457.282 260.557C457.019 260.184 456.883 259.756 456.875 259.273H458.109C458.15 259.688 458.32 260.04 458.617 260.328C458.923 260.608 459.363 260.748 459.94 260.748C460.491 260.748 460.923 260.613 461.237 260.341C461.559 260.061 461.721 259.705 461.721 259.273C461.721 258.934 461.627 258.658 461.441 258.446C461.254 258.234 461.021 258.073 460.741 257.963C460.462 257.853 460.084 257.734 459.609 257.607C459.024 257.454 458.554 257.301 458.198 257.149C457.85 256.996 457.549 256.759 457.295 256.437C457.048 256.106 456.926 255.665 456.926 255.114C456.926 254.631 457.048 254.203 457.295 253.829C457.54 253.456 457.883 253.168 458.325 252.964C458.774 252.761 459.287 252.659 459.864 252.659C460.694 252.659 461.373 252.867 461.899 253.282C462.433 253.698 462.734 254.249 462.802 254.936H461.53C461.487 254.597 461.309 254.3 460.996 254.046C460.681 253.783 460.266 253.651 459.749 253.651C459.266 253.651 458.872 253.778 458.567 254.033C458.261 254.279 458.109 254.626 458.109 255.076C458.109 255.398 458.198 255.661 458.376 255.864C458.562 256.068 458.786 256.225 459.05 256.335C459.321 256.437 459.698 256.556 460.182 256.691C460.767 256.852 461.237 257.013 461.594 257.174C461.95 257.327 462.255 257.569 462.509 257.899C462.764 258.222 462.891 258.662 462.891 259.222C462.891 259.654 462.776 260.061 462.547 260.443C462.318 260.824 461.979 261.134 461.53 261.371C461.08 261.608 460.551 261.727 459.94 261.727Z" fill="#3F3D56"/>
<g id="cap 2 1">
<g id="Group">
<path id="Shape" d="M429.928 89.8197C429.719 88.5564 427.454 88.3704 427.045 89.5607C428.01 89.3903 429 89.4797 429.928 89.8197Z" fill="black"/>
<path id="Vector 47" d="M408.01 117.035C416.428 118.331 414.499 122.703 422.366 121.894C426.746 121.357 430.768 119.015 433.607 115.351C424.37 114.743 416.279 110.176 409.314 111.302C406.178 113.731 402.9 116.007 401.283 117.463C402.259 117.035 404.33 116.468 408.01 117.035Z" fill="black"/>
<path id="Vector 48" d="M415.117 109.836C415.52 106.241 417.136 96.5973 423.096 91.925C419.863 92.7345 415.929 94.4669 413.643 98.0463C411.073 102.006 410.157 107.407 409.874 109.609C411.624 109.482 413.382 109.558 415.117 109.836Z" fill="black"/>
<path id="Vector 49" d="M432.349 113.61C434.114 113.813 435.575 113.781 437.922 113.991C440.156 114.192 440.968 114.509 441.646 114.063C442.047 113.749 442.302 113.262 442.347 112.727C442.59 111.269 442.693 109.787 442.652 108.307C442.652 100.427 438.927 94.8158 431.477 92.0059C435.939 98.0145 433.444 109.504 432.349 113.61Z" fill="black"/>
<path id="Vector 50" d="M416.593 110.039C419.647 110.63 425.145 112.468 430.851 113.408C431.819 109.804 435.18 95.3981 428.266 91.1628C419.177 93.1478 417.04 105.934 416.593 110.039Z" fill="black"/>
</g>
</g>
</g>
<g id="github 1">
<path id="Vector 51" d="M488.659 36.3387H480.179C478.507 36.3387 477.151 37.6948 477.151 39.3669V47.846C477.151 49.5181 478.507 50.8742 480.179 50.8742H488.659C490.331 50.8742 491.686 49.5181 491.686 47.846V39.3669C491.686 37.6948 490.331 36.3387 488.659 36.3387ZM485.953 48.2033C485.708 48.2505 485.63 48.0997 485.63 47.9707V46.6413C485.63 46.1889 485.472 45.8946 485.297 45.7443C486.376 45.6244 487.51 45.2144 487.51 43.3539C487.51 42.8245 487.321 42.3921 487.012 42.0536C487.061 41.9312 487.227 41.4382 486.963 40.7714C486.963 40.7714 486.557 40.6412 485.632 41.268C485.245 41.159 484.83 41.1063 484.419 41.1039C484.007 41.1057 483.593 41.159 483.206 41.2668C482.28 40.64 481.873 40.7702 481.873 40.7702C481.611 41.4376 481.776 41.93 481.827 42.0529C481.516 42.3921 481.327 42.824 481.327 43.3532C481.327 45.209 482.458 45.625 483.535 45.7479C483.397 45.8691 483.271 46.0823 483.228 46.396C482.951 46.5196 482.25 46.7334 481.818 45.9927C481.818 45.9927 481.562 45.5276 481.075 45.493C481.075 45.493 480.602 45.4869 481.041 45.7879C481.041 45.7879 481.359 45.9369 481.58 46.4965C481.58 46.4965 481.86 47.3614 483.208 47.0683V47.9701C483.208 48.0979 483.13 48.248 482.888 48.2033C480.962 47.5631 479.574 45.7468 479.574 43.6064C479.574 40.9301 481.743 38.7613 484.419 38.7613C487.094 38.7613 489.264 40.9301 489.264 43.6064C489.264 45.7461 487.877 47.5619 485.953 48.2033Z" fill="#0D0E0F"/>
</g>
<g id="instagram 1 1">
<path id="Vector 52" d="M437.178 36.3387H431.728C429.219 36.3387 427.185 38.3727 427.185 40.881V46.3318C427.185 48.8401 429.219 50.8742 431.728 50.8742H437.178C439.687 50.8742 441.721 48.8401 441.721 46.3318V40.881C441.721 38.3727 439.687 36.3387 437.178 36.3387ZM440.358 46.3318C440.358 48.0852 438.932 49.5115 437.178 49.5115H431.728C429.974 49.5115 428.548 48.0852 428.548 46.3318V40.881C428.548 39.1277 429.974 37.7014 431.728 37.7014H437.178C438.932 37.7014 440.358 39.1277 440.358 40.881V46.3318Z" fill="#3F3D56"/>
<path id="Vector 53" d="M434.453 39.9726C432.446 39.9726 430.819 41.5996 430.819 43.6064C430.819 45.6132 432.446 47.2403 434.453 47.2403C436.46 47.2403 438.087 45.6132 438.087 43.6064C438.087 41.5996 436.46 39.9726 434.453 39.9726ZM434.453 45.8776C433.201 45.8776 432.182 44.8583 432.182 43.6064C432.182 42.3537 433.201 41.3353 434.453 41.3353C435.705 41.3353 436.724 42.3537 436.724 43.6064C436.724 44.8583 435.705 45.8776 434.453 45.8776Z" fill="#3F3D56"/>
<path id="Vector 54" d="M438.359 40.1842C438.627 40.1842 438.844 39.9675 438.844 39.7C438.844 39.4326 438.627 39.2158 438.359 39.2158C438.092 39.2158 437.875 39.4326 437.875 39.7C437.875 39.9675 438.092 40.1842 438.359 40.1842Z" fill="#3F3D56"/>
</g>
<g id="twitter 1 1">
<path id="Vector" d="M393.572 36.3387H379.037V50.8742H393.572V36.3387Z" fill="#3F3D56"/>
<g id="Group 2">
<path id="Vector 55" d="M393.572 39.0995C393.032 39.3366 392.456 39.4938 391.855 39.5701C392.473 39.2013 392.944 38.6217 393.166 37.9231C392.59 38.2665 391.954 38.509 391.276 38.6444C390.729 38.062 389.95 37.7014 389.1 37.7014C387.45 37.7014 386.122 39.0405 386.122 40.6821C386.122 40.9183 386.142 41.1454 386.191 41.3616C383.713 41.2408 381.521 40.0534 380.049 38.2446C379.792 38.6907 379.641 39.2013 379.641 39.7509C379.641 40.7829 380.172 41.6977 380.964 42.2274C380.486 42.2183 380.016 42.0793 379.618 41.8603C379.618 41.8694 379.618 41.8812 379.618 41.893C379.618 43.3411 380.651 44.544 382.005 44.821C381.763 44.8874 381.499 44.9192 381.224 44.9192C381.033 44.9192 380.841 44.9083 380.66 44.8683C381.046 46.0484 382.142 46.916 383.444 46.9441C382.431 47.7372 381.143 48.2151 379.75 48.2151C379.505 48.2151 379.271 48.2042 379.037 48.1742C380.357 49.0254 381.921 49.5115 383.608 49.5115C389.092 49.5115 392.089 44.9691 392.089 41.0318C392.089 40.9001 392.085 40.7729 392.079 40.6466C392.67 40.2269 393.167 39.7027 393.572 39.0995Z" fill="white"/>
</g>
</g>
<g id="me">
<path id="Vector 56" d="M135.433 310.138L141.844 314.724L137.764 332.306L131.355 333.07L127.857 323.133L135.433 310.138Z" fill="#FFB9B9"/>
<path id="Vector 57" d="M115.62 345.301V353.708L105.713 352.944L105.851 346.02L115.62 345.301Z" fill="#FFB9B9"/>
<path id="Vector 58" d="M137.764 209.234L134.268 266.566L123.196 350.651L105.713 347.593L111.54 281.089L109.209 219.937L137.764 209.234Z" fill="#2F2E41"/>
<path id="Vector 59" d="M91.1442 166.427L133.103 167.191L137.764 209.234L109.21 226.816L102.217 260.45L137.764 310.137L123.778 333.069C123.778 333.069 103.965 297.906 89.3959 278.032C74.8271 258.157 81.8202 197.768 81.8202 197.768L91.1442 166.427Z" fill="#2F2E41"/>
<path id="Vector 60" d="M116.203 57.8802C123.283 57.8802 129.023 50.3509 129.023 41.0631C129.023 31.7752 123.283 24.246 116.203 24.246C109.122 24.246 103.382 31.7752 103.382 41.0631C103.382 50.3509 109.122 57.8802 116.203 57.8802Z" fill="#FFB9B9"/>
<path id="Vector 61" d="M120.865 52.5294V69.3466L112.123 87.6924C112.123 87.6924 98.7199 74.6974 101.634 71.6398C104.547 68.5821 105.13 44.8852 105.13 44.8852L120.865 52.5294Z" fill="#FFB9B9"/>
<path id="Vector 62" d="M120.865 66.2892L129.606 80.0483L126.109 175.6L98.7201 174.835L94.058 91.5147L99.8853 70.1111L103.883 62.977L110.958 76.9906L120.865 66.2892Z" fill="white"/>
<path id="Vector 63" d="M134.851 115.976L141.261 148.082L134.851 180.187L145.34 198.533L154.664 140.437C154.664 140.437 147.671 93.043 147.089 87.6924C146.505 82.3415 145.34 81.5771 145.34 81.5771L140.679 82.3415L134.851 115.976Z" fill="#2F2E41"/>
<path id="Vector 64" d="M88.2308 128.206L84.1514 138.144L82.9856 154.961L85.3166 174.071L77.1583 191.653L69 143.495L77.7409 81.5768H81.2378L88.2308 128.206Z" fill="#2F2E41"/>
<path id="Vector 65" d="M137.764 309.373C137.764 309.373 145.923 312.43 148.837 313.195C151.751 313.96 147.089 328.484 147.089 328.484C147.089 328.484 144.174 348.358 143.592 352.18C143.01 356.002 138.93 368.997 133.685 370.526C128.441 372.055 131.937 343.772 131.937 343.772C131.937 343.772 129.606 334.598 129.606 331.541C129.606 328.484 133.103 330.012 133.103 330.012C142.426 328.484 137.764 309.373 137.764 309.373Z" fill="#2F2E41"/>
<path id="Vector 66" d="M118.534 368.233C117.95 372.82 119.116 372.82 109.792 374.348C100.468 375.877 102.799 365.94 102.799 365.94C103.189 361.255 103.971 356.64 105.13 352.18C106.879 346.065 116.203 353.709 116.203 353.709C116.203 353.709 119.116 363.646 118.534 368.233Z" fill="#2F2E41"/>
<path id="Vector 67" d="M105.115 45.4191L104.811 52.2173C104.811 52.2173 101.051 41.0631 100.468 29.5969C99.8855 18.1307 109.792 15.8374 115.62 15.073C121.447 14.3086 131.354 19.6595 131.354 25.7748C131.354 31.8902 120.865 30.3614 116.786 28.8325C112.706 27.3037 110.958 40.2988 110.958 40.2988L108.627 41.0632L105.115 45.4191Z" fill="#2F2E41"/>
<path id="Vector 68" d="M124.304 71.7024L120.865 66.2892L110.958 76.9907L120.865 86.1637L124.304 71.7024Z" fill="white"/>
<path id="Vector 69" d="M99.8853 70.1111L103.965 63.2315L110.958 76.9906L102.216 85.3995L99.8853 70.1111Z" fill="white"/>
<path id="Vector 70" d="M136.599 126.678L134.268 155.726L138.93 173.307L141.844 190.124C141.844 190.124 141.844 206.177 130.188 206.941C118.534 207.706 108.627 158.783 108.627 158.783C108.627 158.783 106.879 169.485 105.713 175.6C104.547 181.715 84.7339 206.177 84.7339 206.177C84.7339 206.177 80.0719 205.412 75.9926 193.182C71.9134 180.951 84.1511 169.485 84.1511 169.485L87.6477 153.432L86.4822 133.558L78.3236 81.5771L102.508 65.1422L99.8854 109.096L108.627 143.495L121.739 67.4354L126.109 71.6398L144.758 81.5772L136.599 126.678Z" fill="#2F2E41"/>
</g>
<g id="code">
<path id="Vector 71" d="M275.663 202.622L286.826 182.593L275.663 162.565L279.066 156.461L293.633 182.593L279.066 208.726L275.663 202.622Z" fill="#6C63FF"/>
<g id="typing2">
<g id="dot1">
<rect width="6" height="9" transform="translate(244 180)" fill="#8882EC"/>
<rect id="Rectangle 1" x="244" y="180" width="6" height="9" fill="#6C63FF"/>
</g>
<g id="dot2">
<rect width="6" height="9" transform="translate(254 180)" fill="#8882EC"/>
<rect id="Rectangle 1_2" x="254" y="180" width="6" height="9" fill="#6C63FF"/>
</g>
<g id="dot3">
<rect width="6" height="9" transform="translate(264 180)" fill="#8882EC"/>
<rect id="Rectangle 1_3" x="264" y="180" width="6" height="9" fill="#6C63FF"/>
</g>
</g>
<path id="Vector 72" d="M237.634 202.417L226.459 182.389L237.622 162.36L234.219 156.256L219.662 182.389L234.23 208.521L237.634 202.417Z" fill="#6C63FF"/>
</g>
<g id="myPortfolioIcon 1">
<path id="Vector 73" d="M238.224 37.2471H254.577V51.7826H238.224V37.2471Z" fill="url(#paint0_linear)"/>
<path id="Vector 74" d="M240.268 39.0641C240.268 38.0605 241.183 37.2471 242.312 37.2471C243.442 37.2471 244.356 38.0605 244.356 39.0641C244.356 39.8653 243.77 40.5376 242.96 40.7793C242.846 43.3805 244.336 43.6645 246.365 44.0443C247.53 44.2623 248.847 44.5137 249.807 45.3071V40.7695C249.015 40.5194 248.445 39.8544 248.445 39.0641C248.445 38.0605 249.359 37.2471 250.489 37.2471C251.618 37.2471 252.533 38.0605 252.533 39.0641C252.533 39.8544 251.962 40.5194 251.17 40.7695V48.2596C251.962 48.5103 252.533 49.1753 252.533 49.9657C252.533 50.9692 251.618 51.7826 250.489 51.7826C249.359 51.7826 248.445 50.9692 248.445 49.9657C248.445 49.1814 249.006 48.5194 249.789 48.265C249.605 45.8896 248.038 45.5953 246.084 45.2296C244.015 44.8419 241.469 44.3562 241.602 40.7617C240.824 40.5043 240.268 39.8447 240.268 39.0641ZM251.715 39.0641C251.715 38.4627 251.165 37.9739 250.489 37.9739C249.812 37.9739 249.262 38.4627 249.262 39.0641C249.262 39.6655 249.812 40.1542 250.489 40.1542C251.165 40.1542 251.715 39.6655 251.715 39.0641ZM249.262 49.9657C249.262 50.5671 249.812 51.0558 250.489 51.0558C251.165 51.0558 251.715 50.5671 251.715 49.9657C251.715 49.3643 251.165 48.8755 250.489 48.8755C249.812 48.8755 249.262 49.3643 249.262 49.9657ZM242.312 40.1542C242.989 40.1542 243.539 39.6655 243.539 39.0641C243.539 38.4627 242.989 37.9739 242.312 37.9739C241.636 37.9739 241.086 38.4627 241.086 39.0641C241.086 39.6655 241.636 40.1542 242.312 40.1542Z" fill="#FFFDFD"/>
</g>
</g>
</g>
<defs>
<linearGradient id="paint0_linear" x1="246.4" y1="37.2471" x2="246.4" y2="51.7826" gradientUnits="userSpaceOnUse">
<stop stop-color="#3C3939"/>
<stop offset="1" stop-color="#3D10F0" stop-opacity="0.25"/>
</linearGradient>
</defs>
</svg>
