 <svg
          width="600"
          height="397"
          viewBox="0 0 600 437"
          fill="none"
          xmlns="http://www.w3.org/2000/svg"
        >
          <g id="me-5">
            <path
              id="Vector"
              d="M28.2482 119.109L27.4031 140.687L40.0932 142.124L40.9383 120.546L28.2482 119.109Z"
              fill="#E6E6E6"
            />
            <g id="Vector_2">
              <path
                d="M20.0605 130.567L35.47 132.312L34.4438 158.514L19.0343 156.769L20.0605 130.567ZM34.7554 133.375L20.6859 131.782L19.7489 155.706L33.8184 157.299L34.7554 133.375Z"
                fill="#CB2020"
              />
              <path
                d="M20.0605 130.567L35.47 132.312L34.4438 158.514L19.0343 156.769L20.0605 130.567ZM34.7554 133.375L20.6859 131.782L19.7489 155.706L33.8184 157.299L34.7554 133.375Z"
                fill="url(#paint0_linear)"
              />
            </g>
            <path
              id="Vector_3"
              d="M99.9623 55.1239L87.5278 59.667L90.1996 80.8103L102.634 76.2672L99.9623 55.1239Z"
              fill="#E6E6E6"
            />
            <path
              id="Vector_4"
              d="M91.2348 44.8829L94.4791 70.5569L79.3801 76.0735L76.1357 50.3995L91.2348 44.8829ZM93.6816 69.6805L90.7193 46.2391L76.9333 51.2759L79.8955 74.7174L93.6816 69.6805Z"
              fill="#CCCCCC"
            />
            <path
              id="Vector_5"
              d="M86.8966 156.661L77.6143 171.445L86.3088 187.229L95.591 172.445L86.8966 156.661Z"
              fill="#E6E6E6"
            />
            <path
              id="Vector_6"
              d="M96.2585 154.45L84.9872 172.402L74.4296 153.236L85.7009 135.284L96.2585 154.45ZM85.0182 170.788L95.3094 154.397L85.6699 136.898L75.3787 153.289L85.0182 170.788Z"
              fill="#CCCCCC"
            />
            <path
              id="Vector_7"
              d="M566.921 0H190.622C189.262 -2.62834e-06 187.915 0.455526 186.659 1.34058C185.402 2.22563 184.26 3.52286 183.299 5.15823C182.337 6.79359 181.574 8.73505 181.054 10.8718C180.533 13.0085 180.265 15.2986 180.265 17.6113V374.124C180.265 376.436 180.533 378.726 181.054 380.863C181.574 383 182.337 384.941 183.299 386.577C184.26 388.212 185.402 389.509 186.659 390.394C187.915 391.279 189.262 391.735 190.622 391.735H566.921C569.667 391.735 572.302 389.879 574.244 386.577C576.187 383.274 577.278 378.794 577.278 374.124V17.6113C577.278 12.9405 576.187 8.46101 574.244 5.15824C572.302 1.85548 569.667 2.6541e-06 566.921 0V0Z"
              fill="#3F3D56"
            />
            <path
              id="Vector_8"
              d="M563.732 31H194.492V385.171H563.732V31Z"
              fill="white"
            />
            <path
              id="Vector_9"
              d="M378.456 21.4649C380.547 21.4649 382.243 18.5819 382.243 15.0255C382.243 11.469 380.547 8.58598 378.456 8.58598C376.364 8.58598 374.669 11.469 374.669 15.0255C374.669 18.5819 376.364 21.4649 378.456 21.4649Z"
              fill="white"
            />
            <path
              id="Vector_10"
              d="M457.795 385.296H194.151V31.1247L457.795 385.296Z"
              fill="#F2F2F2"
            />
            <path
              id="Vector_11"
              d="M587.645 378.856H551.609V374.441C551.609 374.326 551.596 374.212 551.57 374.106C551.544 374 551.507 373.904 551.459 373.822C551.411 373.741 551.354 373.677 551.292 373.633C551.229 373.589 551.162 373.566 551.095 373.566H538.74C538.672 373.566 538.605 373.589 538.543 373.633C538.48 373.677 538.423 373.741 538.376 373.822C538.328 373.904 538.29 374 538.264 374.106C538.238 374.212 538.225 374.326 538.225 374.441V378.856H530.503V374.441C530.503 374.326 530.49 374.212 530.464 374.106C530.438 374 530.4 373.904 530.352 373.822C530.304 373.741 530.248 373.677 530.185 373.633C530.123 373.589 530.056 373.566 529.988 373.566H517.633C517.566 373.566 517.499 373.589 517.436 373.633C517.374 373.677 517.317 373.741 517.269 373.822C517.221 373.904 517.183 374 517.158 374.106C517.132 374.212 517.118 374.326 517.118 374.441V374.441V378.856H509.397V374.441C509.397 374.326 509.383 374.212 509.357 374.106C509.332 374 509.294 373.904 509.246 373.822C509.198 373.741 509.141 373.677 509.079 373.633C509.016 373.589 508.949 373.566 508.882 373.566H496.527C496.459 373.566 496.392 373.589 496.33 373.633C496.267 373.677 496.211 373.741 496.163 373.822C496.115 373.904 496.077 374 496.051 374.106C496.025 374.212 496.012 374.326 496.012 374.441V374.441V378.856H488.29V374.441C488.29 374.326 488.277 374.212 488.251 374.106C488.225 374 488.187 373.904 488.139 373.822C488.091 373.741 488.035 373.677 487.972 373.633C487.91 373.589 487.843 373.566 487.775 373.566H475.42C475.353 373.566 475.286 373.589 475.223 373.633C475.161 373.677 475.104 373.741 475.056 373.822C475.008 373.904 474.971 374 474.945 374.106C474.919 374.212 474.905 374.326 474.905 374.441V378.856H467.184V374.441C467.184 374.326 467.17 374.212 467.144 374.106C467.119 374 467.081 373.904 467.033 373.822C466.985 373.741 466.928 373.677 466.866 373.633C466.803 373.589 466.736 373.566 466.669 373.566H454.314C454.246 373.566 454.179 373.589 454.117 373.633C454.054 373.677 453.998 373.741 453.95 373.822C453.902 373.904 453.864 374 453.838 374.106C453.812 374.212 453.799 374.326 453.799 374.441V374.441V378.856H446.077V374.441C446.077 374.326 446.064 374.212 446.038 374.106C446.012 374 445.974 373.904 445.926 373.822C445.879 373.741 445.822 373.677 445.759 373.633C445.697 373.589 445.63 373.566 445.562 373.566H433.207C433.14 373.566 433.073 373.589 433.01 373.633C432.948 373.677 432.891 373.741 432.843 373.822C432.795 373.904 432.758 374 432.732 374.106C432.706 374.212 432.693 374.326 432.693 374.441V374.441V378.856H424.971V374.441C424.971 374.326 424.957 374.212 424.931 374.106C424.906 374 424.868 373.904 424.82 373.822C424.772 373.741 424.715 373.677 424.653 373.633C424.59 373.589 424.523 373.566 424.456 373.566H327.675C327.607 373.566 327.54 373.589 327.478 373.633C327.415 373.677 327.359 373.741 327.311 373.822C327.263 373.904 327.225 374 327.199 374.106C327.173 374.212 327.16 374.326 327.16 374.441V374.441V378.856H319.438V374.441C319.438 374.326 319.425 374.212 319.399 374.106C319.373 374 319.335 373.904 319.287 373.822C319.24 373.741 319.183 373.677 319.12 373.633C319.058 373.589 318.991 373.566 318.923 373.566H306.568C306.501 373.566 306.434 373.589 306.371 373.633C306.309 373.677 306.252 373.741 306.204 373.822C306.157 373.904 306.119 374 306.093 374.106C306.067 374.212 306.054 374.326 306.054 374.441V374.441V378.856H298.332V374.441C298.332 374.326 298.318 374.212 298.293 374.106C298.267 374 298.229 373.904 298.181 373.822C298.133 373.741 298.076 373.677 298.014 373.633C297.951 373.589 297.885 373.566 297.817 373.566H285.462C285.394 373.566 285.327 373.589 285.265 373.633C285.202 373.677 285.146 373.741 285.098 373.822C285.05 373.904 285.012 374 284.986 374.106C284.96 374.212 284.947 374.326 284.947 374.441V374.441V378.856H277.225V374.441C277.225 374.326 277.212 374.212 277.186 374.106C277.16 374 277.122 373.904 277.074 373.822C277.027 373.741 276.97 373.677 276.907 373.633C276.845 373.589 276.778 373.566 276.71 373.566H264.355C264.288 373.566 264.221 373.589 264.158 373.633C264.096 373.677 264.039 373.741 263.991 373.822C263.944 373.904 263.906 374 263.88 374.106C263.854 374.212 263.841 374.326 263.841 374.441V374.441V378.856H256.119V374.441C256.119 374.326 256.105 374.212 256.08 374.106C256.054 374 256.016 373.904 255.968 373.822C255.92 373.741 255.863 373.677 255.801 373.633C255.738 373.589 255.672 373.566 255.604 373.566H243.249C243.181 373.566 243.114 373.589 243.052 373.633C242.989 373.677 242.933 373.741 242.885 373.822C242.837 373.904 242.799 374 242.773 374.106C242.747 374.212 242.734 374.326 242.734 374.441V374.441V378.856H235.012V374.441C235.012 374.326 234.999 374.212 234.973 374.106C234.947 374 234.909 373.904 234.861 373.822C234.814 373.741 234.757 373.677 234.694 373.633C234.632 373.589 234.565 373.566 234.497 373.566H222.142C222.006 373.566 221.875 373.658 221.778 373.822C221.682 373.986 221.628 374.209 221.628 374.441V378.856H213.906V374.441C213.906 374.326 213.892 374.212 213.867 374.106C213.841 374 213.803 373.904 213.755 373.822C213.707 373.741 213.65 373.677 213.588 373.633C213.526 373.589 213.459 373.566 213.391 373.566H201.036C200.899 373.566 200.768 373.658 200.672 373.822C200.575 373.986 200.521 374.209 200.521 374.441V378.856H176.841C173.564 378.856 170.421 381.069 168.104 385.009C165.787 388.949 164.486 394.293 164.486 399.864V409.364C164.486 414.935 165.787 420.279 168.104 424.219C170.421 428.159 173.564 430.372 176.841 430.372H587.645C590.922 430.372 594.064 428.159 596.381 424.219C598.698 420.279 600 414.935 600 409.364V399.864C600 397.105 599.68 394.374 599.059 391.825C598.439 389.276 597.529 386.96 596.381 385.009C595.234 383.058 593.872 381.511 592.373 380.455C590.874 379.399 589.267 378.856 587.645 378.856V378.856Z"
              fill="#3F3D56"
            />
            <g id="undraw_dev_productivity_umsq 1" clip-path="url(#clip0)">
              <path
                id="Vector_12"
                d="M438.664 152.881C449.889 153.15 459.089 143.948 459.213 132.329C459.337 120.709 450.337 111.072 439.112 110.804C427.887 110.535 418.687 119.737 418.564 131.356C418.44 142.976 427.439 152.613 438.664 152.881Z"
                fill="#A0616A"
              />
              <path
                id="Vector_13"
                d="M424.549 137.616C424.549 137.616 428.629 181.107 422.353 185.989C416.076 190.87 459.698 191.314 459.698 191.314C459.698 191.314 449.969 153.592 454.363 142.054L424.549 137.616Z"
                fill="#A0616A"
              />
              <path
                id="Vector_14"
                d="M491.551 191.534L487.923 214.895L480.252 264.318L480.022 267.025L477.375 298.36L475.614 319.176L474.434 333.16C467.254 338.377 462.051 341.979 462.051 341.979C462.051 341.979 461.604 338.806 460.882 334.746C455.844 336.882 446.521 340.426 438.62 341.134C441.497 345.669 442.82 349.928 441.026 353.072C435.614 362.55 413.27 342.695 405.455 335.292C405.273 337.064 405.204 338.856 405.248 340.647L399.268 334.142L399.86 319.176L400.858 293.854L402.112 262.099C401.717 260.739 401.385 259.344 401.12 257.922C399.288 248.711 397.065 230.318 395.36 214.895C393.988 202.481 392.957 191.992 392.739 189.76C392.71 189.469 392.695 189.319 392.695 189.319L425.802 168.631C428.155 176.347 439.142 178.667 439.142 178.667C448.244 177.78 455.379 170.992 455.379 170.992L491.551 191.534Z"
                fill="#D0CDE1"
              />
              <path
                id="Vector_15"
                d="M464.563 333.105C464.563 333.105 463.161 333.784 460.882 334.746C455.844 336.882 446.521 340.426 438.62 341.134C431.818 341.75 426.07 340.268 425.019 333.992C424.568 331.294 425.207 329.075 426.6 327.251C430.758 321.8 441.618 319.847 450.231 319.176C452.664 318.989 454.913 318.902 456.786 318.868C459.966 318.81 462.051 318.902 462.051 318.902L462.101 319.176L464.563 333.105Z"
                fill="#A0616A"
              />
              <path
                id="Vector_16"
                d="M515.088 298.931C512.882 302.312 507.417 307.405 500.791 312.918C498.327 314.967 495.703 317.078 493.026 319.176C486.639 324.186 479.952 329.15 474.434 333.16C467.254 338.377 462.051 341.979 462.051 341.979C462.051 341.979 461.604 338.806 460.882 334.746C459.916 329.312 458.462 322.287 456.945 319.176C456.892 319.068 456.839 318.968 456.786 318.868C456.344 318.048 455.9 317.569 455.461 317.569L477.375 298.36L486.845 290.057L480.022 267.025L471.465 238.135L476.63 214.895L481.822 191.534H491.551C491.551 191.534 494.772 201.478 498.892 215.344C499.507 217.418 500.143 219.579 500.791 221.811C509.266 250.96 519.831 291.664 515.088 298.931Z"
                fill="#D0CDE1"
              />
              <path
                id="Vector_17"
                d="M441.026 353.072C435.614 362.55 413.27 342.695 405.455 335.292C403.753 333.68 402.74 332.66 402.74 332.66L409.889 319.176L412.154 314.908C412.154 314.908 414.18 316.428 417.174 318.902C417.283 318.993 417.392 319.085 417.504 319.176C420.087 321.321 423.329 324.123 426.6 327.251C431.114 331.569 435.679 336.495 438.62 341.134C441.497 345.669 442.82 349.928 441.026 353.072Z"
                fill="#A0616A"
              />
              <path
                id="Vector_18"
                d="M417.174 318.902C416.375 318.897 415.577 318.989 414.789 319.177C408.019 320.821 406.023 329.487 405.455 335.292C405.273 337.064 405.204 338.857 405.249 340.647L399.268 334.142L397.089 331.773C391.844 329.187 387.171 324.594 383.119 319.177C379.604 314.394 376.451 309.106 373.711 303.399C370.982 297.774 368.549 291.873 366.432 285.743C365.841 284.032 365.524 282.159 365.502 280.256C365.48 278.352 365.754 276.466 366.305 274.729L373.711 251.389L384.536 217.277C384.615 216.465 384.703 215.671 384.798 214.895C386.944 197.489 392.695 189.76 392.695 189.76H397.089L400.028 214.895L403.679 246.121L401.12 257.922L395.207 285.177L400.858 293.855L417.174 318.902Z"
                fill="#D0CDE1"
              />
              <path
                id="Vector_19"
                d="M422.147 246.146L425.903 252.343C427.298 251.967 428.755 251.524 430.256 251.028L429.177 246.146L431.815 250.498C447.716 244.968 467.424 234.216 467.424 234.216C467.424 234.216 446.147 236.422 430.26 231.514C423.231 229.342 415.999 234.27 413.114 243.591C411.438 249.008 411.701 253.702 417.647 253.702C419.656 253.654 421.66 253.387 423.64 252.905L422.147 246.146Z"
                fill="white"
              />
              <path
                id="Vector_20"
                d="M507.77 347.992V350.52C507.771 351.213 507.68 351.901 507.502 352.548C507.423 352.836 507.328 353.114 507.217 353.381C506.866 354.214 506.368 354.903 505.771 355.382C505.175 355.861 504.501 356.113 503.815 356.112H372.321C371.636 356.113 370.962 355.861 370.365 355.382C369.769 354.903 369.271 354.214 368.92 353.381C368.809 353.114 368.714 352.836 368.635 352.548C368.456 351.901 368.366 351.213 368.367 350.52V347.992C368.366 347.258 368.469 346.53 368.667 345.852C368.866 345.173 369.157 344.557 369.525 344.037C369.892 343.518 370.328 343.106 370.808 342.825C371.288 342.544 371.802 342.4 372.321 342.4H379.901V341.221C379.901 341.191 379.905 341.16 379.913 341.132C379.922 341.104 379.934 341.078 379.949 341.056C379.964 341.035 379.983 341.017 380.003 341.006C380.023 340.994 380.044 340.988 380.066 340.988H384.02C384.042 340.988 384.064 340.994 384.084 341.006C384.104 341.017 384.122 341.035 384.137 341.056C384.152 341.078 384.165 341.104 384.173 341.132C384.181 341.16 384.185 341.191 384.185 341.221V342.4H386.656V341.221C386.656 341.191 386.66 341.16 386.668 341.132C386.677 341.104 386.689 341.078 386.704 341.056C386.719 341.035 386.738 341.017 386.758 341.006C386.778 340.994 386.799 340.988 386.821 340.988H390.776C390.797 340.988 390.819 340.994 390.839 341.006C390.859 341.017 390.877 341.035 390.892 341.056C390.908 341.078 390.92 341.104 390.928 341.132C390.936 341.16 390.94 341.191 390.94 341.221V342.4H393.414V341.221C393.414 341.191 393.418 341.16 393.426 341.132C393.435 341.104 393.447 341.078 393.462 341.056C393.477 341.035 393.496 341.017 393.516 341.006C393.536 340.994 393.557 340.988 393.579 340.988H397.534C397.555 340.988 397.577 340.994 397.597 341.006C397.617 341.017 397.635 341.035 397.65 341.056C397.666 341.078 397.678 341.104 397.686 341.132C397.694 341.16 397.698 341.191 397.698 341.221V342.4H400.169V341.221C400.169 341.191 400.173 341.16 400.181 341.132C400.19 341.104 400.202 341.078 400.217 341.056C400.233 341.035 400.251 341.017 400.271 341.006C400.291 340.994 400.312 340.988 400.334 340.988H404.289C404.31 340.988 404.332 340.994 404.352 341.006C404.372 341.017 404.39 341.035 404.405 341.056C404.421 341.078 404.433 341.104 404.441 341.132C404.449 341.16 404.454 341.191 404.453 341.221V342.4H406.924V341.221C406.924 341.191 406.928 341.16 406.937 341.132C406.945 341.104 406.957 341.078 406.972 341.056C406.988 341.035 407.006 341.017 407.026 341.006C407.046 340.994 407.067 340.988 407.089 340.988H411.044C411.065 340.988 411.087 340.994 411.107 341.006C411.127 341.017 411.145 341.035 411.16 341.056C411.176 341.078 411.188 341.104 411.196 341.132C411.204 341.16 411.209 341.191 411.209 341.221V342.4H413.682V341.221C413.682 341.191 413.686 341.16 413.695 341.132C413.703 341.104 413.715 341.078 413.73 341.056C413.746 341.035 413.764 341.017 413.784 341.006C413.804 340.994 413.825 340.988 413.847 340.988H417.802C417.823 340.988 417.845 340.994 417.865 341.006C417.885 341.017 417.903 341.035 417.918 341.056C417.934 341.078 417.946 341.104 417.954 341.132C417.962 341.16 417.967 341.191 417.967 341.221V342.4H420.437V341.221C420.437 341.191 420.441 341.16 420.45 341.132C420.458 341.104 420.47 341.078 420.485 341.056C420.501 341.035 420.519 341.017 420.539 341.006C420.559 340.994 420.58 340.988 420.602 340.988H451.58C451.602 340.988 451.623 340.994 451.643 341.006C451.663 341.017 451.681 341.035 451.697 341.056C451.712 341.078 451.724 341.104 451.732 341.132C451.741 341.16 451.745 341.191 451.745 341.221V342.4H454.218V341.221C454.218 341.191 454.223 341.16 454.231 341.132C454.239 341.104 454.251 341.078 454.267 341.056C454.282 341.035 454.3 341.017 454.32 341.006C454.34 340.994 454.362 340.988 454.383 340.988H458.338C458.382 340.989 458.423 341.013 458.454 341.057C458.485 341.101 458.502 341.16 458.503 341.221V342.4H460.973V341.221C460.973 341.191 460.978 341.16 460.986 341.132C460.994 341.104 461.006 341.078 461.022 341.056C461.037 341.035 461.055 341.017 461.075 341.006C461.095 340.994 461.117 340.988 461.138 340.988H465.093C465.115 340.988 465.136 340.994 465.156 341.006C465.176 341.017 465.194 341.035 465.21 341.056C465.225 341.078 465.237 341.104 465.245 341.132C465.254 341.16 465.258 341.191 465.258 341.221V342.4H467.729V341.221C467.729 341.191 467.733 341.16 467.741 341.132C467.749 341.104 467.761 341.078 467.777 341.056C467.792 341.035 467.81 341.017 467.83 341.006C467.85 340.994 467.872 340.988 467.893 340.988H471.848C471.87 340.988 471.891 340.994 471.911 341.006C471.931 341.017 471.95 341.035 471.965 341.056C471.98 341.078 471.992 341.104 472.001 341.132C472.009 341.16 472.013 341.191 472.013 341.221V342.4H474.487V341.221C474.487 341.191 474.491 341.16 474.499 341.132C474.507 341.104 474.519 341.078 474.535 341.056C474.55 341.035 474.568 341.017 474.588 341.006C474.608 340.994 474.63 340.988 474.651 340.988H478.606C478.649 340.989 478.691 341.014 478.721 341.057C478.751 341.101 478.768 341.16 478.768 341.221V342.4H481.242V341.221C481.242 341.191 481.246 341.16 481.254 341.132C481.262 341.104 481.275 341.078 481.29 341.056C481.305 341.035 481.323 341.017 481.343 341.006C481.363 340.994 481.385 340.988 481.407 340.988H485.361C485.383 340.988 485.404 340.994 485.424 341.006C485.444 341.017 485.463 341.035 485.478 341.056C485.493 341.078 485.505 341.104 485.514 341.132C485.522 341.16 485.526 341.191 485.526 341.221V342.4H487.997V341.221C487.997 341.191 488.001 341.16 488.009 341.132C488.017 341.104 488.03 341.078 488.045 341.056C488.06 341.035 488.078 341.017 488.098 341.006C488.118 340.994 488.14 340.988 488.162 340.988H492.116C492.138 340.988 492.159 340.994 492.179 341.006C492.199 341.017 492.218 341.035 492.233 341.056C492.248 341.078 492.26 341.104 492.269 341.132C492.277 341.16 492.281 341.191 492.281 341.221V342.4H503.815C504.335 342.4 504.849 342.544 505.329 342.825C505.809 343.106 506.245 343.518 506.612 344.037C506.979 344.557 507.271 345.173 507.469 345.852C507.668 346.53 507.77 347.258 507.77 347.992V347.992Z"
                fill="#3F3D56"
              />
              <path
                id="Vector_21"
                d="M546.006 352.548H330.162V353.381H546.006V352.548Z"
                fill="#3F3D56"
              />
              <path
                id="Vector_22"
                d="M497.085 241.429H448.073V240H425.849V241.429H376.635C375.756 241.429 374.913 241.922 374.291 242.802C373.669 243.681 373.32 244.873 373.32 246.117V341.022C373.32 342.265 373.669 343.457 374.291 344.337C374.913 345.216 375.756 345.71 376.635 345.71H497.085C497.964 345.71 498.808 345.216 499.429 344.337C500.051 343.457 500.4 342.265 500.4 341.022V246.117C500.4 245.501 500.315 244.891 500.148 244.323C499.981 243.754 499.737 243.237 499.429 242.802C499.121 242.366 498.756 242.021 498.354 241.785C497.952 241.55 497.52 241.429 497.085 241.429V241.429Z"
                fill="#3F3D56"
              />
              <path
                id="Vector_23"
                d="M437.725 288C444.544 288 450.072 283.299 450.072 277.5C450.072 271.701 444.544 267 437.725 267C430.906 267 425.378 271.701 425.378 277.5C425.378 283.299 430.906 288 437.725 288Z"
                stroke="#D0CDE1"
                stroke-width="2"
                stroke-miterlimit="10"
              />
              <path
                id="Vector_24"
                d="M433.72 293C439.802 293 444.733 287.404 444.733 280.5C444.733 273.596 439.802 268 433.72 268C427.639 268 422.708 273.596 422.708 280.5C422.708 287.404 427.639 293 433.72 293Z"
                fill="#D0CDE1"
              />
              <path
                id="Vector_25"
                d="M344.281 348.34H336.036V360H344.281V348.34Z"
                fill="#D0CDE1"
              />
              <path
                id="Vector_26"
                d="M339.276 339.18V353.338H349.288V339.18H339.276ZM348.852 352.721H339.709V339.796H348.852V352.721Z"
                fill="#3F3D56"
              />
              <path
                id="Vector_27"
                d="M535.095 348.34H526.85V360H535.095V348.34Z"
                fill="#D0CDE1"
              />
              <path
                id="Vector_28"
                d="M530.091 339.18V353.338H540.103V339.18H530.091ZM539.667 352.721H530.524V339.796H539.667V352.721Z"
                fill="#3F3D56"
              />
              <path
                id="Vector_29"
                d="M343.954 170C359.067 170 371.318 153.882 371.318 134C371.318 114.118 359.067 98 343.954 98C328.841 98 316.59 114.118 316.59 134C316.59 153.882 328.841 170 343.954 170Z"
                fill="#D0CDE1"
              />
              <path
                id="Vector_30"
                d="M353.36 91.3094C350.881 90.8969 348.373 90.8969 345.894 91.3094C340.373 92.2584 335.175 95.2607 330.918 99.9602C326.66 104.66 323.523 110.859 321.876 117.823C321.128 120.996 320.704 124.285 320.616 127.605C320.603 128.066 320.595 128.533 320.595 129C320.603 139.075 323.664 148.735 329.107 155.859C334.55 162.983 341.93 166.99 349.627 167C350.245 167 350.863 166.973 351.473 166.924C352.904 166.806 354.326 166.549 355.728 166.153C362.422 164.269 368.392 159.349 372.583 152.263C376.774 145.177 378.918 136.379 378.634 127.425C378.351 118.471 375.659 109.936 371.035 103.328C366.41 96.7193 360.15 92.4626 353.36 91.3094H353.36ZM358.714 163.949H358.71C356.372 164.993 353.938 165.627 351.473 165.833C350.863 165.887 350.245 165.914 349.627 165.914C342.15 165.902 334.982 162.009 329.695 155.089C324.408 148.169 321.433 138.787 321.424 129C321.424 128.533 321.433 128.066 321.445 127.605C321.73 118.067 324.823 109.044 330.076 102.423C335.329 95.8027 342.335 92.0984 349.627 92.0857C356.309 92.0862 362.773 95.1915 367.869 100.848C372.964 106.505 376.36 114.346 377.451 122.974C378.542 131.602 377.258 140.457 373.826 147.961C370.395 155.465 365.039 161.131 358.714 163.949H358.714Z"
                fill="#3F3D56"
              />
              <path
                id="Vector_31"
                d="M349.961 94H349.293V102H349.961V94Z"
                fill="#3F3D56"
              />
              <path
                id="Vector_32"
                d="M331.247 103.965L330.663 104.735L334.755 110.125L335.34 109.355L331.247 103.965Z"
                fill="#3F3D56"
              />
              <path
                id="Vector_33"
                d="M323.264 128V130H328.604V128H323.264Z"
                fill="#3F3D56"
              />
              <path
                id="Vector_34"
                d="M330.663 153.242L331.247 154.012L335.34 148.623L334.755 147.853L330.663 153.242Z"
                fill="#3F3D56"
              />
              <path
                id="Vector_35"
                d="M363.989 109.355L364.574 110.125L368.667 104.735L368.082 103.965L363.989 109.355Z"
                fill="#3F3D56"
              />
              <path
                id="Vector_36"
                d="M369.983 128V130H375.99V128H369.983Z"
                fill="#3F3D56"
              />
              <path
                id="Vector_37"
                d="M364.574 147.853L363.989 148.623L368.082 154.012L368.667 153.242L364.574 147.853Z"
                fill="#3F3D56"
              />
              <path
                id="Vector_38"
                d="M349.961 156H349.293V164H349.961V156Z"
                fill="#3F3D56"
              />
              <path
                id="Vector_39"
                d="M351.162 126.6C350.816 126.211 350.394 126 349.961 126C349.528 126 349.106 126.211 348.76 126.6C348.522 126.87 348.327 127.214 348.187 127.608C348.01 128.115 347.933 128.688 347.966 129.259C347.999 129.83 348.14 130.374 348.373 130.828C348.606 131.282 348.921 131.627 349.281 131.822C349.64 132.016 350.029 132.052 350.402 131.926C350.775 131.8 351.116 131.516 351.385 131.109C351.654 130.701 351.839 130.187 351.919 129.627C351.999 129.067 351.97 128.484 351.836 127.948C351.702 127.411 351.468 126.944 351.162 126.6H351.162ZM349.961 130.8C349.643 130.798 349.338 130.608 349.113 130.271C348.887 129.934 348.761 129.477 348.76 129C348.761 128.636 348.835 128.281 348.972 127.98C349.089 127.725 349.248 127.52 349.434 127.385C349.62 127.249 349.826 127.188 350.032 127.207C350.238 127.225 350.437 127.323 350.611 127.491C350.784 127.659 350.926 127.891 351.022 128.165C351.118 128.439 351.165 128.745 351.159 129.055C351.153 129.364 351.094 129.666 350.987 129.93C350.88 130.195 350.73 130.415 350.55 130.567C350.37 130.719 350.167 130.799 349.961 130.8V130.8Z"
                fill="#3F3D56"
              />
              <path
                id="Vector_40"
                d="M353.298 82H345.956V91H353.298V82Z"
                fill="#3F3D56"
              />
              <path
                id="Vector_41"
                d="M349.961 83C355.49 83 359.972 80.9853 359.972 78.5C359.972 76.0147 355.49 74 349.961 74C344.432 74 339.95 76.0147 339.95 78.5C339.95 80.9853 344.432 83 349.961 83Z"
                fill="#3F3D56"
              />
              <path
                id="clock"
                d="M351.296 108H348.626V127H351.296V108Z"
                fill="#3F3D56"
              />
              <path
                id="Vector_42"
                d="M378.897 164.794H312.347V165.795H378.897V164.794Z"
                fill="#3F3D56"
              />
              <g id="leaf-left">
                <path
                  id="Vector_43"
                  d="M356.692 322.744C356.967 336.049 351.469 340.924 344.571 341.209C344.41 341.216 344.251 341.22 344.092 341.221C343.772 341.225 343.455 341.217 343.142 341.199C336.902 340.833 331.964 336.149 331.708 323.776C331.444 310.972 342.683 294.335 343.526 293.104L343.527 293.103C343.559 293.056 343.576 293.032 343.576 293.032C343.576 293.032 356.417 309.441 356.692 322.744Z"
                  fill="#D0CDE1"
                />
                <path
                  id="Vector_44"
                  d="M344.074 339.193L348.456 329.977L344.083 340.184L344.092 341.221C343.772 341.225 343.455 341.217 343.142 341.199L343.359 327.869L343.353 327.766L343.361 327.746L343.382 326.486L338.583 316.633L343.376 325.544L343.393 325.81L343.557 315.739L339.412 305.523L343.569 313.969L343.526 293.104L343.526 293.034L343.527 293.103L343.802 309.547L347.58 302.868L343.815 310.964L343.897 319.973L347.374 311.181L343.91 321.297L343.956 326.306L349.012 314.059L343.971 328.054L344.074 339.193Z"
                  fill="#3F3D56"
                />
              </g>
              <g id="leaf-right">
                <path
                  id="Vector_45"
                  d="M547.506 322.744C547.781 336.049 542.284 340.924 535.385 341.209C535.225 341.216 535.065 341.22 534.907 341.221C534.587 341.225 534.27 341.217 533.956 341.199C527.717 340.833 522.778 336.149 522.523 323.776C522.258 310.972 533.497 294.335 534.34 293.104L534.342 293.103C534.374 293.056 534.39 293.032 534.39 293.032C534.39 293.032 547.232 309.441 547.506 322.744Z"
                  fill="#D0CDE1"
                />
                <path
                  id="Vector_46"
                  d="M534.889 339.193L539.271 329.977L534.898 340.184L534.907 341.221C534.587 341.225 534.27 341.217 533.956 341.199L534.174 327.869L534.168 327.766L534.176 327.746L534.196 326.486L529.397 316.633L534.191 325.544L534.208 325.81L534.372 315.739L530.227 305.523L534.384 313.969L534.34 293.104L534.34 293.034L534.342 293.103L534.617 309.547L538.395 302.868L534.629 310.964L534.712 319.973L538.188 311.181L534.725 321.297L534.771 326.306L539.826 314.059L534.786 328.054L534.889 339.193Z"
                  fill="#3F3D56"
                />
              </g>
              <path
                id="IS"
                d="M470.789 278.242V288H469.515V278.242H470.789ZM476.055 288.098C475.411 288.098 474.832 287.986 474.319 287.762C473.815 287.529 473.418 287.211 473.129 286.81C472.839 286.399 472.69 285.928 472.681 285.396H474.039C474.085 285.853 474.272 286.241 474.599 286.558C474.935 286.866 475.42 287.02 476.055 287.02C476.661 287.02 477.137 286.871 477.483 286.572C477.837 286.264 478.015 285.872 478.015 285.396C478.015 285.023 477.912 284.719 477.707 284.486C477.501 284.253 477.245 284.075 476.937 283.954C476.629 283.833 476.213 283.702 475.691 283.562C475.047 283.394 474.529 283.226 474.137 283.058C473.754 282.89 473.423 282.629 473.143 282.274C472.872 281.91 472.737 281.425 472.737 280.818C472.737 280.286 472.872 279.815 473.143 279.404C473.413 278.993 473.791 278.676 474.277 278.452C474.771 278.228 475.336 278.116 475.971 278.116C476.885 278.116 477.632 278.345 478.211 278.802C478.799 279.259 479.13 279.866 479.205 280.622H477.805C477.758 280.249 477.562 279.922 477.217 279.642C476.871 279.353 476.414 279.208 475.845 279.208C475.313 279.208 474.879 279.348 474.543 279.628C474.207 279.899 474.039 280.281 474.039 280.776C474.039 281.131 474.137 281.42 474.333 281.644C474.538 281.868 474.785 282.041 475.075 282.162C475.373 282.274 475.789 282.405 476.321 282.554C476.965 282.731 477.483 282.909 477.875 283.086C478.267 283.254 478.603 283.52 478.883 283.884C479.163 284.239 479.303 284.724 479.303 285.34C479.303 285.816 479.177 286.264 478.925 286.684C478.673 287.104 478.299 287.445 477.805 287.706C477.31 287.967 476.727 288.098 476.055 288.098Z"
                fill="#3F3D56"
              />
              <g id="cap-2 1" clip-path="url(#clip1)">
                <g id="Group">
                  <path
                    id="Shape"
                    d="M443.019 98.8695C442.789 97.4789 440.296 97.2742 439.845 98.5844C440.908 98.3969 441.998 98.4953 443.019 98.8695Z"
                    fill="black"
                  />
                  <path
                    id="Vector_47"
                    d="M418.893 128.827C428.159 130.253 426.035 135.066 434.695 134.175C439.516 133.584 443.944 131.006 447.069 126.973C436.901 126.304 427.995 121.277 420.328 122.516C416.876 125.19 413.268 127.695 411.488 129.298C412.562 128.827 414.842 128.203 418.893 128.827V128.827Z"
                    fill="black"
                  />
                  <path
                    id="Vector_48"
                    d="M426.716 120.903C427.159 116.945 428.938 106.33 435.499 101.187C431.94 102.078 427.61 103.985 425.093 107.925C422.264 112.284 421.256 118.229 420.944 120.653C422.871 120.513 424.806 120.597 426.716 120.903V120.903Z"
                    fill="black"
                  />
                  <path
                    id="Vector_49"
                    d="M445.684 125.057C447.627 125.28 449.235 125.245 451.818 125.476C454.278 125.698 455.171 126.046 455.918 125.556C456.359 125.21 456.64 124.674 456.689 124.085C456.957 122.48 457.07 120.849 457.025 119.219C457.025 110.546 452.925 104.369 444.724 101.276C449.636 107.89 446.889 120.537 445.684 125.057Z"
                    fill="black"
                  />
                  <path
                    id="Vector_50"
                    d="M428.34 121.126C431.702 121.777 437.754 123.8 444.035 124.834C445.101 120.867 448.8 105.01 441.19 100.348C431.185 102.533 428.832 116.607 428.34 121.126V121.126Z"
                    fill="black"
                  />
                </g>
              </g>
            </g>
            <g id="github 1">
              <path
                id="Vector_51"
                d="M507.667 40H498.333C496.493 40 495 41.4927 495 43.3333V52.6667C495 54.5073 496.493 56 498.333 56H507.667C509.508 56 511 54.5073 511 52.6667V43.3333C511 41.4927 509.508 40 507.667 40ZM504.689 53.06C504.419 53.112 504.333 52.946 504.333 52.804V51.3407C504.333 50.8427 504.159 50.5187 503.967 50.3533C505.155 50.2213 506.403 49.77 506.403 47.722C506.403 47.1393 506.195 46.6633 505.854 46.2907C505.909 46.156 506.091 45.6133 505.801 44.8793C505.801 44.8793 505.354 44.736 504.336 45.426C503.909 45.306 503.453 45.248 503 45.2453C502.547 45.2473 502.091 45.306 501.665 45.4247C500.646 44.7347 500.198 44.878 500.198 44.878C499.909 45.6127 500.091 46.1547 500.147 46.29C499.805 46.6633 499.597 47.1387 499.597 47.7213C499.597 49.764 500.842 50.222 502.027 50.3573C501.875 50.4907 501.737 50.7253 501.689 51.0707C501.384 51.2067 500.613 51.442 500.137 50.6267C500.137 50.6267 499.855 50.1147 499.319 50.0767C499.319 50.0767 498.799 50.07 499.282 50.4013C499.282 50.4013 499.632 50.5653 499.875 51.1813C499.875 51.1813 500.183 52.1333 501.667 51.8107V52.8033C501.667 52.944 501.581 53.1093 501.315 53.06C499.195 52.3553 497.667 50.356 497.667 48C497.667 45.054 500.055 42.6667 503 42.6667C505.945 42.6667 508.333 45.054 508.333 48C508.333 50.3553 506.807 52.354 504.689 53.06Z"
                fill="#0D0E0F"
              />
            </g>
            <g id="instagram 1 1">
              <path
                id="Vector_52"
                d="M451 40H445C442.239 40 440 42.239 440 45V51C440 53.761 442.239 56 445 56H451C453.761 56 456 53.761 456 51V45C456 42.239 453.761 40 451 40ZM454.5 51C454.5 52.93 452.93 54.5 451 54.5H445C443.07 54.5 441.5 52.93 441.5 51V45C441.5 43.07 443.07 41.5 445 41.5H451C452.93 41.5 454.5 43.07 454.5 45V51Z"
                fill="#3F3D56"
              />
              <path
                id="Vector_53"
                d="M448 44C445.791 44 444 45.791 444 48C444 50.209 445.791 52 448 52C450.209 52 452 50.209 452 48C452 45.791 450.209 44 448 44ZM448 50.5C446.622 50.5 445.5 49.378 445.5 48C445.5 46.621 446.622 45.5 448 45.5C449.378 45.5 450.5 46.621 450.5 48C450.5 49.378 449.378 50.5 448 50.5Z"
                fill="#3F3D56"
              />
              <path
                id="Vector_54"
                d="M452.3 44.233C452.595 44.233 452.833 43.9944 452.833 43.7C452.833 43.4057 452.595 43.167 452.3 43.167C452.006 43.167 451.767 43.4057 451.767 43.7C451.767 43.9944 452.006 44.233 452.3 44.233Z"
                fill="#3F3D56"
              />
            </g>
            <g id="twitter 1 1">
              <rect
                width="16"
                height="16"
                transform="translate(387 40)"
                fill="#3F3D56"
              />
              <g id="Group_2">
                <path
                  id="Vector_55"
                  d="M403 43.039C402.405 43.3 401.771 43.473 401.11 43.557C401.79 43.151 402.309 42.513 402.553 41.744C401.919 42.122 401.219 42.389 400.473 42.538C399.871 41.897 399.013 41.5 398.077 41.5C396.261 41.5 394.799 42.974 394.799 44.781C394.799 45.041 394.821 45.291 394.875 45.529C392.148 45.396 389.735 44.089 388.114 42.098C387.831 42.589 387.665 43.151 387.665 43.756C387.665 44.892 388.25 45.899 389.122 46.482C388.595 46.472 388.078 46.319 387.64 46.078C387.64 46.088 387.64 46.101 387.64 46.114C387.64 47.708 388.777 49.032 390.268 49.337C390.001 49.41 389.71 49.445 389.408 49.445C389.198 49.445 388.986 49.433 388.787 49.389C389.212 50.688 390.418 51.643 391.852 51.674C390.736 52.547 389.319 53.073 387.785 53.073C387.516 53.073 387.258 53.061 387 53.028C388.453 53.965 390.175 54.5 392.032 54.5C398.068 54.5 401.368 49.5 401.368 45.166C401.368 45.021 401.363 44.881 401.356 44.742C402.007 44.28 402.554 43.703 403 43.039Z"
                  fill="white"
                />
              </g>
            </g>
            <g id="me">
              <path
                id="Vector_56"
                d="M120.796 360.081L127.853 365.536L123.362 386.451L116.307 387.36L112.457 375.539L120.796 360.081Z"
                fill="#FFB9B9"
              />
              <path
                id="Vector_57"
                d="M98.9866 401.909V411.91L88.0817 411.001L88.2336 402.764L98.9866 401.909Z"
                fill="#FFB9B9"
              />
              <path
                id="Vector_58"
                d="M123.362 240.051L119.514 308.25L107.326 408.273L88.0817 404.636L94.4961 325.526L91.9302 252.782L123.362 240.051Z"
                fill="#2F2E41"
              />
              <path
                id="Vector_59"
                d="M72.0449 189.13L118.231 190.039L123.362 240.051L91.9304 260.966L84.2328 300.975L123.362 360.08L107.967 387.359C107.967 387.359 86.1572 345.531 70.1204 321.889C54.0837 298.247 61.7814 226.412 61.7814 226.412L72.0449 189.13Z"
                fill="#2F2E41"
              />
              <path
                id="Vector_60"
                d="M99.628 60.0081C107.422 60.0081 113.74 51.0517 113.74 40.0034C113.74 28.955 107.422 19.9986 99.628 19.9986C91.834 19.9986 85.5157 28.955 85.5157 40.0034C85.5157 51.0517 91.834 60.0081 99.628 60.0081Z"
                fill="#FFB9B9"
              />
              <path
                id="Vector_61"
                d="M104.76 53.6431V73.6479L95.1377 95.4712C95.1377 95.4712 80.3839 80.013 83.5913 76.3758C86.7986 72.7385 87.4401 44.5499 87.4401 44.5499L104.76 53.6431Z"
                fill="#FFB9B9"
              />
              <path
                id="Vector_62"
                d="M104.76 70.011L114.382 86.3782L110.533 200.041L80.3841 199.132L75.2523 100.018L81.6667 74.5574L86.0669 66.071L93.8549 82.7409L104.76 70.011Z"
                fill="white"
              />
              <path
                id="Vector_63"
                d="M120.155 129.116L127.211 167.307L120.155 205.498L131.701 227.321L141.965 158.214C141.965 158.214 134.267 101.836 133.626 95.4712C132.984 89.106 131.701 88.1967 131.701 88.1967L126.57 89.106L120.155 129.116Z"
                fill="#2F2E41"
              />
              <path
                id="Vector_64"
                d="M68.8379 143.664L64.3475 155.486L63.0642 175.491L65.6301 198.223L56.6498 219.138L47.6695 161.851L57.2911 88.1964H61.1403L68.8379 143.664Z"
                fill="#2F2E41"
              />
              <path
                id="Vector_65"
                d="M123.362 359.171C123.362 359.171 132.343 362.808 135.55 363.717C138.758 364.627 133.626 381.904 133.626 381.904C133.626 381.904 130.418 405.546 129.777 410.092C129.136 414.639 124.645 430.097 118.872 431.916C113.099 433.734 116.948 400.09 116.948 400.09C116.948 400.09 114.382 389.178 114.382 385.541C114.382 381.904 118.231 383.722 118.231 383.722C128.494 381.904 123.362 359.171 123.362 359.171Z"
                fill="#2F2E41"
              />
              <path
                id="Vector_66"
                d="M102.194 429.188C101.552 434.644 102.835 434.644 92.5718 436.462C82.3083 438.281 84.8742 426.46 84.8742 426.46C85.3033 420.887 86.1638 415.398 87.4401 410.092C89.3645 402.818 99.628 411.911 99.628 411.911C99.628 411.911 102.835 423.732 102.194 429.188Z"
                fill="#2F2E41"
              />
              <path
                id="Vector_67"
                d="M87.4234 45.185L87.0891 53.2718C87.0891 53.2718 82.9499 40.0033 82.3084 26.3637C81.6669 12.7241 92.5719 9.99618 98.9866 9.08687C105.401 8.17756 116.306 14.5427 116.306 21.8172C116.306 29.0917 104.76 27.2731 100.27 25.4544C95.7792 23.6358 93.8548 39.0941 93.8548 39.0941L91.289 40.0034L87.4234 45.185Z"
                fill="#2F2E41"
              />
              <path
                id="Vector_68"
                d="M108.546 76.4503L104.76 70.011L93.8549 82.741L104.76 93.6527L108.546 76.4503Z"
                fill="white"
              />
              <path
                id="Vector_69"
                d="M81.6667 74.5573L86.1572 66.3737L93.8549 82.7409L84.2326 92.7436L81.6667 74.5573Z"
                fill="white"
              />
              <path
                id="Vector_70"
                d="M122.079 141.846L119.514 176.4L124.645 197.314L127.853 217.319C127.853 217.319 127.853 236.414 115.023 237.323C102.194 238.233 91.2889 180.037 91.2889 180.037C91.2889 180.037 89.3645 192.767 88.0815 200.042C86.7986 207.316 64.9887 236.414 64.9887 236.414C64.9887 236.414 59.8569 235.505 55.3666 220.956C50.8764 206.407 64.3472 192.767 64.3472 192.767L68.196 173.672L66.9131 150.03L57.9325 88.1967L84.5534 68.6466L81.6668 120.932L91.2889 161.851L105.722 71.3745L110.533 76.3758L131.06 88.1968L122.079 141.846Z"
                fill="#2F2E41"
              />
            </g>
            <g id="code">
              <path
                id="Vector_71"
                d="M273.211 223.037L285.499 200.99L273.211 178.944L276.957 172.225L292.992 200.99L276.957 229.756L273.211 223.037Z"
                fill="#6C63FF"
              />
              <path
                id="typing"
                d="M238.118 202.563H243.114V193.574H238.118L238.118 202.563ZM263.195 193.574H258.2V202.563H263.195V193.574ZM248.159 202.563H253.154V193.574H248.159V202.563Z"
                fill="#6C63FF"
              />
              <path
                id="Vector_72"
                d="M231.35 222.812L219.049 200.766L231.337 178.719L227.591 172L211.568 200.766L227.603 229.531L231.35 222.812Z"
                fill="#6C63FF"
              />
            </g>
            <g id="myPortfolioIcon 1">
              <path
                id="Vector_73"
                d="M232 41H250V57H232V41Z"
                fill="url(#paint1_linear)"
              />
              <path
                id="Vector_74"
                d="M234.25 43C234.25 41.8953 235.257 41 236.5 41C237.743 41 238.75 41.8953 238.75 43C238.75 43.882 238.104 44.622 237.213 44.888C237.087 47.7513 238.728 48.064 240.961 48.482C242.243 48.722 243.693 48.9987 244.75 49.872V44.8773C243.878 44.602 243.25 43.87 243.25 43C243.25 41.8953 244.257 41 245.5 41C246.743 41 247.75 41.8953 247.75 43C247.75 43.87 247.122 44.602 246.25 44.8773V53.122C247.122 53.398 247.75 54.13 247.75 55C247.75 56.1047 246.743 57 245.5 57C244.257 57 243.25 56.1047 243.25 55C243.25 54.1367 243.868 53.408 244.73 53.128C244.527 50.5133 242.802 50.1893 240.652 49.7867C238.374 49.36 235.572 48.8253 235.718 44.8687C234.862 44.5853 234.25 43.8593 234.25 43ZM246.85 43C246.85 42.338 246.245 41.8 245.5 41.8C244.755 41.8 244.15 42.338 244.15 43C244.15 43.662 244.755 44.2 245.5 44.2C246.245 44.2 246.85 43.662 246.85 43ZM244.15 55C244.15 55.662 244.755 56.2 245.5 56.2C246.245 56.2 246.85 55.662 246.85 55C246.85 54.338 246.245 53.8 245.5 53.8C244.755 53.8 244.15 54.338 244.15 55ZM236.5 44.2C237.245 44.2 237.85 43.662 237.85 43C237.85 42.338 237.245 41.8 236.5 41.8C235.755 41.8 235.15 42.338 235.15 43C235.15 43.662 235.755 44.2 236.5 44.2Z"
                fill="#FFFDFD"
              />
            </g>
          </g>
          <defs>
            <linearGradient
              id="paint0_linear"
              x1="27.2521"
              y1="130.567"
              x2="27.2521"
              y2="158.514"
              gradientUnits="userSpaceOnUse"
            >
              <stop stop-color="#331C1C" />
              <stop offset="1" stop-color="white" stop-opacity="0" />
            </linearGradient>
            <linearGradient
              id="paint1_linear"
              x1="241"
              y1="41"
              x2="241"
              y2="57"
              gradientUnits="userSpaceOnUse"
            >
              <stop stop-color="#3C3939" />
              <stop offset="1" stop-color="#3D10F0" stop-opacity="0.25" />
            </linearGradient>
            <clipPath id="clip0">
              <rect
                width="235.169"
                height="287"
                fill="white"
                transform="translate(312.347 73)"
              />
            </clipPath>
            <clipPath id="clip1">
              <rect
                width="46"
                height="50"
                fill="white"
                transform="translate(411.347 91)"
              />
            </clipPath>
          </defs>
        </svg>